<?xml version="1.0" standalone="no"?>
<!DOCTYPE svg PUBLIC "-//W3C//DTD SVG 1.1//EN" "http://www.w3.org/Graphics/SVG/1.1/DTD/svg11.dtd" >
<svg xmlns="http://www.w3.org/2000/svg">
<metadata></metadata>
<defs>
<font id="american_typewriterlight" horiz-adv-x="1267" >
<font-face units-per-em="2048" ascent="1638" descent="-410" />
<missing-glyph horiz-adv-x="512" />
<glyph unicode="&#xfb01;" horiz-adv-x="1230" d="M51 14q0 27 45 27h10q14 0 44 -2t45 -2q78 0 94 49t16 289v528q0 55 -37 55q-20 0 -65 -4t-60 -4q-47 0 -47 29q0 25 37 25q20 0 62.5 -3.5t64.5 -3.5q33 0 40 10.5t9 55.5q10 346 369 346q137 0 224 -49t87 -127q0 -88 -82 -88q-68 0 -67 65q0 63 55 64q16 0 16 10 q0 23 -65 51q-78 33 -176 33q-309 0 -310 -332q0 -29 6.5 -34t63.5 -5h385q41 0 94 4q12 2 23 3q33 0 33 -41v-21q-2 -23 -2 -43v-524q0 -240 16 -289t94 -49q14 0 44 2t44 2h8q45 0 45 -25q0 -27 -36 -26h-9l-71 6l-84 6l-58 2h-41l-57 -2l-84 -6l-72 -6h-8q-37 0 -37 24 q0 27 43 27h11q2 0 46 -2t42 -2q78 0 94 49t16 289v321q0 147 0 129q-4 106 -30 123q-16 10 -64 10h-379q-55 0 -61 -2t-8 -8q-8 -8 -9 -45v-528q0 -240 16.5 -289t94.5 -49q14 0 43 2t43 2h10q45 0 45 -25q0 -27 -37 -26q-10 0 -8 0l-71 6l-84 6l-60 2h-39l-57 -2l-86 -6 l-72 -6h-6q-39 0 -39 24z" />
<glyph unicode="&#xfb02;" horiz-adv-x="1230" d="M51 14q0 27 45 27h10q14 0 44 -2t45 -2q78 0 94 49t16 289v528q0 55 -37 55q-18 0 -65 -4t-60 -4q-47 0 -47 29q0 25 37 25q20 0 64 -5q23 -2 49 -2q45 0 53 9.5t10 56.5q10 244 172 317q63 29 156 29q61 0 166 -10q61 -6 82 -6h41q18 0 28.5 -8.5t10.5 -53.5 q0 -14 -2 -22v-934q0 -238 16 -288t96 -50q14 0 43 2t43 2h10q43 0 43 -25q0 -27 -36 -26h-7l-71 6l-84 6l-60 2h-41l-59 -2l-84 -6l-72 -6h-6q-37 0 -37 24q0 27 43 27h11q14 0 42.5 -2t43.5 -2q80 0 96 49t16 289v715q0 162 -7 203.5t-36 52.5q-59 23 -213 22 q-156 0 -225.5 -75.5t-69.5 -245.5q0 -35 7.5 -43.5t42.5 -8.5q25 0 133 6q37 2 77 3q51 0 52 -27q0 -27 -54 -27h-6l-78 4l-96 4q-49 2 -37 3q-41 0 -41 -58v-528q0 -240 16.5 -289t94.5 -49q14 0 43 2t43 2h10q45 0 45 -25q0 -27 -37 -26q-10 0 -8 0l-71 6l-84 6l-60 2 h-39l-57 -2l-86 -6l-72 -6h-6q-39 0 -39 24z" />
<glyph horiz-adv-x="0" />
<glyph horiz-adv-x="682" />
<glyph horiz-adv-x="0" />
<glyph horiz-adv-x="0" />
<glyph horiz-adv-x="0" />
<glyph unicode="&#x9;" horiz-adv-x="512" />
<glyph unicode="&#xd;" horiz-adv-x="681" />
<glyph horiz-adv-x="0" />
<glyph unicode=" "  horiz-adv-x="512" />
<glyph unicode="&#x09;" horiz-adv-x="512" />
<glyph unicode="&#xa0;" horiz-adv-x="512" />
<glyph unicode="!" horiz-adv-x="858" d="M332 76q0 41 27.5 69.5t68.5 28.5t68.5 -28.5t27.5 -69.5t-28.5 -70t-67.5 -29q-41 0 -68.5 29t-27.5 70zM391 1348q0 57 37 57q35 0 35 -57l-8 -1045q0 -51 -27 -51q-29 0 -29 51z" />
<glyph unicode="&#x22;" horiz-adv-x="528" d="M131 1366h53l-8 -551h-39zM344 1366h55l-8 -551h-39z" />
<glyph unicode="#" horiz-adv-x="1228" d="M111 467l8 49h246l55 361h-248l8 49h246l66 440h53l-66 -440h363l65 440h54l-68 -440h240l-9 -49h-237l-53 -361h237l-6 -49h-242l-67 -467h-54l70 467h-362l-70 -467h-51l69 467h-247zM418 516h362l54 361h-363z" />
<glyph unicode="$" d="M166 344q0 55 26.5 90t69.5 35q33 0 55.5 -20.5t22.5 -51.5q0 -66 -68 -65h-10q-31 0 -31 -31q0 -78 106.5 -155.5t293.5 -92.5v633q-213 43 -305.5 117t-92.5 203q0 121 83 213t216 120q35 6 99 13v198q0 51 28 52q25 -1 25 -46v-204q182 -12 281 -86q119 -90 118 -213 q0 -47 -27.5 -78t-70.5 -31q-68 0 -67 64q0 45 43 63.5t43 44.5q0 74 -89.5 125t-230.5 62v-572q137 -25 203 -49q215 -78 215 -301q0 -197 -166 -297q-96 -59 -252 -74v-170q0 -59 -27 -59t-26 63v164q-135 10 -208 36t-144 87q-113 98 -113 213zM289 1004 q0 -100 64.5 -158t221.5 -92l56 -13v559q-127 -6 -199 -49q-143 -88 -143 -247zM684 55q141 16 219 66q143 88 144 264q0 172 -156 238q-68 29 -150 45q-26 6 -57 10v-623z" />
<glyph unicode="%" horiz-adv-x="1640" d="M72 983q0 190 90 306t237 116q115 0 238 -102q76 -63 128 -85t128 -22q94 0 187.5 51t138.5 127q20 35 41 35q31 0 30 -29q0 -20 -24 -55l-45 -65l-62 -97l-123 -196l-229 -363l-365 -604q-18 -33 -43 -33q-33 0 -32 29q0 18 57 106l143 220l189 296l321 527q12 23 43 76 q-125 -80 -225 -80q-123 0 -229 88q41 -123 41 -232q0 -186 -88.5 -298.5t-231.5 -112.5t-229 109.5t-86 287.5zM129 977q0 -160 68.5 -253t185.5 -93q123 0 193.5 100t70.5 277q0 166 -67.5 259t-188.5 93t-191.5 -104.5t-70.5 -278.5zM934 352q0 190 90 310t233 120 t228.5 -110.5t85.5 -292.5q0 -184 -91 -301t-235 -117q-139 0 -225 107.5t-86 283.5zM991 348q0 -160 68.5 -252t185.5 -92q125 0 195.5 100.5t70.5 280.5q0 164 -67.5 258t-183.5 94q-123 0 -196 -105.5t-73 -283.5z" />
<glyph unicode="&#x26;" horiz-adv-x="1677" d="M119 356q0 182 137 316q74 72 223 155q-117 217 -117 344q0 111 76 182.5t191 71.5q109 0 178.5 -66.5t69.5 -166.5q0 -143 -144 -256q-39 -31 -176 -119q76 -143 131 -233q88 -145 217 -303q41 84 92 262q74 250 136 344q88 131 245 131q109 0 179.5 -67.5t70.5 -170.5 q0 -88 -56 -149.5t-140 -61.5q-57 0 -95.5 32t-38.5 79q0 68 58 68q43 0 43 -43q0 -23 -27 -35q-12 -6 -12 -13q0 -18 41 -32q25 -4 35 -4q57 0 97 47t40 112q0 84 -55.5 136.5t-143.5 52.5q-164 0 -244 -189q-29 -68 -63 -186q-71 -246 -98 -303q-12 -27 -27 -53 q119 -117 214 -155t230 -38q23 0 66 2t66 2q59 0 59 -29q0 -31 -123 -30q-203 0 -315 39q-96 33 -230 155q-100 -131 -204 -174q-82 -33 -177 -33q-180 0 -294.5 106.5t-114.5 272.5zM186 367q0 -150 97.5 -245t251.5 -95q205 0 337 198q-135 162 -233 316q-61 96 -139 241 q-133 -74 -201 -141q-113 -115 -113 -274zM430 1178q0 -121 102 -318q285 156 285 336q0 84 -51 135t-137 51q-92 0 -145.5 -55t-53.5 -149z" />
<glyph unicode="'" horiz-adv-x="315" d="M131 1366h53l-8 -551h-37z" />
<glyph unicode="(" horiz-adv-x="782" d="M96 498q0 256 127 480t350 363q102 63 138 64q18 0 18 -16q0 -12 -45 -35q-219 -111 -368.5 -341.5t-149.5 -514.5q0 -444 360 -748q84 -70 158 -106q45 -23 45 -35q0 -16 -18 -17q-16 0 -76 29q-78 39 -172 115q-176 143 -271.5 341.5t-95.5 420.5z" />
<glyph unicode=")" horiz-adv-x="782" d="M55 -391q0 12 43 35q223 113 373 344q145 225 145 510q0 446 -358 749q-78 66 -160 107q-43 20 -43 35q0 16 19 16q16 0 73 -29q93 -44 175 -114q367 -307 366 -764q0 -256 -127 -479.5t-350 -362.5q-102 -63 -139 -64q-16 0 -17 17z" />
<glyph unicode="*" d="M342 895q0 29 55 53l156 72q35 16 35 33q0 16 -35 32l-156 72q-55 25 -55 51q0 31 35 31q23 0 55 -25l135 -100q25 -18 37 -18q16 0 17 22q0 8 -3 27l-18 160v18q-2 10 -2 14q0 41 37 41q35 0 35 -41q0 -14 -2 -32l-19 -160q-2 -18 -2 -25q0 -25 17 -24q12 0 36 18 l136 100q33 25 57 25q33 0 33 -29q0 -27 -27 -41l-29 -12l-153 -72q-35 -16 -35 -32t35 -33l182 -86q27 -10 27 -39t-33 -29q-25 0 -57 25l-136 98q-29 20 -36 21q-16 0 -17 -25q0 -6 2 -24l19 -162q2 -18 2 -31q0 -41 -35 -41q-37 0 -37 41q0 2 2 12v19l18 162q2 18 3 26 q0 23 -17 23q-8 0 -37 -21l-135 -98q-35 -25 -55 -25q-35 0 -35 29z" />
<glyph unicode="+" horiz-adv-x="1024" d="M68 645v49h419v381h52v-381h417v-49h-417v-379h-52v379h-419z" />
<glyph unicode="," horiz-adv-x="446" d="M123 61q0 43 29.5 72t72.5 29q125 0 125 -185q0 -174 -119 -348q-35 -51 -47 -51q-29 0 -28 25q0 4 10 20q4 4 43 58q84 115 84 235q0 66 -35 66q-16 0 -27 -5q-25 -4 -26 -4q-33 0 -57.5 27t-24.5 61z" />
<glyph unicode="-" horiz-adv-x="782" d="M74 530q0 31 57 31h518q60 0 60 -33q0 -31 -60 -30h-522q-53 0 -53 32z" />
<glyph unicode="." horiz-adv-x="446" d="M125 74q0 39 27.5 66.5t68.5 27.5t71 -27.5t30 -66.5q0 -41 -29 -69t-70 -28t-69.5 29t-28.5 68z" />
<glyph unicode="/" horiz-adv-x="819" d="M-41 -365q0 20 45 129l471 1170q113 287 131 338q33 92 43 112.5t31 20.5q31 0 31 -33q0 -16 -13 -43q-6 -12 -34 -88q-39 -100 -121 -303l-183 -449q-82 -205 -286 -747l-25 -66q-27 -72 -55 -71q-35 0 -35 30z" />
<glyph unicode="0" d="M90 680q0 332 148.5 528.5t398.5 196.5q252 0 396.5 -194.5t144.5 -534.5q0 -330 -147.5 -522.5t-397.5 -192.5q-252 0 -397.5 192.5t-145.5 526.5zM150 672q0 -315 127 -490.5t354 -175.5q231 0 359 178t128 506q0 317 -128 492.5t-361 175.5q-223 0 -351 -183.5 t-128 -502.5z" />
<glyph unicode="1" d="M303 16q0 27 45 27q25 0 54.5 -4t74.5 -4q74 0 101.5 31.5t27.5 117.5q0 78 2 140.5t2 150.5v604q0 176 -18.5 216t-97.5 40q-14 0 -76 -4q-31 -2 -62 -2q-49 0 -49 29q0 27 39 26q6 0 10 -2l56 -8q41 -6 102 -6q10 0 25 2h16q56 8 70 8q31 0 39 -28q2 -10 2 -54v-827 q0 -98 2 -166l4 -141q0 -72 25.5 -101.5t86.5 -29.5q2 0 23.5 2t56.5 4t49 2q51 0 52 -29q0 -25 -39 -24q-14 0 -97 8q-164 16 -211 16q-92 0 -184 -12q-76 -10 -84 -10q-47 0 -47 28z" />
<glyph unicode="2" d="M106 127q0 209 148 340q113 100 362 172q186 55 251 87t108 93q53 76 53 189q0 164 -107.5 257t-299.5 93q-336 0 -428 -236q-18 -47 -19 -84q0 -43 25 -43q6 0 21.5 9.5t25.5 9.5q59 0 59 -66q0 -31 -23.5 -52.5t-56.5 -21.5q-100 0 -100 136q0 172 141.5 283.5 t358.5 111.5q207 0 330.5 -106.5t123.5 -282.5q0 -258 -235 -348q-92 -35 -230 -74q-199 -55 -306 -139t-146 -215q-17 -56 -17 -95q0 -4 5 -41q78 162 264 162q127 0 252 -112q94 -84 114 -99q57 -47 131 -47q82 0 143.5 64.5t61.5 150.5q0 61 -31 107q-6 14 -16 14 q-6 0 -21.5 -19.5t-35.5 -19.5q-47 0 -47 47q0 25 21.5 42.5t49.5 17.5q51 0 88 -55.5t37 -131.5q0 -111 -73.5 -187.5t-178.5 -76.5q-66 0 -117 27.5t-145 113.5q-121 109 -244 109q-164 0 -223 -119q-4 -16 -4 -18q0 -12 8 -13q2 0 6.5 2.5t16.5 2.5q47 0 47 -48 q0 -51 -57 -51q-90 0 -91 160z" />
<glyph unicode="3" d="M125 319q0 68 39 116t92 48q78 0 78 -67q0 -61 -58 -62q-10 0 -28.5 9.5t-30.5 9.5q-41 0 -41 -74q0 -119 124 -205t294 -86q225 0 355 117t130 315q0 174 -94 267.5t-270 93.5q-121 0 -189 -39q-14 -8 -24 -8q-16 0 -17 18q0 10 7 16l18 17l475 463q29 29 29 37t-29 8 h-661q-84 0 -93 -47q-2 -16 -2 -49q0 -96 9 -166q2 -23 6 -66v-4q0 -45 -31 -45q-27 0 -27 33l2 4l7 84q2 29 2 67q0 51 -4.5 102.5t-4.5 80.5q0 55 50 53l65 -2h698q70 0 80 -15q4 -8 4 -20q0 -20 -43 -63l-434 -429q45 12 101 13q203 0 317.5 -106.5t114.5 -293.5 q0 -217 -145.5 -350t-383.5 -133q-211 0 -349 101.5t-138 256.5z" />
<glyph unicode="4" d="M63 455q0 23 33 63l666 821q51 63 82 64q37 0 37 -55v-838q0 -31 6 -38t28 -7h11l170 4q8 2 22.5 3t20.5 1h10q49 0 49 -27q0 -28 -39 -28h-233q-31 0 -38 -7.5t-7 -37.5v-219q0 -72 19.5 -96.5t86.5 -24.5h10l54 2h53q41 0 41 -23q0 -27 -45 -26q-31 0 -84 6 q-61 6 -82 8q-70 4 -90 4q-23 0 -92 -4q-49 -4 -146 -14h-4q-43 0 -43 26q0 25 45 25q18 0 57 -3t60 -3q61 0 80.5 24.5t23.5 106.5l2 53v158q0 31 -8 38t-39 7h-635q-82 0 -82 37zM127 471q0 -8 25 -8h628q33 0 40 7t7 38v792q0 27 -10 27q-6 0 -16 -12l-662 -823 q-12 -14 -12 -21z" />
<glyph unicode="5" d="M131 315q0 70 36 115t91 45q76 0 76 -67q0 -61 -60 -62q-23 0 -47 21q-4 2 -8 2q-39 0 -39 -64q0 -125 124 -212t300 -87q219 0 346 117t127 315q0 184 -109.5 290t-299.5 106q-111 0 -214.5 -42t-160.5 -110q-39 -47 -66 -47q-35 0 -34 43q0 14 2 22l73 619q6 43 45 41 l33 -2l635 2q31 2 35 -68q2 -33 10 -67l14 -60q4 -10 4 -28q0 -29 -20 -29q-25 0 -29 43l-6 70q-6 61 -35 77q-20 14 -86 15h-510q-35 0 -41 -27q0 4 -4 -29l-67 -540q0 -10 6 -10t16 10q61 76 169 120t229 44q213 0 342 -119t129 -318q0 -215 -143.5 -349t-372.5 -134 q-209 0 -349.5 101.5t-140.5 252.5z" />
<glyph unicode="6" d="M119 635q0 344 162.5 557t427.5 213q172 0 285.5 -86t113.5 -215q0 -131 -104 -131q-72 0 -72 63q0 59 53 60q10 0 25 -9q6 -4 16 -4q20 0 21 50q0 94 -98.5 159.5t-241.5 65.5q-244 0 -386.5 -200t-142.5 -546q0 -61 10 -145q25 111 50.5 165t76.5 107q133 139 363 140 q211 0 341 -119t130 -314q0 -211 -140.5 -348t-353.5 -137q-250 0 -393 179t-143 495zM227 399q0 -172 121 -282.5t307 -110.5q190 0 311 123t121 315q0 174 -109.5 280.5t-291.5 106.5q-205 0 -332 -119.5t-127 -312.5z" />
<glyph unicode="7" d="M145 881q0 6 15 88q8 47 8 143q0 100 -4 174t-4 57q0 43 28 43q27 0 27 -43v-8l-8 -57v-45l-2 -37q88 195 276 195q61 0 105.5 -22.5t118.5 -94.5q121 -115 192 -115q61 0 115 55q33 35 32 56q0 6 -10 10q-41 16 -41 49q0 53 56 53q31 0 51 -30.5t20 -75.5 q0 -154 -108 -287q-41 -49 -156 -166q-150 -152 -217.5 -287t-75.5 -303q-4 -78 -4 -194v-12q0 -55 -37 -56q-41 0 -41 64q0 236 58 409q66 199 243 375l144 142q121 119 137 253q-82 -106 -180 -106q-96 0 -234 141q-90 94 -172 94q-111 0 -192.5 -103t-81.5 -243 q0 -25 2 -53q4 -57 4 -53q0 -55 -33 -55q-31 0 -31 45z" />
<glyph unicode="8" d="M115 399q-1 205 161 318q76 53 199 90q-264 72 -264 276q0 141 119 231.5t303 90.5t303 -89t119 -229q0 -211 -262 -280q127 -37 198 -90q162 -117 162 -318q0 -197 -144.5 -317.5t-375.5 -120.5t-374.5 122t-143.5 316zM174 395q0 -176 126 -282.5t333 -106.5 q209 0 335 106.5t126 282.5t-127 282.5t-334 106.5t-333 -107.5t-126 -281.5zM272 1096q0 -115 102.5 -192t258.5 -77t259 77t103 192t-101 188.5t-261 73.5t-260.5 -72.5t-100.5 -189.5z" />
<glyph unicode="9" d="M119 920q0 211 139 348t354 137q250 0 393.5 -179t143.5 -495q0 -344 -163 -557t-425 -213q-174 0 -287.5 86t-113.5 215q0 133 104 133q72 0 72 -65q0 -23 -15.5 -41.5t-35.5 -18.5q-12 0 -25.5 7.5t-15.5 7.5q-25 0 -25 -54q0 -94 100.5 -159.5t243.5 -65.5 q244 0 385.5 202t141.5 554q0 57 -11 137q-35 -178 -127 -272q-135 -139 -362 -140q-211 0 -341 119t-130 314zM178 920q0 -174 110.5 -279.5t293.5 -105.5q205 0 330.5 119.5t125.5 312.5q0 172 -120 281.5t-306 109.5q-193 0 -313.5 -122t-120.5 -316z" />
<glyph unicode=":" horiz-adv-x="446" d="M125 74q0 39 27.5 66.5t68.5 27.5t71 -27.5t30 -66.5q0 -41 -29 -69t-70 -28t-69.5 29t-28.5 68zM125 930q0 39 27.5 66.5t68.5 27.5t71 -27.5t30 -66.5t-29 -67.5t-70 -28.5t-69.5 28.5t-28.5 67.5z" />
<glyph unicode=";" horiz-adv-x="446" d="M123 61q0 43 29.5 72t72.5 29q125 0 125 -185q0 -174 -119 -348q-35 -51 -47 -51q-29 0 -28 25q0 4 10 20q4 4 43 58q84 115 84 235q0 66 -35 66q-16 0 -27 -5q-25 -4 -26 -4q-33 0 -57.5 27t-24.5 61zM125 930q0 39 27.5 66.5t68.5 27.5t71 -27.5t30 -66.5t-29 -67.5 t-70 -28.5t-69.5 28.5t-28.5 67.5z" />
<glyph unicode="&#x3c;" horiz-adv-x="1024" d="M68 645v51l888 383v-53l-829 -356l829 -357v-53z" />
<glyph unicode="=" horiz-adv-x="1024" d="M68 541v47h888v-47h-888zM68 817v49h888v-49h-888z" />
<glyph unicode="&#x3e;" horiz-adv-x="1024" d="M68 260v53l829 357l-829 356v53l888 -385v-51z" />
<glyph unicode="?" horiz-adv-x="1155" d="M119 1051q0 156 138 255t351 99t339 -97.5t126 -258.5q0 -184 -155 -283q-70 -43 -164 -86q-135 -59 -175 -119.5t-40 -204.5v-22q0 -2 2 -6v-9q0 -55 -31 -55q-33 0 -33 74q0 150 37 221q43 82 195 154q143 68 198.5 112.5t83.5 114.5q20 51 21 109q0 143 -108.5 227 t-297.5 84q-188 0 -309 -87t-121 -224q0 -59 33 -102.5t78 -43.5q35 0 35 23v2l-11 22q-4 4 -4 17q0 27 18.5 45t43.5 18q27 0 47 -21.5t20 -50.5q0 -45 -35.5 -74.5t-93.5 -29.5q-82 0 -135 55.5t-53 141.5zM416 76q0 41 28.5 69.5t69.5 28.5t68.5 -28.5t27.5 -69.5 t-28.5 -70t-69.5 -29q-39 0 -67.5 29t-28.5 70z" />
<glyph unicode="@" horiz-adv-x="1378" d="M6 571q0 322 216 543t530 221q268 0 437 -158.5t169 -412.5q0 -195 -103.5 -353.5t-230.5 -158.5q-160 0 -195 192q-127 -184 -272 -184q-98 0 -161.5 79t-63.5 200q0 195 131 360q124 158 278 158q135 0 199 -135q4 12 10 32q10 31 11 39q14 45 36 45q27 0 27 -28 q0 -12 -6 -31l-14 -41l-9 -31l-92 -295q-27 -86 -26 -139q0 -74 42 -125t103 -51q125 0 221 199q61 129 62 286q0 225 -156 366.5t-404 141.5q-287 0 -486.5 -209t-199.5 -512q0 -229 137.5 -363t368.5 -134q141 0 252 71q16 10 25 11q8 0 16 -6.5t8 -16.5q0 -41 -94 -73.5 t-213 -32.5q-254 0 -403.5 147t-149.5 399zM385 543q0 -102 51 -170t129 -68q127 0 223 180q43 80 89 230q27 88 26 129q0 72 -48 119t-124 47q-125 0 -235.5 -151.5t-110.5 -307.5v-8z" />
<glyph unicode="A" horiz-adv-x="1490" d="M-2 23q0 29 43 28q14 0 41 -3t41 -3q98 0 149 139l27 72l408 1047q27 69 58 69h1q35 0 57 -59l303 -836q111 -305 152 -379q29 -53 86 -53q14 0 41 2t41 2q47 0 47 -24q0 -14 -13.5 -22.5t-31.5 -8.5q-27 0 -68 6q-68 10 -151 10q-82 0 -127 -6l-90 -12h-11q-55 0 -55 28 q0 31 51 31q2 0 57.5 -4t61.5 -4q80 0 80 61q0 29 -18 80l-39 107l-70 182q-4 12 -16 31q-6 4 -33 4h-528q-27 0 -34 -4t-18 -31l-110 -285q-6 -18 -17 -43q-8 -16 -8 -39q0 -61 105 -61q18 0 61 2q12 2 41 2h2q47 0 47 -24q0 -27 -43 -27q-8 0 -91 6t-177 6 q-80 0 -137.5 -8t-73.5 -8q-41 0 -41 29zM483 573q0 -24 42 -24h3h457q45 0 45 24q0 8 -8 31l-258 701l-272 -701q-8 -20 -9 -31z" />
<glyph unicode="B" horiz-adv-x="1417" d="M63 16q0 31 46 31q2 0 49 -4t65 -4q61 0 82 41q14 27 17 98l4 154l-4 856q-2 72 -15 98q-23 41 -84 41q-16 0 -65 -4q-25 -2 -49 -2q-45 0 -46 27q0 26 40 26h3h9l45 -4q29 0 83 -6t83 -6h57q31 0 170 8t240 8q205 0 305 -65q127 -84 127 -240q-1 -174 -142 -256 q-49 -29 -133 -57q334 -68 334 -377q0 -197 -135 -299q-113 -86 -330 -86q-74 0 -170 4l-141 6q-92 4 -125 4h-57q-35 0 -107 -8t-104 -8h-9q-43 0 -43 24zM383 666l2 -516q0 -66 31 -82q20 -12 100 -17l131 -8q66 -4 115 -4q123 0 178 8q98 16 162 68q119 98 119 272 q0 285 -289 330q-92 14 -209 14h-39q-31 -2 -41 -2l-131 -2q-47 0 -61 -2q-43 -4 -53.5 -16.5t-14.5 -42.5zM383 862q0 -74 39 -86q20 -6 65 -6h189q141 0 192 6q106 14 181 66q113 76 112 217q0 143 -119 217q-82 51 -256 51q-92 0 -176 -4l-127 -6q-70 -4 -85 -21.5 t-15 -99.5v-334z" />
<glyph unicode="C" horiz-adv-x="1304" d="M100 684q0 326 162 523.5t430 197.5q201 0 320 -111q39 -37 92 -127l12 -26v33l-4 61v55l-2 6q0 59 31 60q25 0 24 -33q0 -16 -4 -78q-10 -156 -10 -231q0 -100 4 -142q6 -61 6 -63q0 -37 -26 -37q-31 0 -31 47q0 35 2 64q4 55 4 65q0 186 -114.5 298t-305.5 112 q-258 0 -389 -193q-139 -203 -139 -503q0 -307 141 -481.5t391 -174.5q201 0 320 111.5t127 306.5q4 82 35 82t30 -41q0 -223 -145.5 -363.5t-374.5 -140.5q-272 0 -429 193.5t-157 529.5z" />
<glyph unicode="D" horiz-adv-x="1490" d="M63 16q0 31 43 31q6 0 51.5 -4t63.5 -4q63 0 84 41q14 27 17 98l4 154l-4 856q-2 72 -17 98q-20 41 -84 41q-18 0 -56 -3t-56 -3q-45 0 -46 27q0 26 40 26h3h7l47 -4q141 -12 166 -12h57q23 0 176 10q92 6 166 6q186 0 300 -40t194 -130q174 -199 174 -526 q0 -252 -111 -431t-293 -227q-107 -28 -259 -28h-11q-57 0 -169 8t-167 8h-57q-35 0 -109 -8t-104 -8h-7q-43 0 -43 24zM383 162q0 -84 52 -104.5t272 -20.5q180 0 278 31q143 45 234 176q110 159 110 415q0 259 -87 419q-87 162 -249 210q-125 39 -291 39q-76 0 -112 -4 l-109 -12q-51 -6 -68.5 -18.5t-21.5 -45.5q-8 -76 -8 -182v-903z" />
<glyph unicode="E" horiz-adv-x="1380" d="M51 29q0 32 48 32h3q8 0 13 -2l55 -6q37 -4 68 -4q61 0 77 49q8 23 9 103v16q0 12 2 129v146v387v145l-2 145q0 82 -9 103q-14 49 -77 49q-31 0 -68 -4l-55 -6h-11q-53 0 -53 30q0 29 55 29q12 0 11 0q123 -8 157 -8l672 2l176 10h13q67 0 67 -61q0 -28 -2 -82 q-2 -60 -2 -135q0 -121 6 -187v-12q0 -72 -30 -72q-31 0 -31 62v16q4 43 6 86l2 78l4 80v18q0 109 -30.5 132.5t-172.5 23.5h-444q-88 0 -106.5 -27.5t-18.5 -167.5l2 -327q2 -45 14.5 -54.5t71.5 -9.5h215q162 0 162 107v6l-2 57l-4 78q0 55 26 55q29 0 29 -57 q0 -14 -6 -80q-10 -106 -10 -182q0 -176 18 -311v-19q0 -57 -29 -57q-32 0 -32 61v15l6 73l4 68v14q0 76 -35 103.5t-127 27.5h-227q-53 0 -64.5 -13t-11.5 -71v-434q0 -57 2 -70q8 -41 39 -51q20 -6 115 -6h379q184 0 224 34t40 185q0 51 -2 90l-4 84q0 61 28 62 q27 0 27 -51v-9l-6 -63q0 -29 -3 -85t-3 -85v-119q0 -58 -20 -80q-18 -20 -66 -20h-9l-178 6l-262 2l-229 6h-125l-58 2q-14 0 -45 -2q-18 0 -59 -4l-51 -4h-8q-57 0 -58 31z" />
<glyph unicode="F" d="M51 1335q0 31 55 31h11q96 -10 155 -10h9l49 2h170q311 0 465 8l163 8q72 0 70 -49q-4 -29 -4 -70v-84l-2 -90q0 2 4 -120l2 -68q0 -59 -29 -59q-12 0 -21 18t-9 31q0 23 4 63q6 61 6 148q0 121 -10 151q-25 72 -119 72h-500q-98 0 -117.5 -15.5t-19.5 -89.5v-475 q4 -20 11 -26t52 -6h252q162 0 162 135q0 6 -4 59t-4 78q0 59 31 59q28 0 28 -63q0 -29 -6 -101l-8 -94q-4 -47 -4 -98q0 -61 12 -191l8 -86v-12q0 -59 -30 -59q-31 0 -31 65v13l4 53q2 27 2 61q0 80 -33.5 110t-126.5 30h-258q-35 0 -46 -15.5t-11 -58.5v-121l4 -291 q0 -74 16 -102q23 -37 86 -37q31 0 64 4q16 2 49 2q45 0 45 -27q0 -26 -40 -26h-3h-6l-47 4q-18 0 -57 4q-80 8 -111 8h-57q-27 0 -107 -8q-41 -4 -59 -4l-45 -4h-9q-43 0 -43 24q0 29 46 29q35 0 51 -2q33 -4 63 -4q61 0 84 41q13 26 15 98l4 152l-2 841q0 78 -9 101 q-16 45 -77 45q-31 0 -68 -4l-55 -6h-11q-53 0 -53 28z" />
<glyph unicode="G" horiz-adv-x="1490" d="M100 678q0 317 174.5 522t442.5 205q205 0 338 -125q55 -51 98 -143v26q0 16 -2 82l-2 66q0 47 29 47q33 0 32 -43q0 -6 -8 -88q-12 -55 -12 -170q-2 -8 -2 -27q0 -66 8 -135q6 -51 6 -59q0 -49 -31 -50q-31 0 -30 45v3l4 94v18q0 182 -120 297t-312 115 q-246 0 -398.5 -189.5t-152.5 -496.5q0 -301 149.5 -483.5t397.5 -182.5q152 0 270.5 73t153.5 187q24 77 24 172v8q0 147 -96 148l-76 -4q-66 -3 -66 -4h1q-51 0 -52 28q0 27 39 27h4l66 -6q66 -6 166 -6q80 0 225 12q49 4 64 4q45 0 45 -24q0 -29 -50 -29q-18 0 -57 2 t-57 2q-102 0 -105 -141l-2 -129q0 -80 6 -166l7 -92q0 -51 -31 -52q-33 0 -33 50l4 53q4 53 4 65v35q-47 -94 -112 -147q-135 -111 -336 -111q-276 0 -445.5 197.5t-169.5 519.5z" />
<glyph unicode="H" horiz-adv-x="1603" d="M63 16q0 31 46 31q4 0 51 -4t63 -4q61 0 84 43q12 27 15 98l4 152l-4 856q-2 72 -15 98q-23 41 -84 41q-14 0 -63 -4q-25 -2 -51 -2q-45 0 -46 27q0 26 40 26h3h9l45 -4q29 0 83 -6t83 -6h57q29 0 109 8q41 4 59 4l45 4h8q41 0 41 -24q0 -29 -43 -29q-25 0 -49 2 q-49 4 -66 4q-63 0 -84 -39q-16 -27 -16 -100l-4 -424q0 -20 25 -21h766q35 0 40 4.5t5 20.5v268l-5 152q-2 72 -16 98q-20 41 -84 41q-16 0 -63 -4q-23 -2 -50 -2q-45 0 -45 27q0 26 40 26h3h7l47 -4q141 -12 166 -12h57q6 0 110 8q25 2 58 4l47 4h6q41 0 41 -24 q0 -29 -43 -29q-27 0 -49 2q-47 4 -66 4q-63 0 -84 -39q-16 -27 -16 -100l-4 -293l4 -715q2 -82 23.5 -111.5t78.5 -29.5q16 0 63.5 4t49.5 4q43 0 43 -29q0 -26 -38 -26h-3q-29 0 -111 8q-102 10 -110 10h-57q-10 0 -109 -10q-82 -8 -111 -8q-43 0 -43 24q0 31 45 31 q18 0 56.5 -4t56.5 -4q63 0 84 43q14 27 16 98l5 152v342q0 29 -25 28h-2l-780 -2q-29 -2 -29 -36v-193l4 -291q0 -76 16 -102q20 -39 86 -39q16 0 63.5 4t49.5 4q43 0 43 -29q0 -26 -38 -26h-3q-31 0 -112 8q-102 10 -109 10h-57q-4 0 -107 -10q-82 -8 -113 -8 q-43 0 -43 24z" />
<glyph unicode="I" horiz-adv-x="710" d="M63 16q0 31 43 31q4 0 20.5 -2t31.5 -2q43 -2 61 -2q66 0 86 41q14 25 17 98l4 152l-4 856q-2 72 -17 98q-20 41 -84 41q-16 0 -63 -4q-23 -2 -52 -2q-43 0 -43 27q0 26 40 26h3h7l47 -4q14 0 57 -4q84 -8 121 -8h33q37 0 121 8q43 4 59 4l45 4h8q41 0 41 -24 q0 -29 -43 -29q-25 0 -49 2q-49 4 -66 4q-63 0 -84 -39q-16 -27 -16 -100l-4 -293l4 -715q2 -74 16 -98q20 -41 86 -41q18 0 62 2q14 0 30.5 2t20.5 2q43 0 43 -29q0 -26 -40 -26h-3h-6l-47 4q-16 0 -57 4q-86 8 -121 8h-33q-47 0 -121 -8t-111 -8q-43 0 -43 24z" />
<glyph unicode="J" horiz-adv-x="1230" d="M27 299q0 106 65.5 179t161.5 73q125 0 125 -92q0 -78 -74 -78q-57 0 -57 55q0 16 11 30.5t13 16.5t2 4q0 18 -36 19q-66 0 -114 -59.5t-48 -141.5q0 -135 104.5 -217t276.5 -82q338 0 415 221q35 98 35 357l-4 604q0 72 -14 98q-18 41 -80 41q-18 0 -56 -3t-57 -3 q-45 0 -45 27q0 26 40 26h3h6l48 -4q141 -12 165 -12h50q29 0 84 6t83 6l46 4h8q43 0 43 -24q0 -29 -45 -29q-27 0 -52 2q-49 4 -63 4q-61 0 -84 -39q-16 -29 -16 -100l-2 -152v-413q0 -215 -9 -275q-18 -162 -100 -246q-135 -141 -383 -141q-201 0 -323.5 92t-122.5 246z " />
<glyph unicode="K" horiz-adv-x="1566" d="M51 16q0 29 45 29q27 0 50.5 -3t62.5 -3q63 0 84 41q14 27 16 98l4 152l-4 858q-2 72 -16 98q-20 41 -84 41q-12 0 -62 -4q-25 -2 -51 -2q-45 0 -45 27q0 26 40 26h3h8l45 -4l60 -6q4 0 69 -4q35 -2 37 -2h49q61 0 119 6l58 6q14 2 47 4h4q43 0 43 -24q0 -29 -43 -29 q-27 0 -49 2q-47 4 -66 4q-63 0 -84 -39q-16 -27 -16 -100l-4 -293v-340l782 711q20 20 21 32q0 25 -50 25q-12 0 -10 0l-63 -4l-64 -2l-6 -2q-59 0 -59 31q0 28 44 28h3q2 0 79.5 -8t172.5 -8q82 0 155 8l74 8q49 0 49 -28q0 -27 -47 -27q-27 0 -45 4q-49 4 -55 4 q-51 0 -131 -70l-60 -51l-383 -350q-23 -20 -22 -33q0 -8 16 -30l217 -299q201 -276 256 -344q61 -76 107 -99q25 -12 84 -12q16 0 34.5 1t31.5 3l14 2h4q39 0 39 -27q0 -26 -43 -26h-3q-8 0 -75 8q-84 10 -162 10q-8 0 -74 -4q-20 0 -92 -8q-51 -6 -80 -6q-53 0 -53 24 q0 29 53 29h10l58 -4l59 -2q66 0 66 29q0 16 -25 49l-65 90l-402 545q-20 27 -33 26q-10 0 -30 -18l-275 -250q-20 -18 -20 -33q-2 -6 -2 -20v-29v-57q2 -39 2 -41l2 -152q0 -74 16 -102q23 -37 86 -37q33 0 64 4q16 2 49 2q45 0 45 -29q0 -24 -40 -24h-3q-4 0 -53 4 q-18 0 -58 4q-72 8 -110 8h-58q-20 0 -106 -8t-105 -8h-8q-43 0 -43 24z" />
<glyph unicode="L" d="M51 31q0 30 48 30h3q8 0 13 -2l55 -4q25 -4 68 -4q61 0 77 45q8 20 9 99v24q0 18 2 127v148l-2 694q-2 80 -23.5 109.5t-77.5 29.5q-14 0 -63 -4q-25 -2 -51 -2q-45 0 -46 27q0 26 40 26h3h9l45 -4q27 0 83 -6t83 -6h57q6 0 111 8q25 2 57 4l47 4h6q41 0 41 -24 q0 -29 -43 -29q-27 0 -49 2q-47 4 -66 4q-63 0 -84 -39q-16 -27 -16 -100l-4 -291l2 -756q0 -70 33 -84q18 -6 59 -6h465q139 0 177 32t38 146v29l-4 115l-6 76v8q0 65 30 65h1q29 0 28 -55v-8l-6 -80q-6 -80 -6 -170q0 -63 4 -115q2 -25 2 -43q0 -43 -17.5 -51t-54.5 -8 h-28q-33 2 -129 6l-246 8l-219 4h-232q12 0 -47 -2q-25 0 -59 -2l-51 -4h-8q-57 0 -58 29z" />
<glyph unicode="M" horiz-adv-x="1863" d="M63 16q0 29 46 29q27 0 50 -3t62 -3q57 0 79 29.5t24 109.5l2 152l-2 884q-2 57 -15 80q-18 33 -69 33q-20 0 -62.5 -4t-62.5 -4h-4q-47 0 -48 27q0 28 38 28h3q27 0 81.5 -4t80.5 -4h66q29 0 47 2l18 2q47 0 72 -65l444 -1217q8 -20 17 -20q8 0 16 22l453 1208 q25 68 67 68h9l77 -4q39 -2 56 -2q39 0 82 4t69 4q41 0 41 -27q0 -25 -41 -24q-27 0 -61.5 4t-63.5 4q-92 0 -92 -108v-7q0 -90 -2 -151.5t-2 -169.5l4 -711q2 -72 17 -98q20 -41 86 -41q39 0 62.5 3t49.5 3q43 0 43 -29q0 -24 -38 -24h-3q-12 0 -53 4q-102 10 -129 10 q-6 0 -18 2h-21h-57q-20 0 -109 -8q-43 -4 -57 -4l-45 -4h-8q-43 0 -43 24q0 29 45 29q33 0 49 -2q31 -4 63 -4q63 0 84 41q14 27 17 98l4 152v954q0 25 -8 25q-6 0 -11 -11l-4 -8l-471 -1227q-25 -61 -59 -61q-37 0 -60 61l-450 1221q-10 29 -21 29q-14 0 -14 -35l4 -1100 q2 -72 16 -98q20 -41 84 -41q41 0 64.5 3t50.5 3q43 0 43 -29q0 -24 -40 -24h-3h-6l-45 4q-16 0 -59 4l-56 6q-29 2 -53 2h-57q-23 0 -50 -2l-59 -6q-45 -4 -57 -4l-45 -4h-9q-43 0 -43 24z" />
<glyph unicode="N" horiz-adv-x="1603" d="M63 18q0 29 46 29q27 0 51 -2q47 -4 63 -4q61 0 84 41q12 27 15 98l4 152v831q-2 98 -11 121q-18 41 -94 41q-31 0 -55 -2q-49 -4 -53 -4h-7q-43 0 -43 24q0 31 43 31q16 0 54 -6q92 -6 108 -6q10 0 27 2h24q43 6 58 6q39 0 63 -43l21 -35l760 -1198q6 -14 16 -14 q8 0 8 22l-4 1084q-2 72 -16 98q-20 41 -84 41q-16 0 -63.5 -4t-51.5 -4q-43 0 -43 29q0 25 43 24h6l47 -2q14 -2 58 -6q61 -6 108 -6h58q49 0 108 6q25 2 59 6l52 2q43 0 43 -24q0 -29 -43 -29q-4 0 -51.5 4t-63.5 4q-63 0 -84 -41q-14 -27 -16 -98l-4 -152v-940 q0 -74 -17 -92q-10 -10 -33 -10q-35 0 -82 76l-770 1224q-8 12 -12 13q-6 0 -6 -21l4 -1104q2 -80 23.5 -109.5t76.5 -29.5q16 0 64 4q25 2 51 2q43 0 43 -27t-43 -26h-6h-21q-14 2 -24 2q-25 2 -59 6q-63 6 -70 6h-133q-4 0 -70 -6q-14 0 -59 -6q-10 0 -25 -2h-20h-9 q-43 0 -43 24z" />
<glyph unicode="O" horiz-adv-x="1378" d="M100 680q0 322 162 523.5t420 201.5q266 0 432 -199.5t166 -523.5q0 -322 -159.5 -521.5t-418.5 -199.5q-272 0 -437 197.5t-165 521.5zM162 686q0 -309 144 -494.5t384 -185.5q238 0 382.5 185.5t144.5 488.5q0 299 -151 488.5t-388 189.5q-229 0 -372.5 -187.5 t-143.5 -484.5z" />
<glyph unicode="P" horiz-adv-x="1304" d="M63 16q0 31 46 31q4 0 51 -4t63 -4q55 0 77 29.5t24 111.5l2 152l-2 856q0 74 -17 100q-20 39 -84 39q-14 0 -63 -4q-25 -2 -51 -2q-45 0 -46 27q0 26 40 26h3h9l45 -4l59 -6q2 0 24.5 -2t45.5 -2q10 0 22 -2h15h104q20 0 195 8q90 4 159 4q221 0 338 -104.5t117 -286.5 q0 -193 -129 -291q-78 -59 -180 -78q-62 -10 -199 -10h-305q-43 0 -43 -41v-88l4 -291q2 -82 23.5 -111.5t78.5 -29.5q18 0 56.5 4t56.5 4q45 0 45 -29q0 -26 -40 -26h-3q-31 0 -110 8q-100 10 -111 10h-57q-6 0 -107 -10q-80 -8 -110 -8q-45 0 -46 24zM383 700 q0 -43 39 -53q10 -2 78 -2h20q80 0 176 -2h37q244 0 340 80q104 88 105 252q0 176 -113 266q-104 82 -303 82q-104 0 -254 -8q-39 -2 -78 -2q-41 -6 -45 -47q-2 -16 -2 -47v-519z" />
<glyph unicode="Q" horiz-adv-x="1378" d="M100 678q0 324 164 525.5t430 201.5q260 0 424 -203t164 -522q0 -291 -133 -481q-78 -113 -227 -191l4 -76q10 -182 38.5 -232t127.5 -50q88 0 126.5 49t38.5 162v8q0 -4 -2 10q0 47 25 47q33 0 33 -67q0 -254 -219 -254q-104 0 -153.5 46t-59.5 148q-4 41 -11 189 q-96 -27 -180 -27q-262 0 -426 198.5t-164 518.5zM162 686q0 -270 133 -477q61 -96 194 -164q-61 70 -61 154q0 96 68.5 155.5t181.5 59.5q208 -1 237 -230q6 -49 7 -123q76 43 113.5 80t76.5 109q106 193 107 434q0 254 -121 451q-137 223 -400 223q-238 0 -387 -186.5 t-149 -485.5zM477 190q0 -184 221 -184q80 0 170 31l2 29q2 26 2 49q0 252 -198 252q-90 0 -143.5 -48.5t-53.5 -128.5z" />
<glyph unicode="R" horiz-adv-x="1527" d="M63 16q0 31 46 31q4 0 51 -4t63 -4q55 0 77 29.5t24 111.5l2 152l-2 856q-2 80 -23.5 109.5t-77.5 29.5q-14 0 -63 -4q-25 -2 -51 -2q-45 0 -46 27q0 26 40 26h3h9l45 -4q29 0 83 -6t83 -6h57l119 2l137 8q70 4 137 4q463 0 463 -342q0 -203 -166 -297q-45 -27 -121 -41 q92 -33 131 -80q78 -93 78 -279v-18l-2 -122v-6q0 -168 121 -169q78 0 108.5 59.5t30.5 205.5v51l-4 141l-2 6q0 51 29 51t28 -53l-4 -282q-2 -102 -52 -164t-134 -62q-174 0 -174 242v129q0 199 -78 267.5t-303 68.5h-258q-61 0 -72.5 -15.5t-11.5 -48.5v-143l4 -291 q0 -76 16 -102q20 -39 86 -39q16 0 63.5 4t49.5 4q43 0 43 -29q0 -27 -41 -26q-29 0 -110 8q-102 10 -111 10h-57q-6 0 -107 -10q-80 -8 -110 -8q-45 0 -46 24zM383 760q0 -31 23 -39q8 -2 51 -2h346q375 0 375 301q0 285 -349 303q-41 2 -102 2q-39 0 -117 -4t-116 -4 q-76 0 -93.5 -21.5t-17.5 -113.5v-422z" />
<glyph unicode="S" horiz-adv-x="1191" d="M121 45v10q8 125 8 242q0 100 -4 159.5t-4 71.5q0 39 29 39q27 0 26 -32q0 -18 -4 -57.5t-4 -59.5q0 -195 114.5 -303.5t321.5 -108.5q186 0 299 99.5t113 261.5q0 227 -209 276q-74 18 -197 27q-460 35 -460 351q0 167 124 275q124 110 310 109q225 0 338 -139 q27 -33 47 -97q2 27 2 58q0 27 -2 47l-4 43v8q0 49 28 49q29 0 29 -37q0 2 -8 -73.5t-8 -186.5q0 -84 4 -127q6 -63 6 -67q0 -39 -27 -39q-31 0 -31 41q0 14 3.5 42.5t3.5 43.5q0 182 -100.5 284.5t-276.5 102.5q-168 0 -271.5 -92t-103.5 -240q0 -141 96.5 -214t304.5 -91 q182 -16 265.5 -45t134.5 -96q66 -84 65 -218q0 -180 -127 -290.5t-334 -110.5q-143 0 -256.5 51t-171.5 140l-14 22l-8 14l2 -34l4 -56q4 -55 4 -57v-4q0 -43 -26 -43q-31 0 -31 51z" />
<glyph unicode="T" d="M78 889v6l6 115v233l-4 82q2 49 67 49q20 0 105 -4q168 -8 469 -8h121l286 6h5q55 0 55 -47v-4l-6 -98q-2 -33 -2 -154q0 -37 2 -84l4 -100q0 -45 -29 -45q-31 0 -31 45l2 4l9 119q4 59 4 149q0 121 -20.5 144.5t-123.5 23.5h-262q-53 0 -65.5 -13.5t-12.5 -72.5l5 -1057 q0 -74 16 -102q23 -37 86 -37q33 0 63 4q16 2 50 2q43 0 43 -27q0 -26 -38 -26h-3h-7l-47 4q-18 2 -59 4q-96 8 -109 8h-57q-18 0 -57 -4l-51 -4q-47 -4 -58 -4l-45 -4h-8q-43 0 -43 24q0 29 45 29q35 0 51 -2q33 -4 64 -4q61 0 84 41q12 27 14 98l4 150v905 q0 63 -12.5 75.5t-71.5 12.5h-244q-86 0 -106 -12q-37 -20 -39 -101q-2 -59 -2 -149q0 -23 2 -60l6 -116q0 -49 -27 -49q-29 0 -28 55z" />
<glyph unicode="U" horiz-adv-x="1527" d="M20 1348q0 26 40 26h3h7l45 -4q29 0 84 -6t84 -6h59q27 0 83 6t83 6l45 4h6q43 0 43 -24q0 -29 -43 -29q-27 0 -51 2q-49 4 -64 4q-63 0 -84 -39q-16 -27 -16 -100l-4 -291v-428q0 -127 8 -172q16 -84 78 -154q123 -137 336 -137q123 0 229 51q125 57 168 160 q27 61 27 205v475q0 72 -2 139l-4 152q0 78 -22.5 108.5t-80.5 30.5q-14 0 -61 -4q-23 -2 -49 -2q-43 0 -43 27q0 26 38 26h3h8l45 -4q27 0 82 -6t82 -6h61q25 0 166 12l47 4h6q43 0 43 -24q0 -29 -43 -29q-27 0 -51 2q-51 4 -65 4q-61 0 -84 -41q-12 -27 -15 -98l-4 -152 v-610q0 -135 -21.5 -203.5t-82.5 -126.5q-143 -135 -373 -135q-223 0 -367 133q-117 109 -116 340l-4 754q-2 72 -17 98q-20 41 -84 41q-16 0 -63 -4q-23 -2 -52 -2q-43 0 -43 27z" />
<glyph unicode="V" horiz-adv-x="1304" d="M-39 1343q0 31 53 31h13l57 -6l68 -6q23 -2 73 -2h66q61 12 131 12h4q47 0 47 -24q0 -29 -45 -29q-2 0 -15.5 1t-39 3t-39.5 2q-102 0 -103 -49q0 -10 5.5 -34.5t9.5 -33.5l399 -1118q6 -18 14 -18q6 0 15 22l387 1129q8 25 8 45q0 57 -90 57q-18 0 -57 -4t-58 -4 q-45 0 -45 24q0 29 41 29h8l60 -4q147 -10 194 -10q41 0 56 2l73 10q6 0 23 2h26h3q41 0 40 -24q0 -27 -43 -27h-28q-6 0 -17 2h-16q-51 0 -72 -18.5t-39 -71.5l-24 -68l-393 -1128q-25 -70 -52 -70t-43 47l-430 1194q-43 119 -108 119q-4 0 -33 -4q-14 -2 -37 -2 q-47 0 -47 24z" />
<glyph unicode="W" horiz-adv-x="1714" d="M-14 1343q0 29 43 29q23 0 67 -8q55 -10 127 -10q100 0 164 8l64 8h10q47 0 47 -29q0 -27 -45 -26h-8q-39 0 -72 3t-39 3q-86 0 -86 -57q0 -14 6 -50l8 -47l222 -1054q6 -33 12 -37q14 0 14 37l273 1187q16 74 61 74t66 -94l258 -1169q0 -4 4 -15l6 -18q2 -4 4 -6 q6 0 14 34l238 1047q18 82 18 98q0 70 -92 70q-35 0 -57 -2q-45 -4 -58 -4q-49 0 -49 28q0 27 45 27q18 0 80 -8t139 -8q76 0 162 8q43 4 54 4q45 0 45 -29q0 -27 -45 -24l-33 2h-19q-66 0 -87 -23.5t-38 -99.5l-260 -1147q-18 -82 -59 -82q-35 0 -51 76l-275 1233 q-4 23 -10 22q-4 0 -8 -14l-4 -16l-275 -1192q-25 -102 -59 -103q-37 0 -53 76l-260 1184q-10 47 -21 61q-18 27 -57 27h-6l-35 -2h-33q-57 0 -57 28z" />
<glyph unicode="X" horiz-adv-x="1490" d="M-10 16q0 29 47 29q16 0 50 -3t50 -3q59 0 99 47l45 55l45 54l366 495q16 23 17 31q0 10 -17 31l-370 479q-49 63 -71 78.5t-65 15.5q-16 0 -50 -4t-50 -4q-47 0 -47 29q0 28 46 28h3q14 0 72 -6q94 -10 147 -10q29 0 176 10q33 2 84 6h11q43 0 43 -22q0 -29 -66 -29h-14 l-19 2q-20 2 -43 2q-63 2 -61 2q-59 0 -60 -33q0 -27 50 -90l307 -395q25 -31 33 -31q10 0 32 31l336 451q12 16 12 32q0 33 -67 33q-47 0 -139 -10h-4q-51 0 -52 31q0 26 42 26h3h4q23 -2 66 -6l72 -8h28q20 -2 35 -2q82 0 174 8l94 8q49 0 50 -26q0 -27 -45 -27 q-4 0 -53.5 4t-45.5 4q-55 0 -98 -55l-35 -45l-356 -477q-16 -23 -17 -31q0 -8 17 -31l387 -512q106 -141 180 -141q14 0 45 4t47 4q43 0 43 -25q0 -28 -44 -28h-3q-33 0 -102.5 7t-108.5 7q-41 0 -104 -4l-168 -10q-51 0 -51 26q0 12 26 23q20 4 33 4h10l58 -6q18 -2 43 -2 q96 0 96 33q0 14 -19 41l-36 51l-357 471q-23 29 -33 29q-9 0 -32 -31l-381 -522q-18 -27 -19 -41q0 -33 74 -33q18 0 51 4q49 6 72 6q59 0 59 -29q0 -24 -43 -24h-4q-43 0 -127 7t-127 7q-82 0 -153 -8q-53 -6 -80 -6q-43 0 -43 24z" />
<glyph unicode="Y" d="M-59 1346q0 26 47 26h4q14 0 65 -6q68 -8 144 -8q74 0 168 10q57 6 67 6q41 0 41 -26q0 -29 -45 -29q-12 0 -82 4l-76 4q-47 0 -47 -27q0 -4 9 -20l14 -23l358 -591q16 -29 33 -29q14 0 33 29l332 536q45 74 45 90q0 25 -41 27l-31 2h-25q-25 -2 -43 -3t-53 -1 q-66 0 -65 26q0 27 45 27q12 0 81.5 -8t157.5 -8q12 0 90 4q16 0 57.5 5t61.5 5q39 0 39 -27q0 -26 -47 -26h-4q-4 0 -17 2h-16l-45 4q-33 0 -49.5 -14.5t-54.5 -73.5l-412 -651q-14 -22 -14 -47v-205l4 -152q2 -72 16 -98q20 -41 84 -41q33 0 64 4q16 2 49 2q45 0 45 -27 q0 -26 -40 -26h-3h-8l-46 4q-16 0 -57 4q-49 4 -72.5 6t-35.5 2h-70q-14 0 -33.5 -1t-63.5 -6t-69 -5l-45 -4h-8q-43 0 -43 24q0 29 45 29q29 0 51.5 -3t61.5 -3q61 0 84.5 29.5t25.5 109.5l4 152l2 211q0 27 -12 47l-399 647q-31 49 -43 61q-27 27 -66 27q-16 0 -48 -2 t-48 -2q-51 0 -51 27z" />
<glyph unicode="Z" d="M76 39q-1 20 28 55l27 33l926 1145q23 35 22 39q0 10 -37 10h-743q-72 0 -92 -37q-12 -23 -12 -102q0 -53 8 -152q4 -49 4 -84v-4q0 -53 -27 -53q-31 0 -30 67v7l4 73l2 82q2 10 2 51v72l-2 55q0 70 45 70h848q88 0 98 -18q4 -8 4 -23q0 -25 -35 -68l-969 -1198 q-2 -2 -4 -8q0 -8 45 -8h768q84 0 107 45q16 29 16 119q0 92 -10 235v13q0 61 31 61q29 0 28 -63v2l-4 -70l-4 -82q-2 -41 -2 -74q0 -92 6 -151q4 -39 4 -37q0 -41 -65 -41h-911q-76 0 -76 39z" />
<glyph unicode="[" horiz-adv-x="671" d="M137 -340q0 23 4 45q0 8 2 31v35v1456v37q-2 23 -2 28q-4 25 -4 47q0 49 43 50q16 0 27 -3h33q25 -2 43 -2h157q-8 0 97 7q33 2 34 2q55 0 56 -33q0 -33 -54 -33q-23 0 -40 2t-43.5 4t-40.5 2h-150q-63 0 -76.5 -16t-13.5 -100v-1440q0 -82 12 -98.5t78 -16.5h188 q18 0 43 4q45 4 48 4q49 0 49 -32q0 -35 -54 -35q-20 0 -36 2q-47 6 -97 6h-157q-43 0 -76 -4h-27q-43 0 -43 51z" />
<glyph unicode="\" horiz-adv-x="1024" d="M49 1536h53l822 -1706h-52z" />
<glyph unicode="]" horiz-adv-x="671" d="M45 -362q0 33 51 32q6 0 43 -4q14 0 42 -2t42 -2h148q66 0 79 17.5t13 99.5v1438q0 82 -13.5 99t-78.5 17h-148q2 0 -41 -2l-43 -2l-45 -4q-49 0 -49 33q0 35 53 35q2 0 35 -2q104 -6 98 -7h158q14 0 41 2h33q12 2 29 3q43 0 43 -52q0 -18 -3.5 -56t-3.5 -56v-1454 q0 -20 3.5 -58.5t3.5 -56.5q0 -47 -48 -47h-24q-12 2 -31 2h-201q-68 0 -98 -4q-14 -2 -35 -2q-53 0 -53 33z" />
<glyph unicode="^" horiz-adv-x="1024" d="M88 799l389 567h70l391 -567h-68l-360 526l-358 -526h-64z" />
<glyph unicode="_" horiz-adv-x="1024" d="M0 -174h1024v-45h-1024v45z" />
<glyph unicode="`" horiz-adv-x="1005" d="M268 1401q0 24 29 24q14 0 45 -22l264 -197q20 -14 21 -28q0 -20 -21 -21q-12 0 -31 12l-270 189q-37 27 -37 43z" />
<glyph unicode="a" horiz-adv-x="1118" d="M74 250q0 104 65.5 180t173.5 98q74 14 174 21q166 10 240 58t74 149q0 102 -80 164.5t-211 62.5q-137 0 -226 -59.5t-89 -149.5q0 -33 18 -33q4 0 12 9q0 2 4 12q14 35 56 35q61 0 61 -66q0 -35 -27.5 -60.5t-66.5 -25.5q-47 0 -81 36t-34 85q0 111 105.5 184.5 t263.5 73.5q160 0 252 -76q100 -84 100 -262v-395l4 -115q6 -166 107 -166q111 0 110 152v10l-2 90v7q0 52 29 53q27 0 27 -41l-3 -82q-6 -229 -163 -230q-147 0 -158 181l-2 36l-2 17l-8 -15q-27 -45 -76 -94q-127 -125 -315 -125q-147 0 -239.5 78t-92.5 203zM131 248 q0 -102 80 -170t203 -68q164 0 277.5 115t113.5 276v199q0 20 -8 21q-2 0 -23 -25q-66 -80 -291 -94q-131 -8 -195.5 -30.5t-107.5 -76.5q-49 -59 -49 -147z" />
<glyph unicode="b" horiz-adv-x="1155" d="M-35 1366q0 27 33 27h6l59 -4h80q14 0 40 2t40 2q33 0 43 -23q4 -12 4 -53v-541q47 98 109 152q111 96 264 96q195 0 313.5 -144.5t118.5 -381.5q0 -244 -119.5 -386.5t-328.5 -142.5q-242 0 -357 228q0 -76 2 -99q4 -43 4 -67q0 -45 -32 -45q-33 0 -33 39l6 264v801 q0 225 -22 245q-16 14 -62 15q-31 0 -67 -4q-53 -6 -62 -7q-39 0 -39 27zM268 485q0 -229 84 -342q101 -133 273 -133q184 0 288.5 128t104.5 351q0 229 -100.5 361.5t-276.5 132.5q-164 0 -266 -115q-59 -68 -83 -150.5t-24 -232.5z" />
<glyph unicode="c" horiz-adv-x="1044" d="M80 485q0 240 135 389.5t352 149.5q160 0 268.5 -87t108.5 -214q0 -66 -36 -109t-89 -43q-80 0 -80 74q1 62 62 62q27 0 35 -11l12 -14q10 -6 16 -6q29 0 29 57q0 104 -93 177t-227 73q-199 0 -317.5 -135t-118.5 -363q0 -219 114 -347t308 -128q184 0 279 119 q66 84 69 164q2 51 29 51q29 0 29 -39q0 -123 -106.5 -229.5t-293.5 -106.5q-219 0 -352 142.5t-133 373.5z" />
<glyph unicode="d" horiz-adv-x="1191" d="M80 483q0 233 132 387t333 154q233 0 327 -203v269q0 205 -14 233.5t-67 28.5q-23 0 -70 -6.5t-62 -6.5q-39 0 -38 27q0 27 34 27h7l59 -4h100q20 0 35 2h27q23 0 32 -8.5t9 -41.5v-57l2 -84v-903q0 -207 14 -234.5t68 -27.5q14 0 67 6t62 6q41 0 41 -27t-35 -26h-6 l-60 4h-106q-27 0 -33 -1t-14 -3h-11q-23 0 -32 17t-9 83v82q-123 -207 -348 -207q-197 0 -320.5 143.5t-123.5 370.5zM137 481q0 -207 109.5 -339t283.5 -132q147 0 246 107q57 63 79 137t22 213v27q0 238 -56 337q-84 152 -280 152q-174 0 -289 -142.5t-115 -359.5z" />
<glyph unicode="e" horiz-adv-x="1081" d="M80 483q0 240 132 390.5t341 150.5q182 0 307 -130.5t125 -318.5q0 -43 -19.5 -51t-60.5 -8h-725q-29 0 -36 -8t-7 -41q0 -205 111.5 -331t292.5 -126q195 0 305 137q43 53 61 117q0 6 11 51q8 35 30 35q25 0 25 -28q0 -35 -23 -93q-49 -123 -156.5 -191.5t-250.5 -68.5 q-209 0 -336 141.5t-127 372.5zM145 594q0 -31 45 -31h705q35 0 35 33q0 131 -90 250q-104 137 -291 137q-141 0 -242.5 -79t-144.5 -222q-17 -53 -17 -88z" />
<glyph unicode="f" horiz-adv-x="708" d="M51 14q0 27 45 27h10q14 0 44 -2t45 -2q78 0 94 49t16 289v528q0 55 -37 55q-18 0 -65 -4t-60 -4q-47 0 -47 29q0 25 35 25h6l60 -5q10 -2 61 -2h4q31 0 38 10.5t7 55.5q4 346 320 346q98 0 162.5 -45t64.5 -113q0 -92 -84 -92q-68 0 -68 68q0 61 56 61q16 0 16 10 q0 23 -39 43q-49 27 -117 27q-260 0 -260 -324q0 -33 8.5 -41t41.5 -8h10q8 2 12 2l188 7q51 0 52 -25q0 -29 -56 -29h2q0 1 -84 4l-96 4q-4 0 -12 3h-14q-33 0 -42.5 -10.5t-9.5 -47.5v-528q0 -240 16.5 -289t94.5 -49q14 0 43 2t43 2h10q45 0 45 -25q0 -26 -34 -26h-3 q-10 0 -8 0l-71 6l-84 6l-60 2h-39l-57 -2l-86 -6l-72 -6h-6q-39 0 -39 24z" />
<glyph unicode="g" horiz-adv-x="1193" d="M76 -84q0 190 254 279q-203 31 -203 180q0 117 147 153q-35 74 -34 148q0 152 105.5 250t266.5 98q115 0 240 -70q-8 35 -8 56q0 70 54 117t136 47q70 0 115 -39t45 -99q0 -41 -25.5 -70.5t-62.5 -29.5q-63 0 -64 61q0 57 52 58q2 0 18 -4q-4 0 10 -2q14 0 15 16 q0 25 -30 43t-71 18q-66 0 -104.5 -36.5t-38.5 -98.5q0 -33 16 -65l41 -82q35 -70 35 -154q0 -147 -103.5 -237.5t-271.5 -90.5q-188 0 -303 115h-12q-49 0 -80 -28.5t-31 -75.5q0 -143 275 -148l145 -2q248 -4 365 -51q180 -74 180 -248q0 -152 -137.5 -231.5t-397.5 -79.5 q-256 0 -397 79t-141 224zM133 -86q0 -125 126 -192.5t362 -67.5q223 0 347 69.5t124 196.5q0 262 -500 262q-219 0 -339 -69.5t-120 -198.5zM297 682q0 -127 86 -203t229 -76t229.5 78t86.5 209q0 133 -85 213t-227 80q-143 0 -231 -83t-88 -218z" />
<glyph unicode="h" horiz-adv-x="1304" d="M23 14q0 27 45 27h10q14 0 44 -2t44 -2q78 0 94 49t16 289v715q0 203 -15 231.5t-68 28.5q-29 0 -68 -4q-57 -6 -62 -7q-40 0 -40 26q0 28 36 28h4l60 -4h82q12 0 37.5 2t38.5 2q49 0 49 -50v-524q53 80 106 121q113 84 269 84q115 0 200 -47q96 -55 125 -158 q16 -59 17 -207v-237q0 -240 16 -289t94 -49q14 0 43 2t43 2h10q45 0 45 -25q0 -26 -35 -26h-3h-7l-71 6l-84 6l-58 2h-41l-55 -2l-82 -6l-67 -6h-9q-39 0 -38 24q0 27 45 27h10q14 0 40.5 -2t39.5 -2q78 0 94 49t16 289v227q0 113 -6 152q-12 84 -59 137q-80 92 -236 92 q-143 0 -246 -92q-117 -104 -116 -297v-219q0 -238 16 -288t92 -50q12 0 40 2t40 2h10q45 0 45 -25q0 -26 -35 -26h-3h-7l-69 6l-82 6l-53 2h-41l-58 -2l-86 -6l-71 -6h-7q-39 0 -38 24z" />
<glyph unicode="i" horiz-adv-x="632" d="M59 14q0 27 45 27h11q14 0 43.5 -2t44.5 -2q78 0 94 49t16 289v321v132v-3q-4 106 -30 123q-16 10 -54 10q-12 0 -67 -4l-56 -4h-6q-41 0 -41 27t35 27h6l62 -7h98q12 0 37 3.5t37 3.5q33 0 33 -48v-581q0 -240 16 -289t94 -49q14 0 43 2t43 2h10q45 0 45 -25 q0 -26 -33 -26h-3q-10 0 -9 0l-71 6l-84 6l-60 2h-39l-57 -2l-86 -6l-72 -6h-6q-39 0 -39 24zM246 1233q0 33 21 54.5t52 21.5t52.5 -22.5t21.5 -53.5t-21.5 -52.5t-49.5 -21.5q-33 0 -54.5 21.5t-21.5 52.5z" />
<glyph unicode="j" horiz-adv-x="559" d="M-219 -201q0 39 25.5 67t62.5 28q70 0 70 -70q0 -51 -56 -60q-20 -4 -20 -16q0 -39 58.5 -70.5t131.5 -31.5q102 0 170 49t82 137q8 49 8 201v663q0 209 -13 235.5t-69 26.5q-12 0 -67 -4l-55 -4h-7q-41 0 -41 27t33 27h8l60 -7h76q16 0 44.5 3.5t45.5 3.5q43 0 43 -58 v-12v-21q-2 -18 -2 -32l-2 -113v-739q0 -145 -5.5 -187.5t-29.5 -89.5q-76 -147 -277 -147q-121 0 -197.5 54t-76.5 140zM240 1241q0 31 21 53.5t54 22.5q29 0 49.5 -22.5t20.5 -53.5t-21.5 -52.5t-54.5 -21.5q-29 0 -49 21.5t-20 52.5z" />
<glyph unicode="k" horiz-adv-x="1230" d="M23 16q0 27 45 27h10q57 -4 86 -4q80 0 96 48t16 288v715q0 207 -15 234.5t-68 27.5q-31 0 -68 -4q-64 -7 -64 -9h2q-40 0 -40 28q0 26 34 26h6q20 0 40 -2l20 -2h92q12 0 35.5 2t36.5 2q35 0 43 -31q2 -10 2 -64q0 -23 0 -22l-2 -109v-727l516 459q18 16 18 33 q0 25 -39 24h-28q-25 0 -45 -2q-41 -4 -54 -4q-43 0 -43 27t41 27q6 0 64 -7q76 -8 172 -8q78 0 168 10q37 4 61 5q41 0 41 -25q0 -27 -43 -27h-6l-43 4h-41q-88 0 -188 -90l-232 -209q-25 -23 -24 -34q0 -6 16 -29l340 -481q49 -74 133 -74q2 0 53 4l50 4q43 0 43 -27 q0 -26 -48 -26h-4q-20 0 -73 6q-23 4 -84 8l-66 2q-6 0 -84 -6l-78 -6l-65 -8h-8q-43 0 -43 26q0 27 43 27q2 0 51 -2t43 -2q88 0 88 35q0 14 -21 45l-65 98l-240 336q-18 27 -35 27q-10 0 -30 -19l-211 -190v-107q0 -119 8 -149q23 -76 108 -76q29 0 86 4h11q45 0 45 -25 q0 -27 -39 -26h-6l-72 6l-84 4l-63 4h-41l-58 -4l-86 -4l-71 -6h-7q-39 0 -38 24z" />
<glyph unicode="l" horiz-adv-x="595" d="M23 14q0 27 45 27h8q14 0 44 -2t44 -2q80 0 96 49t16 289v715q0 186 -12 223t-71 37q-31 0 -68 -4q-55 -6 -62 -7q-40 0 -40 26q0 28 34 28h6l60 -4h94q8 0 53 4h19q29 0 37 -19q4 -8 4 -43v-956q0 -238 16 -288t96 -50q14 0 43 2t43 2h11q43 0 43 -25q0 -26 -34 -26h-3 h-6l-72 6l-84 6l-59 2h-41l-60 -2l-84 -6l-71 -6h-9q-37 0 -36 24z" />
<glyph unicode="m" horiz-adv-x="1976" d="M59 14q0 27 45 27h11q14 0 42.5 -2t43.5 -2q80 0 96 49t16 289v321v132v-3q-4 106 -32 123q-14 10 -52 10q-12 0 -67 -4l-56 -4h-6q-41 0 -41 27t35 27h6l60 -7h92q12 0 38.5 3.5t39.5 3.5q32 -1 32 -54v-123q106 197 338 197q180 0 265 -98q37 -43 67 -127q43 86 86 129 q100 96 262 96q121 0 206 -50t112 -138q14 -47 16 -113t2 -145v-203q0 -238 16.5 -288t94.5 -50q14 0 42.5 2t43.5 2h10q45 0 45 -25q0 -26 -34 -26h-3h-8l-72 6l-84 6l-57 2h-41l-59 -2l-84 -6l-72 -6h-6q-39 0 -39 24q0 27 45 27h10q14 0 43 -2t43 -2q80 0 96.5 48 t16.5 290v221q0 156 -6 195.5t-41 87.5q-76 104 -244 104q-186 0 -272 -143q-53 -90 -53 -283v-182q0 -242 15 -290t97 -48q14 0 43 2t43 2h8q45 0 45 -25q0 -26 -33 -26h-3h-9l-69 6l-84 6l-62 2h-39l-57 -2l-86 -6l-72 -6h-6q-39 0 -39 24q0 27 45 27h11q14 0 43.5 -2 t44.5 -2q78 0 94 49t16 289v256q0 100 -4 131q-10 68 -53 121q-80 100 -238 100q-174 0 -270 -127q-61 -82 -61 -242v-239q0 -240 15 -289t93 -49q14 0 44 2t44 2h10q45 0 45 -25q0 -26 -35 -26h-3h-7l-71 6l-86 6l-54 2h-43l-57 -2l-86 -6l-72 -6h-6q-39 0 -39 24z" />
<glyph unicode="n" horiz-adv-x="1380" d="M59 14q0 27 45 27h11q14 0 42.5 -2t43.5 -2q80 0 96 49t16 289v321v131v-2q-4 106 -30 123q-16 10 -54 10q-12 0 -67 -4l-62 -4q-41 0 -41 27t37 27q14 0 64 -5q25 -2 47 -2h39q12 0 38.5 3.5t39.5 3.5q29 0 36 -14.5t7 -69.5v-111q72 129 182 176q94 39 194 39 q147 0 241.5 -64.5t119.5 -181.5q16 -80 16 -252v-151q0 -240 16.5 -289t94.5 -49q14 0 44 2t44 2h10q45 0 45 -25q0 -26 -36 -26h-3h-6l-72 6l-86 6l-57 2h-39l-59 -2l-84 -6l-72 -6h-8q-37 0 -37 24q0 27 45 27h8q14 0 44 -2t44 -2q80 0 95.5 48t15.5 290v153 q0 260 -57 340q-82 115 -275 115q-236 0 -329 -186q-39 -76 -39 -244v-178q0 -240 16 -289t94 -49q14 0 43 2t43 2h10q45 0 45 -25q0 -26 -33 -26h-3q-10 0 -9 0l-71 6l-84 6l-62 2h-37l-57 -2l-86 -6l-72 -6h-6q-39 0 -39 24z" />
<glyph unicode="o" horiz-adv-x="1118" d="M80 510q0 227 133 370.5t342 143.5q215 0 349 -147.5t134 -384.5q0 -231 -134 -377t-349 -146q-209 0 -342 151.5t-133 389.5zM137 506q0 -223 115 -359.5t303 -136.5t307 132t119 343q0 221 -118 359.5t-306 138.5t-304 -132t-116 -345z" />
<glyph unicode="p" horiz-adv-x="1191" d="M6 -371q0 27 45 27q4 0 10 -2q14 0 44 -2t45 -2q78 0 94 49t16 289v708v132v-3q-4 106 -31 123q-16 10 -53 10q-12 0 -67 -4l-62 -4q-41 0 -41 27t35 27h6l59 -5l48 -2h24q16 0 48 3.5t48 3.5q41 0 41 -43q0 -12 -2 -21v-147q111 231 367 231q199 0 315.5 -137 t116.5 -373q0 -244 -126 -394.5t-331 -150.5q-238 0 -342 195v-172q0 -242 16.5 -292t94.5 -50q14 0 43 2t43 2q4 2 12 2q43 0 43 -27q0 -24 -36 -24h-3h-6l-71 6l-142 6h-41l-57 -2l-86 -4l-72 -6h-6q-39 0 -39 24zM309 508q0 -152 6 -199q14 -111 74 -178 q105 -121 273 -121q180 0 286.5 133t106.5 357q0 231 -97.5 357t-277.5 126q-170 0 -270 -117q-59 -68 -80 -142.5t-21 -215.5z" />
<glyph unicode="q" horiz-adv-x="1118" d="M80 481q0 248 125 395.5t336 147.5q236 0 338 -186v133l-2 28q-2 35 28 35q31 0 31 -35l-6 -329l2 -682q0 -264 22.5 -301t89.5 -37q14 0 43 2t43 2q4 2 11 2q45 0 45 -27q0 -24 -36 -24h-3h-6l-72 6l-84 4l-59 2h-43l-56 -2l-86 -4l-69 -6h-8q-39 0 -39 24q0 27 45 27 q6 0 10 -2q14 0 44 -2t44 -2q78 0 94.5 50t16.5 292v153q-66 -96 -143 -136t-199 -40q-215 0 -336 135.5t-121 376.5zM137 479q0 -221 103.5 -345t289.5 -124q191 0 277 117q49 68 60.5 127t11.5 244v157q-2 90 -45 168q-88 160 -293 160q-184 0 -294 -137t-110 -367z" />
<glyph unicode="r" horiz-adv-x="1007" d="M59 14q0 27 45 27h11q14 0 42.5 -2t43.5 -2q80 0 96 49t16 289v321v131v-2q-4 106 -30 123q-16 10 -54 10q-12 0 -67 -4l-62 -4q-41 0 -41 27t35 27q18 0 66 -5q23 -2 47 -2h31q23 0 65 7q4 0 10 2h11q43 0 43 -45v-134q113 197 321 197q123 0 202 -68.5t79 -177.5 q0 -72 -36 -120t-91 -48q-74 0 -74 68q0 61 61 61q16 0 33 -12t23 -12q26 0 26 68v5q0 86 -63.5 140.5t-165.5 54.5q-176 0 -256 -131q-59 -98 -59 -303v-174q0 -240 16 -289t94 -49q14 0 43 2t43 2h10q45 0 45 -25q0 -26 -35 -26h-3h-7l-71 6l-84 6l-62 2h-37l-59 -2 l-84 -6l-72 -6h-6q-39 0 -39 24z" />
<glyph unicode="s" horiz-adv-x="1007" d="M123 91q6 52 6 140q0 96 -6 149.5t-6 55.5q0 35 26 35q29 0 29 -51q0 -2 -2 -19.5t-2 -38.5q-2 -29 -2 -57q0 -131 98 -213t256 -82q147 0 237.5 70t90.5 182q0 102 -67.5 149.5t-237.5 67.5q-199 23 -267 51q-57 25 -91.5 81.5t-34.5 121.5q0 123 99 207t249 84 q203 0 311 -168v98q0 59 25 60q25 0 24 -33q0 -10 -6 -51q0 -4 -2 -26.5t-2 -41.5l-2 -76q0 -84 2 -101l4 -34v-18q0 -35 -27 -35q-25 0 -24 33v4l4 47q2 25 2 14q0 127 -85 207t-222 80q-127 0 -210 -66.5t-83 -171.5q0 -100 64.5 -144t236.5 -62q182 -18 270 -58 q127 -55 127 -200q0 -137 -107.5 -224.5t-277.5 -87.5q-242 0 -356 172q4 -37 6 -51l4 -73v1q0 -45 -27 -45q-30 0 -30 38q0 28 6 80z" />
<glyph unicode="t" horiz-adv-x="745" d="M12 979q0 25 37 25q16 0 49 -3.5t49 -3.5q63 0 78 39q8 23 8 80v10q0 86 5.5 107.5t23.5 21.5q23 0 23 -32v-4l-6 -99q-2 -33 -3 -78q0 -45 60 -45h67q23 0 69 3.5t69 3.5q41 0 41 -27t-45 -27h-5l-63 2q-16 0 -68 4q-43 2 -67 2h-4q-52 0 -56 -28q-2 -12 -2 -68v-430 q0 -203 25 -291q37 -131 168 -131q104 0 147 71t43 241v61v12q-2 6 -2 8q0 43 29 43t29 -43v-51q0 -143 -21 -225q-39 -158 -225 -158q-246 0 -246 353v540q0 66 -9 81t-50 15q-12 0 -62 -4l-47 -4q-39 0 -39 29z" />
<glyph unicode="u" horiz-adv-x="1304" d="M4 979q0 25 31 25h6l57 -7h119l21 2l32 5q37 0 37 -76v-13q-2 -16 -2 -47v-475q0 -109 10 -157q14 -82 68 -138q84 -88 242 -88q209 0 297 146q63 104 63 311v231q0 207 -15.5 235t-66.5 28q-31 0 -67 -5l-60 -6q-39 0 -39 27t33 27h6l55 -7h103q31 0 43 3.5t27 3.5 q38 0 38 -78q0 -33 -2 -45v-62q-2 -57 -2 -108v-414q0 -207 14.5 -234.5t67.5 -27.5q6 0 66 6q41 4 63 4q39 0 39 -27t-37 -26h-4l-59 4l-47 2h-25q-6 0 -20 -2h-25q-14 -2 -35 -2q-31 0 -41 17.5t-10 68.5v26v78q-37 -72 -84 -114q-111 -100 -278 -101q-201 0 -295 113 q-51 61 -68 149q-8 51 -8 168v299q0 184 -12.5 223.5t-71.5 39.5q-29 0 -66 -5q-53 -6 -59 -6q-39 0 -39 29z" />
<glyph unicode="v" horiz-adv-x="1157" d="M-35 977q0 27 39 27q12 0 59 -5q70 -6 150 -6q39 0 72 2l96 6l68 3q39 0 38 -25q0 -29 -41 -29h-6q-45 0 -79.5 3t-47.5 3q-77 0 -77 -44q0 -24 30 -99l301 -737q10 -16 13 -17q8 0 26 45l314 770q8 23 8 35q0 47 -82 47q-20 0 -63.5 -3t-63.5 -3q-37 0 -37 25 q0 29 43 29q39 0 116 -5.5t115 -5.5q63 0 146 6q25 4 53 5q35 0 35 -23q0 -27 -55 -27h-23q-2 0 -8 2h-10q-53 0 -79 -25.5t-63 -117.5l-323 -786q-20 -51 -47 -52q-29 0 -56 64l-327 792q-35 82 -53.5 102.5t-57.5 18.5l-37 -2h-35q-51 0 -51 27z" />
<glyph unicode="w" horiz-adv-x="1603" d="M-8 979q0 25 45 25q-6 0 63 -5l74 -4q37 -2 70 -2q51 0 141 6q59 4 74 5q41 0 41 -25q0 -31 -58 -31h-6q-29 0 -71.5 2t-49.5 2q-59 0 -59 -43q0 -16 12 -61l207 -744q12 -45 21 -45q8 0 14 21l4 18l238 840q16 57 51 57q31 0 45 -49l262 -868q10 -31 16 -31t11 16l8 25 l190 719q18 70 19 98q0 53 -101 53q-20 0 -59 -4t-57 -4q-35 0 -35 25q0 29 43 29q18 0 61 -5q63 -6 154 -6q53 0 78 2l75 6l56 3q43 0 43 -25q0 -29 -41 -29q-14 0 -41 3t-41 3q-41 0 -54.5 -19t-39.5 -116l-209 -768q-20 -78 -58 -78q-39 0 -59 68l-254 848q-4 14 -10 16 q-6 0 -12 -16l-7 -19l-231 -823q-20 -72 -59 -72q-41 0 -62 74l-223 793q-18 63 -31 80q-22 28 -71 28h-3h-32q-14 -2 -37 -2q-45 0 -45 29z" />
<glyph unicode="x" d="M0 14q0 31 45 31q23 0 49 -2q4 0 15 -2h12q53 0 100 53l41 47l303 355q18 23 19 32q0 8 -19 31l-289 348q-37 49 -100 49h-33l-32 -2h-7q-45 0 -45 25t50 25q10 0 63 -5q106 -8 150 -8q47 0 147 8q51 4 61 5q37 0 37 -25q0 -27 -35 -27q-25 0 -47 4h-45h-37 q-61 0 -61 -32q0 -23 51 -82l201 -236q25 -29 33 -28q8 0 32 28l224 258q43 49 43 62q0 30 -58 30h-4q-18 0 -57 -3t-57 -3q-41 0 -41 27t43 27q31 0 55 -3l72 -6q25 -2 57 -2q88 0 176 6q59 4 55 5q43 0 43 -23q0 -29 -45 -29q-18 0 -27.5 1t-21.5 3h-14q-72 0 -176 -120 l-238 -277q-18 -20 -18 -31q0 -10 18 -32l326 -381q66 -76 123 -76q12 0 36.5 2t36.5 2q43 0 43 -27q0 -26 -42 -26h-3q-2 0 -69 6q-90 8 -135 8q-84 0 -152 -8q-51 -6 -61 -6q-47 0 -48 26q0 27 45 27q23 0 58 -2q27 -2 45 -4t20 -2q59 0 60 33q-1 11 -19 38l-28 29 l-265 314q-25 29 -32 28q-8 0 -33 -28l-289 -336q-18 -23 -18 -43q0 -31 63 -31q25 0 58 2l69 4q47 0 47 -29q0 -26 -36 -26h-3h-6l-76 8q-57 6 -170 6q-82 0 -135 -8q-39 -6 -61 -6q-37 0 -37 24z" />
<glyph unicode="y" horiz-adv-x="1155" d="M-59 -190q0 43 29.5 75.5t68.5 32.5q29 0 50.5 -20.5t21.5 -49.5q0 -63 -68 -63q-12 0 -25 6q-4 0 -8 2q-12 0 -12 -20q0 -47 62.5 -87t138.5 -40q193 0 301 213q35 68 35 98q0 18 -15 55l-315 797q-33 84 -45 100q-31 43 -90 43q-14 0 -23 -2h-20q-41 0 -41 25 q0 29 41 29q-6 0 55 -5q37 -6 133 -6q47 0 133 6q57 4 82 5q51 0 51 -29q0 -25 -45 -25h-6l-55 4q-29 2 -56 2q-81 0 -81 -37q0 -15 8 -40l20 -64l291 -745q10 -27 16 -27t17 27l330 809q8 23 8 30q0 45 -84 45q-20 0 -59.5 -3t-57.5 -3q-41 0 -41 27q0 29 39 29q-2 0 59 -5 q10 -4 64 -6l78 -4q92 0 153 10q53 4 58 5q37 0 37 -25q0 -29 -50 -29h-30q-8 2 -25 2q-37 0 -52.5 -15t-33.5 -58l-39 -91l-344 -827q-55 -131 -131 -229q-100 -127 -270 -127q-111 0 -184.5 58t-73.5 147z" />
<glyph unicode="z" horiz-adv-x="1081" d="M74 39q0 27 65 96l727 774q27 29 27 37t-49 8h-570q-86 0 -100 -43q-6 -23 -6 -71q0 -2 4 -86l4 -84q0 -45 -29 -45q-27 0 -26 37l2 77v138l-2 69q-2 57 65 58h43q20 -2 52 -3h585q68 0 83.5 -6t15.5 -34q0 -29 -43 -74l-756 -801q-23 -25 -23 -35t23 -10h641 q74 0 89 17.5t15 101.5q0 41 -2 67l-4 54l-2 59l-2 8q0 72 31 72t31 -55v-11l-5 -49q0 -2 -4 -53q-2 -29 -2 -59v-7l2 -71v-37q2 -18 2 -35q0 -51 -71 -51h-23q-8 2 -45 2h-637q-106 0 -106 45z" />
<glyph unicode="{" horiz-adv-x="1024" d="M342 494v32q66 23 92.5 68t26.5 135v397q0 272 227 273h14v-39q-106 -8 -148 -54t-42 -155v-422q0 -96 -27.5 -144t-99.5 -77q127 -47 127 -227v-398q0 -221 172 -221h18v-39q-156 0 -204 88q-37 66 -37 223v355q0 94 -24.5 136t-94.5 69z" />
<glyph unicode="|" horiz-adv-x="1024" d="M485 1536h54v-2048h-52z" />
<glyph unicode="}" horiz-adv-x="1024" d="M324 -338h18q172 0 172 209v422q0 96 27.5 144t99.5 77q-127 47 -127 227v398q0 221 -172 221h-18v39q156 0 204 -88q37 -66 37 -224v-354q0 -94 24.5 -136t96.5 -69v-32q-68 -23 -94.5 -68t-26.5 -135v-397q0 -272 -227 -273h-14v39z" />
<glyph unicode="~" horiz-adv-x="1366" d="M195 1255q111 195 258 195q82 0 241 -84q147 -78 217 -78q119 0 219 166l39 -24q-111 -195 -260 -195q-76 0 -280 106q-110 58 -176 58q-117 0 -217 -168z" />
<glyph unicode="&#xa1;" horiz-adv-x="858" d="M332 926q0 41 27.5 69.5t68.5 28.5q39 0 67.5 -28.5t28.5 -69.5t-28.5 -70t-67.5 -29q-41 0 -68.5 29t-27.5 70zM393 -346l8 1044q0 49 27 50q31 0 31 -50l6 -1044q0 -57 -35 -57q-37 0 -37 57z" />
<glyph unicode="&#xa2;" d="M197 664q0 236 112.5 377t321.5 169v201q0 59 28 59q27 0 27 -53v-207q166 -8 266.5 -91t100.5 -210q0 -61 -35 -103t-86 -42q-35 0 -58.5 20.5t-23.5 51.5q0 59 61 59q23 0 37 -12l15 -13q10 -8 14 -8q27 0 27 58q0 111 -99 182q-80 57 -219 63v-966q295 16 330 266 l4 29q6 37 29 36q24 0 24 -41q0 -139 -109.5 -234t-277.5 -101v-199q0 -55 -27 -55q-29 0 -28 63v193q-160 12 -248 82q-186 143 -186 426zM256 666q0 -213 99.5 -336t275.5 -129v964q-178 -23 -276.5 -153.5t-98.5 -345.5z" />
<glyph unicode="&#xa3;" horiz-adv-x="1304" d="M53 166q0 88 64.5 145.5t161.5 57.5q127 0 305 -131q18 63 18 114q0 139 -174 404l-246 2q-31 2 -30 26q0 29 32 27l35 -2h187q-68 137 -68 268q0 152 95 239t259 87q145 0 239.5 -71.5t94.5 -182.5q0 -121 -80 -121q-68 0 -67 59q0 31 24 46l23 10q29 12 28 49 q0 70 -74.5 117t-185.5 47q-137 0 -217 -74t-80 -201q0 -125 78 -272h391q68 0 68 -29q0 -25 -62 -24h-368q94 -160 127 -243t33 -167q0 -57 -31 -141q223 -195 352 -195q92 0 153.5 76t61.5 188q0 96 -49 155.5t-129 59.5q-57 0 -100 -35.5t-54 -91.5q-8 -47 -28 -47 q-29 0 -29 37q0 76 64.5 133.5t150.5 57.5q104 0 170 -74t66 -193q0 -137 -76 -225t-195 -88q-84 0 -165 39t-220 148q-125 -186 -311 -187q-106 0 -174 57.5t-68 145.5zM113 166q0 -70 51 -113t133 -43q152 0 262 172q-174 139 -289 140q-66 0 -111.5 -46.5t-45.5 -109.5z " />
<glyph unicode="&#xa4;" horiz-adv-x="1366" d="M166 1182l35 35l178 -181q133 119 303 119q172 0 303 -117l180 179l33 -35l-178 -178q113 -137 113 -297q0 -164 -115 -297l182 -183l-35 -34l-182 184q-131 -117 -301 -117q-166 0 -297 113l-178 -180l-33 34l178 179q-119 133 -119 301q0 160 111 294zM283 707 q0 -166 117.5 -283t281.5 -117q166 0 282.5 117t116.5 283t-116.5 283.5t-282.5 117.5q-164 0 -281.5 -118t-117.5 -283z" />
<glyph unicode="&#xa5;" d="M2 1346q0 27 51 26q14 0 66 -6q68 -8 141 -8q76 0 170 10q57 6 68 6q41 0 41 -26q0 -29 -45 -29q-12 0 -82 4l-76 4q-47 0 -47 -27q2 -4 8 -20l10 -23l295 -591q14 -29 31 -29q18 0 33 29l282 536q14 27 29 55q12 23 12 35q0 25 -41 27l-28 2h-27q-27 -2 -44.5 -3 t-51.5 -1q-66 0 -66 26q0 27 45 27q10 0 82 -8t158 -8q12 0 90 4q27 0 65.5 5t53.5 5q39 0 39 -27t-54 -26q-4 0 -14 2h-16l-45 4q-56 0 -105 -88l-256 -465h373q31 0 45 -4t14 -19q0 -27 -28 -26h-430l-76 -137q-14 -27 -15 -50v-36h490q31 0 45 -4.5t14 -18.5 q0 -12 -9 -19.5t-19 -7.5h-521v-116l5 -152q2 -72 16 -98q20 -41 84 -41q41 0 64.5 3t50.5 3q43 0 43 -27t-43 -26h-7l-45 4q-25 0 -65 4q-47 6 -64 6q-23 2 -39 2h-67q-16 0 -38 -2t-71 -6q-20 -2 -57 -4l-47 -4h-6q-43 0 -43 24q0 29 45 29q33 0 49 -2q31 -4 63 -4 q66 0 90 39q16 29 19 100l6 152l2 116h-457q-49 0 -49 27q0 23 45 23h461v43q0 25 -6 34l-8 15l-68 131h-375q-49 0 -49 29q0 10 7.5 15t37.5 5h355l-242 467q-45 88 -104 88q-29 0 -48.5 -2t-48.5 -2q-51 0 -51 27z" />
<glyph unicode="&#xa6;" horiz-adv-x="1024" d="M485 307h54v-819h-52zM485 1536h54v-819h-52z" />
<glyph unicode="&#xa7;" d="M229 -25q0 123 99 123q72 0 71 -69q0 -37 -37 -64l-30 -22q-23 -12 -23 -47q0 -66 94.5 -117t217.5 -51q137 0 223 64.5t86 166.5q0 86 -47 141.5t-178 120.5q-29 16 -125 66q-160 82 -232 137q-96 76 -96 184q0 176 229 295q-160 86 -159 223q0 121 98 197t256 76 q152 0 253 -68.5t101 -175.5q0 -102 -82 -102q-29 0 -49 21.5t-20 49.5q0 37 34.5 59.5t34.5 39.5q0 53 -80 92t-186 39q-131 0 -215 -62.5t-84 -161.5q0 -104 106 -169q49 -31 199 -103q180 -86 250 -143q102 -84 102 -195q0 -176 -221 -293q96 -63 134 -119.5t38 -140.5 q0 -131 -102.5 -210t-272.5 -79q-172 0 -279.5 83t-107.5 214zM311 616q0 -78 48.5 -125t222.5 -139l184 -96q217 115 217 258q0 119 -149 205q-59 33 -158 82l-146 71q-219 -115 -219 -256z" />
<glyph unicode="&#xa8;" horiz-adv-x="1005" d="M246 1278q0 33 22.5 54.5t55.5 21.5q31 0 53 -21.5t22 -52.5q0 -33 -22.5 -55.5t-54.5 -22.5q-31 0 -53.5 22.5t-22.5 53.5zM606 1280q0 31 22.5 53.5t55.5 22.5q31 0 53.5 -22.5t22.5 -55.5q0 -31 -21.5 -53.5t-54.5 -22.5t-55.5 22.5t-22.5 55.5z" />
<glyph unicode="&#xa9;" horiz-adv-x="1662" d="M109 682q0 299 211.5 511t510.5 212t511 -212t212 -511t-212 -510t-511 -211t-510.5 211t-211.5 510zM156 682q0 -279 198 -477.5t477 -198.5q281 0 478.5 198.5t197.5 477.5q0 281 -197.5 478.5t-478.5 197.5t-478 -197.5t-197 -478.5zM473 686q0 195 101.5 313.5 t267.5 118.5q174 0 250 -135v39q-2 20 -2 25q0 43 26 43q20 0 21 -27q0 14 -4.5 -47.5t-4.5 -134.5q0 -66 2 -82q4 -35 5 -39q0 -29 -25 -29t-25 35q0 12 2.5 37.5t2.5 38.5q0 106 -68 170.5t-182 64.5q-145 0 -230.5 -108.5t-85.5 -294.5q0 -178 84 -279.5t232 -101.5 q121 0 192.5 63.5t75.5 175.5q2 55 29 56q25 0 24 -33q0 -133 -91 -218t-232 -85q-168 0 -266.5 116.5t-98.5 317.5z" />
<glyph unicode="&#xaa;" horiz-adv-x="872" d="M156 608v68h610v-68h-610zM162 958q0 152 235 166q164 10 164 103q0 51 -41 81.5t-110 30.5q-72 0 -120 -28.5t-48 -73.5q0 -10 4 -12v2l2 6q12 23 37 22q41 0 41 -41q0 -53 -58 -53q-29 0 -50 20.5t-21 49.5q0 61 60 103t151 42q201 0 200 -186v-211q0 -70 2 -86 q10 -55 52 -55q55 0 55 73v7l-2 47q-2 39 22 39q20 0 21 -29v-43q0 -129 -96 -129q-88 0 -97 110q-76 -111 -213 -110q-84 0 -137 43t-53 112zM207 958q0 -53 42 -86.5t107 -33.5q88 0 148.5 58t60.5 142v105q-45 -49 -170 -58q-188 -12 -188 -127z" />
<glyph unicode="&#xab;" horiz-adv-x="745" d="M94 530q0 14 12 35l189 316q18 31 35 30q23 0 22 -20q0 -8 -12 -31l-164 -295q-10 -25 -10 -35q0 -12 10 -36l164 -293q12 -23 12 -33q0 -20 -22 -21q-16 0 -35 31l-189 316q-12 23 -12 36zM354 530q0 10 15 35l188 316q18 31 33 30q25 0 24 -20q0 -8 -12 -31l-164 -295 q-12 -23 -12 -35q0 -14 12 -36l164 -293q12 -29 12 -33q0 -20 -24 -21q-14 0 -33 31l-188 316q-14 25 -15 36z" />
<glyph unicode="&#xac;" horiz-adv-x="1024" d="M68 500v47h888v-547h-51v500h-837z" />
<glyph unicode="&#xad;" horiz-adv-x="1124" d="M94 420v127h936v-127h-936z" />
<glyph unicode="&#xae;" horiz-adv-x="1024" d="M102 1130q0 170 121 290t289 120q170 0 290 -120t120 -290q0 -168 -120 -288.5t-290 -120.5q-168 0 -289 121t-121 288zM145 1130q0 -152 107.5 -259t259.5 -107t259.5 107.5t107.5 258.5q0 152 -107.5 259.5t-259.5 107.5t-259.5 -107.5t-107.5 -259.5zM295 934 q0 23 27 22h16q6 -2 18 -2q18 0 19 31v311q0 31 -19 31q-4 0 -17 -2t-17 -2q-27 0 -27 23t27 22q10 0 16 -2h18q18 -2 33 -2h53l43 2q43 2 41 2q160 0 160 -121q0 -74 -65 -106q41 -35 41 -115v-39q0 -39 22 -39q31 0 31 68v16q-2 14 -2 43v2q0 29 20 29q27 0 25 -29l-2 -39 v-49q0 -84 -72 -84q-68 0 -68 90v47q0 53 -22.5 67.5t-81.5 14.5h-92v-92l2 -47q2 -31 18 -31q6 0 17 2h18q27 0 27 -22q0 -23 -29 -23q-10 0 -32.5 3.5t-32.5 3.5h-19q-12 0 -34.5 -3.5t-32.5 -3.5q-27 0 -27 23zM420 1165h117q102 0 102 80t-129 80h-29q-23 -2 -39 -2h-4 q-14 0 -16 -3t-2 -26v-129z" />
<glyph unicode="&#xaf;" horiz-adv-x="1005" d="M184 1294q0 27 37 27h559q41 0 41 -27t-41 -26h-561q-35 0 -35 26z" />
<glyph unicode="&#xb0;" horiz-adv-x="1024" d="M244 1126q0 109 77.5 184.5t190.5 75.5q111 0 189.5 -76.5t78.5 -183.5q0 -109 -78.5 -185.5t-189.5 -76.5q-113 0 -190.5 77t-77.5 185zM289 1126q0 -90 65.5 -154.5t157.5 -64.5t157.5 64.5t65.5 154.5t-65.5 153.5t-157.5 63.5t-157.5 -63t-65.5 -154z" />
<glyph unicode="&#xb1;" horiz-adv-x="1024" d="M66 162v49h892v-49h-892zM66 688v49h421v383h52v-383h419v-49h-421v-381h-50v381h-421z" />
<glyph unicode="&#xb2;" horiz-adv-x="837" d="M70 596q0 137 98 223q74 68 240 115q123 37 164.5 57.5t70.5 61.5q35 49 35 125q0 109 -70.5 170t-197.5 61q-221 0 -283 -156q-12 -31 -12 -55q0 -29 16 -29q4 0 14.5 6.5t16.5 6.5q39 0 39 -43q0 -20 -15.5 -34.5t-35.5 -14.5q-68 0 -68 88q0 115 93 188.5t237 73.5 q137 0 219 -71t82 -187q0 -170 -156 -230q-61 -23 -151 -49q-131 -35 -202 -91t-98 -142q-10 -37 -10 -62q0 -2 2 -26q51 106 174 106q84 0 168 -74q61 -57 74 -65q39 -31 88 -31q53 0 94 42t41 99q0 41 -20 70q-4 10 -10 10q-4 0 -14.5 -13t-24.5 -13q-31 0 -31 32 q0 14 14.5 26.5t32.5 12.5q33 0 57.5 -36.5t24.5 -85.5q0 -74 -48 -125.5t-118 -51.5q-43 0 -77 18.5t-95 76.5q-80 72 -162 71q-109 0 -147 -78l-2 -12q0 -8 4 -8q2 0 5 1t11 1q31 0 31 -31q0 -35 -39 -35q-59 0 -59 107z" />
<glyph unicode="&#xb3;" horiz-adv-x="837" d="M82 723q0 45 25.5 76.5t62.5 31.5q51 0 51 -45q0 -41 -39 -41q-6 0 -18 6.5t-21 6.5q-27 0 -26 -49q0 -78 82 -134.5t192 -56.5q150 0 236 77t86 208q0 115 -62.5 176t-179.5 61q-80 0 -123 -24q-10 -6 -16 -6q-12 0 -13 12q0 6 5 10l12 10l313 308q20 18 21 22 q0 6 -21 6h-436q-55 0 -59 -30q-2 -10 -2 -33q0 -63 6 -109q0 -16 4 -45v-2q0 -29 -21 -29q-18 0 -18 21l2 4l4 55v43q0 35 -2 69t-2 52q0 37 33 35h43h461q45 0 51 -10q4 -6 4 -15q0 -12 -29 -41l-287 -282q31 8 66 8q135 0 211 -70.5t76 -193.5q0 -143 -96.5 -231.5 t-254.5 -88.5q-139 0 -230 68t-91 170z" />
<glyph unicode="&#xb4;" horiz-adv-x="1005" d="M387 1176q0 16 21 30l264 197q31 23 45 22q26 1 26 -24q0 -16 -36 -43l-269 -189q-18 -12 -30 -12q-20 0 -21 19z" />
<glyph unicode="&#xb5;" horiz-adv-x="1024" d="M129 -334v1313h51v-584q0 -141 30 -213.5t105.5 -120t173.5 -47.5q152 0 248.5 114t96.5 296v555h51v-979h-49v225q-49 -111 -103 -162q-98 -94 -246 -94q-197 0 -307 172v-475h-51z" />
<glyph unicode="&#xb6;" horiz-adv-x="1042" d="M33 997q0 113 60.5 205t154.5 128t219 36h436v-45h-100v-1534h-49v1534h-252v-1534h-51v846h-37q-166 0 -273.5 102.5t-107.5 261.5z" />
<glyph unicode="&#xb7;" horiz-adv-x="215" d="M0 725q0 43 30.5 73.5t75.5 30.5t77 -30.5t32 -73.5q0 -45 -30.5 -76t-75.5 -31t-77 32t-32 75z" />
<glyph unicode="&#xb8;" horiz-adv-x="1007" d="M332 -289q0 20 28 21q12 0 29 -13l12 -16q37 -49 136 -49q66 0 107.5 30.5t41.5 75.5q0 86 -133 86q-43 0 -86 -20q-20 -10 -35 -10q-8 0 -17 7t-9 15q0 6 12 33l59 129h55l-53 -123q57 12 96 12q76 0 123 -36.5t47 -94.5q0 -63 -59 -104t-149 -41q-119 0 -185 61 q-20 18 -20 37z" />
<glyph unicode="&#xb9;" horiz-adv-x="837" d="M201 522q0 18 28 19q16 0 36 -3t50 -3q49 0 66.5 21.5t17.5 76.5q0 51 2 93t2 99v400q0 117 -12 142.5t-65 25.5q-10 0 -50 -2q-20 -2 -40 -2q-33 0 -33 20q0 16 26 16h7l36 -6q27 -4 68 -4q6 0 16 2h11q37 4 45 4q20 0 26 -18q2 -6 2 -35v-547v-108l2 -95 q0 -47 17.5 -66.5t58.5 -19.5l14 2q15 1 38.5 3t31.5 2q35 0 35 -21q0 -16 -27 -16q-8 0 -63 6q-106 10 -139 10q-59 0 -121 -8q-49 -6 -56 -6q-31 0 -30 18z" />
<glyph unicode="&#xba;" horiz-adv-x="872" d="M166 1096q0 123 74.5 201.5t193.5 78.5q121 0 197 -81t76 -210q0 -125 -77 -203.5t-198 -78.5q-117 0 -191.5 82t-74.5 211zM168 608v68h537v-68h-537zM211 1094q0 -115 61.5 -185.5t161.5 -70.5t164 68.5t64 176.5q0 115 -62.5 185.5t-163.5 70.5q-102 0 -163.5 -66.5 t-61.5 -178.5z" />
<glyph unicode="&#xbb;" horiz-adv-x="745" d="M131 168q0 10 12 33l164 293q10 24 10 36q0 16 -10 35l-164 295q-12 23 -12 31q0 20 23 20q16 0 34 -30l189 -316q14 -25 14 -35q0 -12 -14 -36l-189 -316q-18 -31 -34 -31q-23 0 -23 21zM391 168q0 10 12 33l164 293q13 22 13 36q0 12 -13 35l-164 295q-12 29 -12 31 q0 20 25 20q14 0 33 -30l188 -316q14 -25 14 -35q0 -12 -14 -36l-188 -316q-18 -31 -33 -31q-25 0 -25 21z" />
<glyph unicode="&#xbc;" horiz-adv-x="1255" d="M41 827q0 14 22 15q12 0 27.5 -2t38.5 -2q37 0 50.5 15t13.5 58q0 39 1 71t1 75v303q0 88 -9.5 107.5t-48.5 19.5q-8 0 -39 -2h-30q-25 0 -25 14q0 12 20 12h5l28 -4q20 -4 51 -4q4 0 13 2h8q27 4 35 4q14 0 18 -14q2 -6 2 -27v-413v-84l2 -70q0 -37 13.5 -51t44.5 -14 l11 1t28.5 2t23.5 1q27 0 27 -15q0 -14 -21 -14q-6 0 -47 4q-82 10 -106 10q-45 0 -93 -8q-37 -4 -40 -4q-25 0 -25 14zM225 14q0 23 47 109l119 217q143 260 285 549l112 227l119 227q14 35 35 35q27 0 27 -28q0 -18 -21 -56l-37 -65l-620 -1209q-16 -35 -37 -34 q-29 0 -29 28zM647 227q0 12 17 33l331 410q27 33 41 32q18 0 19 -28v-418q0 -16 3 -19.5t15 -3.5h4l86 3q4 0 11.5 1t9.5 1h6q25 0 24 -15q0 -14 -20 -14h-117q-14 0 -18 -3t-4 -20v-108q0 -37 10 -49.5t43 -12.5h6l27 2h26q20 0 21 -12q0 -14 -23 -14q-16 0 -43 4 q-31 2 -41 4q-35 2 -45 2t-45 -2q-25 -2 -73 -8h-3q-20 0 -20 14q0 12 23 12q8 0 27.5 -1t29.5 -1q31 0 41 12.5t12 53.5v27v77q0 16 -4 19.5t-18 3.5h-318q-41 0 -41 18zM678 236q0 -4 12 -5h316q16 0 19 4.5t3 18.5v397q0 12 -4 13q-4 0 -8 -7l-332 -411q-6 -6 -6 -10z " />
<glyph unicode="&#xbd;" horiz-adv-x="1339" d="M41 827q0 14 22 15q12 0 27.5 -2t38.5 -2q37 0 50.5 15t13.5 58q0 39 1 71t1 75v303q0 88 -9.5 107.5t-48.5 19.5q-8 0 -39 -2h-30q-25 0 -25 14q0 12 20 12h5l28 -4q20 -4 51 -4q4 0 13 2h8q27 4 35 4q14 0 18 -14q2 -6 2 -27v-413v-84l2 -70q0 -37 13.5 -51t44.5 -14 l11 1t28.5 2t23.5 1q27 0 27 -15q0 -14 -21 -14q-6 0 -47 4q-82 10 -106 10q-45 0 -93 -8q-37 -4 -40 -4q-25 0 -25 14zM225 14q0 23 47 109l119 217q143 260 285 549l112 227l119 227q14 35 35 35q27 0 27 -28q0 -18 -21 -56l-37 -65l-620 -1209q-16 -35 -37 -34 q-29 0 -29 28zM770 63q0 104 74 170q57 51 182 86q92 29 125 44.5t53 46.5q27 39 27 94q0 82 -53.5 129t-149.5 47q-168 0 -215 -119q-8 -23 -8 -41q0 -23 12 -22q2 0 10.5 5t12.5 5q31 0 30 -33q0 -16 -12 -26.5t-29 -10.5q-49 0 -49 68q0 86 71 141t179 55 q102 0 164.5 -53t62.5 -141q0 -129 -118 -174q-45 -16 -115 -37q-98 -27 -152.5 -69t-72.5 -107q-8 -29 -8 -47q0 -2 2 -21q39 80 131 80q63 0 127 -55q47 -43 57 -49q29 -25 66 -25q41 0 71.5 33t30.5 76q0 31 -16 53q-2 6 -9 6q-2 0 -10 -9t-18 -9q-23 0 -23 22 q0 12 10.5 21.5t24.5 9.5q27 0 45 -27.5t18 -66.5q0 -55 -36.5 -94t-90.5 -39q-33 0 -58.5 14t-72.5 57q-59 55 -120 55q-82 0 -113 -59q-2 -8 -2 -10q0 -6 4 -6q2 0 4 1t8 1q23 0 23 -23q0 -27 -29 -26q-45 0 -45 79z" />
<glyph unicode="&#xbe;" horiz-adv-x="1335" d="M41 979q0 35 19.5 58.5t45.5 23.5q39 0 39 -33q0 -31 -28 -31q-6 0 -15.5 4.5t-15.5 4.5q-20 0 -20 -37q0 -59 62 -102.5t146 -43.5q113 0 178.5 58.5t65.5 158.5q0 86 -47 133.5t-135 47.5q-61 0 -94 -21q-8 -4 -13 -4q-8 0 -8 10q0 4 2 8l10 9l238 231q14 14 14 19 q0 4 -14 4h-332q-41 0 -45 -25q-2 -8 -2 -25q0 -47 4 -81q2 -12 4 -33v-2q0 -23 -16 -23q-12 0 -12 17v2l4 41v34q0 25 -2 50.5t-2 40.5q0 29 24 26h33h350q35 0 39 -8q2 -4 2 -10q0 -11 -20 -31l-217 -215q23 6 49 6q102 0 159.5 -53t57.5 -146q0 -109 -73 -176t-191 -67 q-106 0 -175 51t-69 129zM305 14q0 23 47 109l119 217q143 260 285 549l112 227l119 227q14 35 35 35q27 0 27 -28q0 -18 -21 -56l-37 -65l-620 -1209q-16 -35 -37 -34q-29 0 -29 28zM727 227q0 12 16 33l332 410q27 33 41 32q18 0 19 -28v-418q0 -16 3 -19.5t15 -3.5h4 l86 3q4 0 11.5 1t9.5 1h6q25 0 24 -15q0 -14 -20 -14h-117q-14 0 -18 -3t-4 -20v-108q0 -37 10 -49.5t43 -12.5h6l27 2h26q20 0 21 -12q0 -14 -23 -14q-16 0 -43 4q-31 2 -41 4q-35 2 -45 2t-45 -2q-25 -2 -74 -8h-2q-20 0 -20 14q0 12 22 12q8 0 27.5 -1t30.5 -1 q31 0 41 12.5t12 53.5v27v77q0 16 -4 19.5t-19 3.5h-317q-41 0 -41 18zM758 236q0 -4 12 -5h315q16 0 19.5 4.5t3.5 18.5v397q0 12 -4 13q-4 0 -8 -7l-332 -411q-6 -6 -6 -10z" />
<glyph unicode="&#xbf;" horiz-adv-x="1155" d="M82 -47q0 182 156 283q66 43 163 86q135 59 176 120.5t41 204.5q0 14 -2 21v12q0 57 29 57q35 0 35 -75q0 -147 -37 -220q-43 -84 -191.5 -153.5t-202.5 -113.5t-83 -114q-20 -49 -21 -108q0 -143 108.5 -227t297.5 -84q188 0 309 87t121 224q0 59 -34 102t-79 43 q-32 1 -32 -22v-2l10 -23q4 -8 4 -16q0 -27 -19.5 -45.5t-44.5 -18.5q-27 0 -46 21.5t-19 50.5q0 45 36 73.5t91 28.5q84 0 136 -54t52 -140q0 -156 -137 -255t-350 -99t-340 96t-127 260zM545 926q0 41 28.5 69.5t69.5 28.5q39 0 67.5 -29.5t28.5 -68.5t-28.5 -69 t-69.5 -30t-68.5 29t-27.5 70z" />
<glyph unicode="&#xc0;" horiz-adv-x="1490" d="M-2 23q0 29 43 28q14 0 41 -3t41 -3q98 0 149 139l27 72l408 1047q27 70 59 69q35 0 57 -59l303 -836q111 -305 152 -379q29 -53 86 -53q14 0 41 2t41 2q47 0 47 -24q0 -14 -13.5 -22.5t-31.5 -8.5q-27 0 -68 6q-68 10 -151 10q-82 0 -127 -6l-90 -12h-11q-55 0 -55 28 q0 31 51 31q2 0 57.5 -4t61.5 -4q80 0 80 61q0 29 -18 80l-39 107l-70 182q-4 12 -16 31q-6 4 -33 4h-528q-27 0 -34 -4t-18 -31l-110 -285q-6 -18 -17 -43q-8 -16 -8 -39q0 -61 105 -61q18 0 61 2q12 2 41 2h2q47 0 47 -24q0 -27 -43 -27q-8 0 -91 6t-177 6 q-80 0 -137.5 -8t-73.5 -8q-41 0 -41 29zM483 573q0 -25 45 -24h457q45 0 45 24q0 8 -8 31l-258 701l-272 -701q-8 -20 -9 -31zM575 1714q0 25 27 25q16 0 47 -23l264 -194q20 -14 21 -31q0 -20 -21 -21q-10 0 -30 15l-271 188q-37 27 -37 41z" />
<glyph unicode="&#xc1;" horiz-adv-x="1490" d="M-2 23q0 29 43 28q14 0 41 -3t41 -3q98 0 149 139l27 72l408 1047q27 70 59 69q35 0 57 -59l303 -836q111 -305 152 -379q29 -53 86 -53q14 0 41 2t41 2q47 0 47 -24q0 -14 -13.5 -22.5t-31.5 -8.5q-27 0 -68 6q-68 10 -151 10q-82 0 -127 -6l-90 -12h-11q-55 0 -55 28 q0 31 51 31q2 0 57.5 -4t61.5 -4q80 0 80 61q0 29 -18 80l-39 107l-70 182q-4 12 -16 31q-6 4 -33 4h-528q-27 0 -34 -4t-18 -31l-110 -285q-6 -18 -17 -43q-8 -16 -8 -39q0 -61 105 -61q18 0 61 2q12 2 41 2h2q47 0 47 -24q0 -27 -43 -27q-8 0 -91 6t-177 6 q-80 0 -137.5 -8t-73.5 -8q-41 0 -41 29zM483 573q0 -25 45 -24h457q45 0 45 24q0 8 -8 31l-258 701l-272 -701q-8 -20 -9 -31zM567 1491q0 16 21 31l262 194q31 23 47 23q27 0 27 -23q0 -16 -37 -43l-269 -188q-20 -14 -30 -15q-20 0 -21 21z" />
<glyph unicode="&#xc2;" horiz-adv-x="1490" d="M-2 23q0 29 43 28q14 0 41 -3t41 -3q98 0 149 139l27 72l408 1047q27 70 59 69q35 0 57 -59l303 -836q111 -305 152 -379q29 -53 86 -53q14 0 41 2t41 2q47 0 47 -24q0 -14 -13.5 -22.5t-31.5 -8.5q-27 0 -68 6q-68 10 -151 10q-82 0 -127 -6l-90 -12h-11q-55 0 -55 28 q0 31 51 31q2 0 57.5 -4t61.5 -4q80 0 80 61q0 29 -18 80l-39 107l-70 182q-4 12 -16 31q-6 4 -33 4h-528q-27 0 -34 -4t-18 -31l-110 -285q-6 -18 -17 -43q-8 -16 -8 -39q0 -61 105 -61q18 0 61 2q12 2 41 2h2q47 0 47 -24q0 -27 -43 -27q-8 0 -91 6t-177 6 q-80 0 -137.5 -8t-73.5 -8q-41 0 -41 29zM418 1487q0 16 33 37l284 170q8 4 13 4q8 0 32 -15l267 -161q27 -16 26 -31q0 -20 -20 -21q-17 1 -31 11l-272 159l-281 -155q-18 -10 -20 -10q-8 -4 -13 -5q-18 0 -18 17zM483 573q0 -25 45 -24h457q45 0 45 24q0 8 -8 31l-258 701 l-272 -701q-8 -20 -9 -31z" />
<glyph unicode="&#xc3;" horiz-adv-x="1490" d="M-2 23q0 29 43 28q14 0 41 -3t41 -3q98 0 149 139l27 72l408 1047q27 70 59 69q35 0 57 -59l303 -836q111 -305 152 -379q29 -53 86 -53q14 0 41 2t41 2q47 0 47 -24q0 -14 -13.5 -22.5t-31.5 -8.5q-27 0 -68 6q-68 10 -151 10q-82 0 -127 -6l-90 -12h-11q-55 0 -55 28 q0 31 51 31q2 0 57.5 -4t61.5 -4q80 0 80 61q0 29 -18 80l-39 107l-70 182q-4 12 -16 31q-6 4 -33 4h-528q-27 0 -34 -4t-18 -31l-110 -285q-6 -18 -17 -43q-8 -16 -8 -39q0 -61 105 -61q18 0 61 2q12 2 41 2h2q47 0 47 -24q0 -27 -43 -27q-8 0 -91 6t-177 6 q-80 0 -137.5 -8t-73.5 -8q-41 0 -41 29zM430 1573q0 10 31 41q63 61 145 61q55 0 144 -28q106 -35 153 -35q70 0 111 39l18 18q8 8 17 8q12 0 12 -10q0 -14 -29 -41q-84 -76 -166 -76q-49 0 -145 35l-8 2q-103 37 -146 37q-57 0 -98 -45l-12 -10q-8 -8 -15 -8q-12 0 -12 12 zM483 573q0 -25 45 -24h457q45 0 45 24q0 8 -8 31l-258 701l-272 -701q-8 -20 -9 -31z" />
<glyph unicode="&#xc4;" horiz-adv-x="1490" d="M-2 23q0 29 43 28q14 0 41 -3t41 -3q98 0 149 139l27 72l408 1047q27 70 59 69q35 0 57 -59l303 -836q111 -305 152 -379q29 -53 86 -53q14 0 41 2t41 2q47 0 47 -24q0 -14 -13.5 -22.5t-31.5 -8.5q-27 0 -68 6q-68 10 -151 10q-82 0 -127 -6l-90 -12h-11q-55 0 -55 28 q0 31 51 31q2 0 57.5 -4t61.5 -4q80 0 80 61q0 29 -18 80l-39 107l-70 182q-4 12 -16 31q-6 4 -33 4h-528q-27 0 -34 -4t-18 -31l-110 -285q-6 -18 -17 -43q-8 -16 -8 -39q0 -61 105 -61q18 0 61 2q12 2 41 2h2q47 0 47 -24q0 -27 -43 -27q-8 0 -91 6t-177 6 q-80 0 -137.5 -8t-73.5 -8q-41 0 -41 29zM483 573q0 -25 45 -24h457q45 0 45 24q0 8 -8 31l-258 701l-272 -701q-8 -20 -9 -31zM502 1612q0 33 22.5 54.5t53.5 21.5q33 0 55 -21.5t22 -52.5q0 -33 -22.5 -55.5t-54.5 -22.5q-31 0 -53.5 22.5t-22.5 53.5zM862 1614 q0 31 22.5 53.5t55.5 22.5q31 0 53.5 -22.5t22.5 -55.5q0 -31 -21.5 -53.5t-54.5 -22.5t-55.5 22.5t-22.5 55.5z" />
<glyph unicode="&#xc5;" horiz-adv-x="1490" d="M-2 23q0 29 43 28q14 0 41 -3t41 -3q98 0 149 139l27 72l408 1047q27 70 59 69q35 0 57 -59l303 -836q111 -305 152 -379q29 -53 86 -53q14 0 41 2t41 2q47 0 47 -24q0 -14 -13.5 -22.5t-31.5 -8.5q-27 0 -68 6q-68 10 -151 10q-82 0 -127 -6l-90 -12h-11q-55 0 -55 28 q0 31 51 31q2 0 57.5 -4t61.5 -4q80 0 80 61q0 29 -18 80l-39 107l-70 182q-4 12 -16 31q-6 4 -33 4h-528q-27 0 -34 -4t-18 -31l-110 -285q-6 -18 -17 -43q-8 -16 -8 -39q0 -61 105 -61q18 0 61 2q12 2 41 2h2q47 0 47 -24q0 -27 -43 -27q-8 0 -91 6t-177 6 q-80 0 -137.5 -8t-73.5 -8q-41 0 -41 29zM483 573q0 -25 45 -24h457q45 0 45 24q0 8 -8 31l-258 701l-272 -701q-8 -20 -9 -31zM602 1655q0 70 49 118t121 48q70 0 118 -48.5t48 -115.5q0 -72 -49 -121t-119 -49t-119 49t-49 119zM657 1655q0 -45 35 -80t80 -35t78 33t33 80 q0 49 -32 82.5t-79 33.5t-81 -33.5t-34 -80.5z" />
<glyph unicode="&#xc6;" horiz-adv-x="2236" d="M-82 20q0 27 47 27q18 0 53 -3t54 -3q37 0 57.5 15.5t63.5 72.5l903 1217q12 16 39 16h16q4 0 61 -2l78 -2h221q117 0 332 10l144 6q68 0 67 -65v-9l-4 -81v-80l2 -109q2 -55 4 -123q2 -4 2 -14q0 -61 -30 -62q-33 0 -33 62v12q2 33 6 125l2 127q0 96 -22.5 128t-90.5 32 h-506q-98 0 -120.5 -13.5t-24.5 -72.5l-2 -53v-385q0 -43 12.5 -54.5t38.5 -11.5h283q129 0 129 123q0 25 -2 53q-4 55 -4 80q0 59 28 59q29 0 29 -55v-6q-2 -2 -2 -4l-8 -117q-4 -57 -4 -135q0 -92 4 -141l14 -174v-9q0 -59 -31 -59q-29 0 -28 66v8q0 27 4 79t4 78 q0 63 -35 88t-121 25h-260q-51 0 -51 -49v-518q0 -43 17 -54.5t85 -11.5l519 2q117 2 148.5 35t31.5 156q0 66 -2 96l-6 100q0 57 30 58q27 0 27 -54v-10q-6 -70 -6 -98l-2 -107q-2 -84 -2 -75l4 -82q0 -78 -96 -78q-37 0 -162 8q-45 2 -221 6q-111 2 -222 2h-196l-51 -2 l-52 -6l-61 -6l-49 -4h-10q-55 0 -56 29q0 31 51 30h13l55 -6q37 -4 68 -4q61 0 77 43q8 23 9 100v23v143l2 146v139q0 33 -11.5 41t-54.5 8h-385q-47 0 -67 -20q-2 -2 -35 -48l-389 -522q-12 -12 -13 -22q0 -27 60 -27h6l71 2l80 4q53 0 54 -30q0 -27 -41 -27 q-16 0 -107 10q-37 4 -117 4q-131 0 -211 -12q-41 -6 -59 -6q-43 0 -43 28zM725 750q0 -23 61 -23h320q55 0 68 21q6 14 6 47v442q0 70 -31 70q-20 0 -57 -50l-332 -454q-35 -35 -35 -53z" />
<glyph unicode="&#xc7;" horiz-adv-x="1304" d="M100 684q0 326 162 523.5t430 197.5q201 0 320 -111q39 -37 92 -127l12 -26v33l-4 61v55l-2 6q0 59 31 60q25 0 24 -33q0 -16 -4 -78q-10 -156 -10 -231q0 -100 4 -142q6 -61 6 -63q0 -37 -26 -37q-31 0 -31 47q0 35 2 64q4 55 4 65q0 186 -114.5 298t-305.5 112 q-258 0 -389 -193q-139 -203 -139 -503q0 -307 141 -481.5t391 -174.5q201 0 320 111.5t127 306.5q4 82 35 82t30 -41q0 -217 -143 -360.5t-363 -143.5h-34l-50 -147q63 18 107 18q90 0 144.5 -38t54.5 -101q0 -78 -73 -134.5t-175 -56.5q-111 0 -185 64q-20 18 -20 35 q0 16 18 16q12 0 31 -16q59 -53 160 -54q76 0 129 39t53 97q0 104 -139 104q-53 0 -105 -23q-18 -6 -28 -6q-27 0 -27 29q0 6 4 18l51 158q-127 20 -196 55q-166 82 -250 285q-70 168 -70 381z" />
<glyph unicode="&#xc8;" horiz-adv-x="1380" d="M51 29q0 33 51 32q8 0 13 -2l55 -6q37 -4 68 -4q61 0 77 49q8 23 9 103v16q0 12 2 129v146v387v145l-2 145q0 82 -9 103q-14 49 -77 49q-31 0 -68 -4l-55 -6h-11q-53 0 -53 30q0 29 55 29q12 0 11 0q123 -8 157 -8l672 2l176 10h13q68 0 67 -63q0 -20 -2 -80t-2 -135 q0 -121 6 -187v-12q0 -72 -30 -72q-31 0 -31 62v16q4 43 6 86l2 78l4 80v18q0 109 -30.5 132.5t-172.5 23.5h-444q-88 0 -106.5 -27.5t-18.5 -167.5l2 -327q2 -45 14.5 -54.5t71.5 -9.5h215q162 0 162 107v6l-2 57l-4 78q0 55 26 55q29 0 29 -57q0 -14 -6 -80 q-10 -106 -10 -182q0 -176 18 -311v-19q0 -57 -29 -57q-33 0 -32 65v11l6 73l4 68v14q0 76 -35 103.5t-127 27.5h-227q-53 0 -64.5 -13t-11.5 -71v-434q0 -57 2 -70q8 -41 39 -51q20 -6 115 -6h379q184 0 224 34t40 185q0 51 -2 90l-4 84q0 61 28 62q27 0 27 -51v-9l-6 -63 q0 -29 -3 -85t-3 -85v-119q0 -59 -20 -80.5t-75 -19.5l-178 6l-262 2l-229 6h-125l-58 2q-14 0 -45 -2q-18 0 -59 -4l-51 -4h-8q-57 0 -58 31zM465 1714q0 25 29 25q14 0 45 -23l264 -194q20 -14 20 -31q0 -20 -20 -21q-10 0 -31 15l-270 188q-37 27 -37 41z" />
<glyph unicode="&#xc9;" horiz-adv-x="1380" d="M51 29q0 33 51 32q8 0 13 -2l55 -6q37 -4 68 -4q61 0 77 49q8 23 9 103v16q0 12 2 129v146v387v145l-2 145q0 82 -9 103q-14 49 -77 49q-31 0 -68 -4l-55 -6h-11q-53 0 -53 30q0 29 55 29q12 0 11 0q123 -8 157 -8l672 2l176 10h13q68 0 67 -63q0 -20 -2 -80t-2 -135 q0 -121 6 -187v-12q0 -72 -30 -72q-31 0 -31 62v16q4 43 6 86l2 78l4 80v18q0 109 -30.5 132.5t-172.5 23.5h-444q-88 0 -106.5 -27.5t-18.5 -167.5l2 -327q2 -45 14.5 -54.5t71.5 -9.5h215q162 0 162 107v6l-2 57l-4 78q0 55 26 55q29 0 29 -57q0 -14 -6 -80 q-10 -106 -10 -182q0 -176 18 -311v-19q0 -57 -29 -57q-33 0 -32 65v11l6 73l4 68v14q0 76 -35 103.5t-127 27.5h-227q-53 0 -64.5 -13t-11.5 -71v-434q0 -57 2 -70q8 -41 39 -51q20 -6 115 -6h379q184 0 224 34t40 185q0 51 -2 90l-4 84q0 61 28 62q27 0 27 -51v-9l-6 -63 q0 -29 -3 -85t-3 -85v-119q0 -59 -20 -80.5t-75 -19.5l-178 6l-262 2l-229 6h-125l-58 2q-14 0 -45 -2q-18 0 -59 -4l-51 -4h-8q-57 0 -58 31zM539 1491q0 16 20 31l264 194q31 23 45 23q29 0 29 -23q0 -16 -39 -43l-268 -188q-20 -14 -31 -15q-20 0 -20 21z" />
<glyph unicode="&#xca;" horiz-adv-x="1380" d="M51 29q0 33 51 32q8 0 13 -2l55 -6q37 -4 68 -4q61 0 77 49q8 23 9 103v16q0 12 2 129v146v387v145l-2 145q0 82 -9 103q-14 49 -77 49q-31 0 -68 -4l-55 -6h-11q-53 0 -53 30q0 29 55 29q12 0 11 0q123 -8 157 -8l672 2l176 10h13q68 0 67 -63q0 -20 -2 -80t-2 -135 q0 -121 6 -187v-12q0 -72 -30 -72q-31 0 -31 62v16q4 43 6 86l2 78l4 80v18q0 109 -30.5 132.5t-172.5 23.5h-444q-88 0 -106.5 -27.5t-18.5 -167.5l2 -327q2 -45 14.5 -54.5t71.5 -9.5h215q162 0 162 107v6l-2 57l-4 78q0 55 26 55q29 0 29 -57q0 -14 -6 -80 q-10 -106 -10 -182q0 -176 18 -311v-19q0 -57 -29 -57q-33 0 -32 65v11l6 73l4 68v14q0 76 -35 103.5t-127 27.5h-227q-53 0 -64.5 -13t-11.5 -71v-434q0 -57 2 -70q8 -41 39 -51q20 -6 115 -6h379q184 0 224 34t40 185q0 51 -2 90l-4 84q0 61 28 62q27 0 27 -51v-9l-6 -63 q0 -29 -3 -85t-3 -85v-119q0 -59 -20 -80.5t-75 -19.5l-178 6l-262 2l-229 6h-125l-58 2q-14 0 -45 -2q-18 0 -59 -4l-51 -4h-8q-57 0 -58 31zM313 1487q0 16 33 37l285 170q8 4 12 4q8 0 33 -15l266 -161q27 -16 27 -31q0 -20 -21 -21q-16 1 -30 11l-273 159l-280 -155 q-18 -10 -21 -10q-8 -4 -12 -5q-18 0 -19 17z" />
<glyph unicode="&#xcb;" horiz-adv-x="1380" d="M51 29q0 33 51 32q8 0 13 -2l55 -6q37 -4 68 -4q61 0 77 49q8 23 9 103v16q0 12 2 129v146v387v145l-2 145q0 82 -9 103q-14 49 -77 49q-31 0 -68 -4l-55 -6h-11q-53 0 -53 30q0 29 55 29q12 0 11 0q123 -8 157 -8l672 2l176 10h13q68 0 67 -63q0 -20 -2 -80t-2 -135 q0 -121 6 -187v-12q0 -72 -30 -72q-31 0 -31 62v16q4 43 6 86l2 78l4 80v18q0 109 -30.5 132.5t-172.5 23.5h-444q-88 0 -106.5 -27.5t-18.5 -167.5l2 -327q2 -45 14.5 -54.5t71.5 -9.5h215q162 0 162 107v6l-2 57l-4 78q0 55 26 55q29 0 29 -57q0 -14 -6 -80 q-10 -106 -10 -182q0 -176 18 -311v-19q0 -57 -29 -57q-33 0 -32 65v11l6 73l4 68v14q0 76 -35 103.5t-127 27.5h-227q-53 0 -64.5 -13t-11.5 -71v-434q0 -57 2 -70q8 -41 39 -51q20 -6 115 -6h379q184 0 224 34t40 185q0 51 -2 90l-4 84q0 61 28 62q27 0 27 -51v-9l-6 -63 q0 -29 -3 -85t-3 -85v-119q0 -59 -20 -80.5t-75 -19.5l-178 6l-262 2l-229 6h-125l-58 2q-14 0 -45 -2q-18 0 -59 -4l-51 -4h-8q-57 0 -58 31zM412 1612q-1 76 75 76q33 0 55.5 -21.5t22.5 -52.5q0 -33 -22.5 -55.5t-55.5 -22.5t-54 22.5t-21 53.5zM772 1614q0 31 22.5 53.5 t53.5 22.5q33 0 55.5 -22.5t22.5 -55.5q0 -31 -22.5 -53.5t-53.5 -22.5q-33 0 -55.5 22.5t-22.5 55.5z" />
<glyph unicode="&#xcc;" horiz-adv-x="710" d="M63 16q0 31 43 31q4 0 20.5 -2t31.5 -2q43 -2 61 -2q66 0 86 41q14 25 17 98l4 152l-4 856q-2 72 -17 98q-20 41 -84 41q-16 0 -63 -4q-23 -2 -52 -2q-43 0 -43 27t43 26h7l47 -4q14 0 57 -4q84 -8 121 -8h33q37 0 121 8q43 4 59 4l45 4h8q41 0 41 -24q0 -29 -43 -29 q-25 0 -49 2q-49 4 -66 4q-63 0 -84 -39q-16 -27 -16 -100l-4 -293l4 -715q2 -74 16 -98q20 -41 86 -41q18 0 62 2q14 0 30.5 2t20.5 2q43 0 43 -29q0 -27 -43 -26h-6l-47 4q-16 0 -57 4q-86 8 -121 8h-33q-47 0 -121 -8t-111 -8q-43 0 -43 24zM184 1714q0 25 29 25 q14 0 45 -23l264 -194q20 -14 21 -31q0 -20 -21 -21q-10 0 -30 15l-271 188q-37 27 -37 41z" />
<glyph unicode="&#xcd;" horiz-adv-x="710" d="M63 16q0 31 43 31q4 0 20.5 -2t31.5 -2q43 -2 61 -2q66 0 86 41q14 25 17 98l4 152l-4 856q-2 72 -17 98q-20 41 -84 41q-16 0 -63 -4q-23 -2 -52 -2q-43 0 -43 27t43 26h7l47 -4q14 0 57 -4q84 -8 121 -8h33q37 0 121 8q43 4 59 4l45 4h8q41 0 41 -24q0 -29 -43 -29 q-25 0 -49 2q-49 4 -66 4q-63 0 -84 -39q-16 -27 -16 -100l-4 -293l4 -715q2 -74 16 -98q20 -41 86 -41q18 0 62 2q14 0 30.5 2t20.5 2q43 0 43 -29q0 -27 -43 -26h-6l-47 4q-16 0 -57 4q-86 8 -121 8h-33q-47 0 -121 -8t-111 -8q-43 0 -43 24zM176 1491q0 16 21 31l264 194 q31 23 45 23q29 0 29 -23q0 -16 -39 -43l-269 -188q-20 -14 -30 -15q-20 0 -21 21z" />
<glyph unicode="&#xce;" horiz-adv-x="710" d="M27 1487q0 16 32 37l285 170q8 4 12 4q8 0 33 -15l266 -161q27 -16 27 -31q0 -20 -20 -21q-17 1 -31 11l-271 159l-282 -155q-18 -10 -21 -10q-8 -4 -12 -5q-18 0 -18 17zM63 16q0 31 43 31q4 0 20.5 -2t31.5 -2q43 -2 61 -2q66 0 86 41q14 25 17 98l4 152l-4 856 q-2 72 -17 98q-20 41 -84 41q-16 0 -63 -4q-23 -2 -52 -2q-43 0 -43 27t43 26h7l47 -4q14 0 57 -4q84 -8 121 -8h33q37 0 121 8q43 4 59 4l45 4h8q41 0 41 -24q0 -29 -43 -29q-25 0 -49 2q-49 4 -66 4q-63 0 -84 -39q-16 -27 -16 -100l-4 -293l4 -715q2 -74 16 -98 q20 -41 86 -41q18 0 62 2q14 0 30.5 2t20.5 2q43 0 43 -29q0 -27 -43 -26h-6l-47 4q-16 0 -57 4q-86 8 -121 8h-33q-47 0 -121 -8t-111 -8q-43 0 -43 24z" />
<glyph unicode="&#xcf;" horiz-adv-x="710" d="M63 16q0 31 43 31q4 0 20.5 -2t31.5 -2q43 -2 61 -2q66 0 86 41q14 25 17 98l4 152l-4 856q-2 72 -17 98q-20 41 -84 41q-16 0 -63 -4q-23 -2 -52 -2q-43 0 -43 27t43 26h7l47 -4q14 0 57 -4q84 -8 121 -8h33q37 0 121 8q43 4 59 4l45 4h8q41 0 41 -24q0 -29 -43 -29 q-25 0 -49 2q-49 4 -66 4q-63 0 -84 -39q-16 -27 -16 -100l-4 -293l4 -715q2 -74 16 -98q20 -41 86 -41q18 0 62 2q14 0 30.5 2t20.5 2q43 0 43 -29q0 -27 -43 -26h-6l-47 4q-16 0 -57 4q-86 8 -121 8h-33q-47 0 -121 -8t-111 -8q-43 0 -43 24zM98 1612q0 76 76 76 q33 0 54.5 -21.5t21.5 -52.5q0 -33 -21.5 -55.5t-54.5 -22.5t-54.5 22.5t-21.5 53.5zM459 1614q0 31 22.5 53.5t53.5 22.5q33 0 54 -22.5t21 -55.5q0 -31 -21.5 -53.5t-51.5 -22.5q-33 0 -55.5 22.5t-22.5 55.5z" />
<glyph unicode="&#xd0;" horiz-adv-x="1490" d="M63 16q0 31 43 31q6 0 51.5 -4t63.5 -4q63 0 84 41q14 27 17 98l4 154l-2 344h-70q-18 0 -65.5 -4t-59.5 -4q-47 0 -47 28q0 25 35 25h6l59 -4q10 -2 62 -2h4q25 0 76 2l-2 471q-2 72 -17 98q-20 41 -84 41q-18 0 -56 -3t-56 -3q-45 0 -46 27q0 27 43 26h7l47 -4 q141 -12 166 -12h57q23 0 176 10q92 6 166 6q186 0 300 -40t194 -130q174 -199 174 -526q0 -252 -111 -431t-293 -227q-111 -29 -270 -28q-57 0 -169 8t-167 8h-57q-35 0 -109 -8t-104 -8h-7q-43 0 -43 24zM383 162q0 -84 52 -104.5t272 -20.5q180 0 278 31q143 45 234 176 q111 160 110 420q0 252 -87 413.5t-249 210.5q-125 39 -291 39q-76 0 -112 -4l-109 -12q-51 -6 -68.5 -18.5t-21.5 -45.5q-8 -76 -8 -182v-352h10h10q8 2 13 2l188 6q51 0 51 -25q0 -29 -55 -28q14 0 -82 4l-96 4q-4 0 -12 2h-15h-12v-516z" />
<glyph unicode="&#xd1;" horiz-adv-x="1603" d="M63 18q0 29 46 29q27 0 51 -2q47 -4 63 -4q61 0 84 41q12 27 15 98l4 152v831q-2 98 -11 121q-18 41 -94 41q-31 0 -55 -2q-49 -4 -53 -4h-7q-43 0 -43 24q0 31 43 31q16 0 54 -6q92 -6 108 -6q10 0 27 2h24q43 6 58 6q39 0 63 -43l21 -35l760 -1198q6 -14 16 -14 q8 0 8 22l-4 1084q-2 72 -16 98q-20 41 -84 41q-16 0 -63.5 -4t-51.5 -4q-43 0 -43 29q0 25 43 24h6l47 -2q14 -2 58 -6q61 -6 108 -6h58q49 0 108 6q25 2 59 6l52 2q43 0 43 -24q0 -29 -43 -29q-4 0 -51.5 4t-63.5 4q-63 0 -84 -41q-14 -27 -16 -98l-4 -152v-940 q0 -74 -17 -92q-10 -10 -33 -10q-35 0 -82 76l-770 1224q-8 12 -12 13q-6 0 -6 -21l4 -1104q2 -80 23.5 -109.5t76.5 -29.5q16 0 64 4q25 2 51 2q43 0 43 -27t-43 -26h-6h-21q-14 2 -24 2q-25 2 -59 6q-63 6 -70 6h-133q-4 0 -70 -6q-14 0 -59 -6q-10 0 -25 -2h-20h-9 q-43 0 -43 24zM487 1573q0 12 29 41q63 61 146 61q55 0 143 -28q106 -35 156 -35q72 0 110 39l19 18q8 8 14 8q12 0 12 -10q0 -14 -29 -41q-80 -76 -163 -76q-47 0 -113 21q-55 20 -105 36.5t-83 16.5q-53 0 -99 -45l-10 -10q-12 -8 -14 -8q-12 0 -13 12z" />
<glyph unicode="&#xd2;" horiz-adv-x="1378" d="M100 680q0 322 162 523.5t420 201.5q266 0 432 -199.5t166 -523.5q0 -322 -159.5 -521.5t-418.5 -199.5q-272 0 -437 197.5t-165 521.5zM162 686q0 -309 144 -494.5t384 -185.5q238 0 382.5 185.5t144.5 488.5q0 299 -151 488.5t-388 189.5q-229 0 -372.5 -187.5 t-143.5 -484.5zM520 1714q0 25 27 25q16 0 47 -23l262 -194q23 -16 23 -31q0 -20 -21 -21q-12 0 -33 15l-268 188q-37 27 -37 41z" />
<glyph unicode="&#xd3;" horiz-adv-x="1378" d="M100 680q0 322 162 523.5t420 201.5q266 0 432 -199.5t166 -523.5q0 -322 -159.5 -521.5t-418.5 -199.5q-272 0 -437 197.5t-165 521.5zM162 686q0 -309 144 -494.5t384 -185.5q238 0 382.5 185.5t144.5 488.5q0 299 -151 488.5t-388 189.5q-229 0 -372.5 -187.5 t-143.5 -484.5zM510 1491q0 16 20 31l265 194q31 23 47 23q26 0 26 -23q0 -16 -37 -43l-270 -188q-20 -14 -31 -15q-20 0 -20 21z" />
<glyph unicode="&#xd4;" horiz-adv-x="1378" d="M100 680q0 322 162 523.5t420 201.5q266 0 432 -199.5t166 -523.5q0 -322 -159.5 -521.5t-418.5 -199.5q-272 0 -437 197.5t-165 521.5zM162 686q0 -309 144 -494.5t384 -185.5q238 0 382.5 185.5t144.5 488.5q0 299 -151 488.5t-388 189.5q-229 0 -372.5 -187.5 t-143.5 -484.5zM362 1487q0 18 31 37l287 170q8 4 12 4q8 0 33 -15l266 -161q27 -16 27 -31q0 -20 -21 -21q-16 1 -32 11l-271 159l-280 -155q-8 -4 -18.5 -9.5t-16.5 -5.5q-16 0 -17 17z" />
<glyph unicode="&#xd5;" horiz-adv-x="1378" d="M100 680q0 322 162 523.5t420 201.5q266 0 432 -199.5t166 -523.5q0 -322 -159.5 -521.5t-418.5 -199.5q-272 0 -437 197.5t-165 521.5zM162 686q0 -309 144 -494.5t384 -185.5q238 0 382.5 185.5t144.5 488.5q0 299 -151 488.5t-388 189.5q-229 0 -372.5 -187.5 t-143.5 -484.5zM375 1573q0 10 31 41q63 61 143 61q57 0 145 -28q106 -35 154 -35q70 0 110 39l19 18q8 8 16 8q10 0 11 -10q0 -16 -27 -41q-80 -76 -166 -76q-49 0 -145 35l-9 2q-102 37 -145 37q-55 0 -100 -45l-11 -10q-8 -8 -14 -8q-12 0 -12 12z" />
<glyph unicode="&#xd6;" horiz-adv-x="1378" d="M100 680q0 322 162 523.5t420 201.5q266 0 432 -199.5t166 -523.5q0 -322 -159.5 -521.5t-418.5 -199.5q-272 0 -437 197.5t-165 521.5zM162 686q0 -309 144 -494.5t384 -185.5q238 0 382.5 185.5t144.5 488.5q0 299 -151 488.5t-388 189.5q-229 0 -372.5 -187.5 t-143.5 -484.5zM432 1612q0 33 22.5 54.5t53.5 21.5q33 0 55.5 -21.5t22.5 -52.5q0 -33 -22.5 -55.5t-55.5 -22.5q-31 0 -53.5 22.5t-22.5 53.5zM793 1614q0 31 22 53.5t55 22.5q31 0 53.5 -22.5t22.5 -55.5q0 -31 -21.5 -53.5t-54.5 -22.5t-55 22.5t-22 55.5z" />
<glyph unicode="&#xd7;" horiz-adv-x="1024" d="M180 967l35 34l297 -296l268 270l37 -37l-270 -270l297 -295l-35 -35l-297 295l-266 -266l-37 34l268 269z" />
<glyph unicode="&#xd8;" horiz-adv-x="1378" d="M100 678q0 326 160 526.5t418 200.5q156 0 301 -88l88 174q18 35 39 35q27 0 27 -31q-1 -18 -17 -47l-92 -164q100 -84 158 -190q98 -186 98 -416q0 -324 -161 -520.5t-423 -196.5q-180 0 -323 92l-94 -186q-20 -39 -43 -39q-29 0 -29 31q0 12 6 22l10 21l103 186 q-225 217 -226 590zM164 678q0 -203 80 -383q37 -84 106 -158q12 23 33 56q25 47 125 233l151 279q71 128 261 497l34 68q-117 88 -274 88q-227 0 -358 -172q-158 -207 -158 -508zM393 98q139 -92 297 -92q233 0 380 182.5t147 473.5q0 213 -78 387q-41 92 -142 186 q-16 -29 -41 -72q-14 -25 -110 -213q-14 -31 -148 -274q-104 -199 -278 -529z" />
<glyph unicode="&#xd9;" horiz-adv-x="1527" d="M20 1348q0 27 43 26h7l45 -4q29 0 84 -6t84 -6h59q27 0 83 6t83 6l45 4h6q43 0 43 -24q0 -29 -43 -29q-27 0 -51 2q-49 4 -64 4q-63 0 -84 -39q-16 -27 -16 -100l-4 -291v-428q0 -127 8 -172q16 -84 78 -154q123 -137 336 -137q123 0 229 51q125 57 168 160q27 61 27 205 v475q0 72 -2 139l-4 152q0 78 -22.5 108.5t-80.5 30.5q-14 0 -61 -4q-23 -2 -49 -2q-43 0 -43 27t41 26h8l45 -4q27 0 82 -6t82 -6h61q25 0 166 12l47 4h6q43 0 43 -24q0 -29 -43 -29q-27 0 -51 2q-51 4 -65 4q-61 0 -84 -41q-12 -27 -15 -98l-4 -152v-610 q0 -135 -21.5 -203.5t-82.5 -126.5q-143 -135 -373 -135q-223 0 -367 133q-117 109 -116 340l-4 754q-2 72 -17 98q-20 41 -84 41q-16 0 -63 -4q-23 -2 -52 -2q-43 0 -43 27zM580 1714q-1 25 28 25q14 0 45 -23l265 -194q20 -14 20 -31q0 -20 -20 -21q-10 0 -31 15l-271 188 q-37 27 -36 41z" />
<glyph unicode="&#xda;" horiz-adv-x="1527" d="M20 1348q0 27 43 26h7l45 -4q29 0 84 -6t84 -6h59q27 0 83 6t83 6l45 4h6q43 0 43 -24q0 -29 -43 -29q-27 0 -51 2q-49 4 -64 4q-63 0 -84 -39q-16 -27 -16 -100l-4 -291v-428q0 -127 8 -172q16 -84 78 -154q123 -137 336 -137q123 0 229 51q125 57 168 160q27 61 27 205 v475q0 72 -2 139l-4 152q0 78 -22.5 108.5t-80.5 30.5q-14 0 -61 -4q-23 -2 -49 -2q-43 0 -43 27t41 26h8l45 -4q27 0 82 -6t82 -6h61q25 0 166 12l47 4h6q43 0 43 -24q0 -29 -43 -29q-27 0 -51 2q-51 4 -65 4q-61 0 -84 -41q-12 -27 -15 -98l-4 -152v-610 q0 -135 -21.5 -203.5t-82.5 -126.5q-143 -135 -373 -135q-223 0 -367 133q-117 109 -116 340l-4 754q-2 72 -17 98q-20 41 -84 41q-16 0 -63 -4q-23 -2 -52 -2q-43 0 -43 27zM584 1491q0 14 22 31l262 194q31 23 47 23q27 0 27 -23q0 -16 -37 -43l-270 -188q-20 -14 -31 -15 q-20 0 -20 21z" />
<glyph unicode="&#xdb;" horiz-adv-x="1527" d="M20 1348q0 27 43 26h7l45 -4q29 0 84 -6t84 -6h59q27 0 83 6t83 6l45 4h6q43 0 43 -24q0 -29 -43 -29q-27 0 -51 2q-49 4 -64 4q-63 0 -84 -39q-16 -27 -16 -100l-4 -291v-428q0 -127 8 -172q16 -84 78 -154q123 -137 336 -137q123 0 229 51q125 57 168 160q27 61 27 205 v475q0 72 -2 139l-4 152q0 78 -22.5 108.5t-80.5 30.5q-14 0 -61 -4q-23 -2 -49 -2q-43 0 -43 27t41 26h8l45 -4q27 0 82 -6t82 -6h61q25 0 166 12l47 4h6q43 0 43 -24q0 -29 -43 -29q-27 0 -51 2q-51 4 -65 4q-61 0 -84 -41q-12 -27 -15 -98l-4 -152v-610 q0 -135 -21.5 -203.5t-82.5 -126.5q-143 -135 -373 -135q-223 0 -367 133q-117 109 -116 340l-4 754q-2 72 -17 98q-20 41 -84 41q-16 0 -63 -4q-23 -2 -52 -2q-43 0 -43 27zM436 1487q0 18 31 37l287 170q8 4 12 4q8 0 33 -15l266 -161q27 -16 27 -31q0 -20 -21 -21 q-17 1 -33 11l-270 159l-281 -155q-8 -4 -18 -9.5t-16 -5.5q-16 0 -17 17z" />
<glyph unicode="&#xdc;" horiz-adv-x="1527" d="M20 1348q0 27 43 26h7l45 -4q29 0 84 -6t84 -6h59q27 0 83 6t83 6l45 4h6q43 0 43 -24q0 -29 -43 -29q-27 0 -51 2q-49 4 -64 4q-63 0 -84 -39q-16 -27 -16 -100l-4 -291v-428q0 -127 8 -172q16 -84 78 -154q123 -137 336 -137q123 0 229 51q125 57 168 160q27 61 27 205 v475q0 72 -2 139l-4 152q0 78 -22.5 108.5t-80.5 30.5q-14 0 -61 -4q-23 -2 -49 -2q-43 0 -43 27t41 26h8l45 -4q27 0 82 -6t82 -6h61q25 0 166 12l47 4h6q43 0 43 -24q0 -29 -43 -29q-27 0 -51 2q-51 4 -65 4q-61 0 -84 -41q-12 -27 -15 -98l-4 -152v-610 q0 -135 -21.5 -203.5t-82.5 -126.5q-143 -135 -373 -135q-223 0 -367 133q-117 109 -116 340l-4 754q-2 72 -17 98q-20 41 -84 41q-16 0 -63 -4q-23 -2 -52 -2q-43 0 -43 27zM508 1612q0 76 76 76q33 0 54 -21.5t21 -52.5q0 -33 -21.5 -55.5t-53.5 -22.5q-33 0 -54.5 22.5 t-21.5 53.5zM868 1614q0 31 22.5 53.5t53.5 22.5q33 0 54.5 -22.5t21.5 -55.5q0 -31 -21.5 -53.5t-52.5 -22.5q-33 0 -55.5 22.5t-22.5 55.5z" />
<glyph unicode="&#xdd;" d="M-59 1346q0 27 51 26q14 0 65 -6q68 -8 144 -8q74 0 168 10q57 6 67 6q41 0 41 -26q0 -29 -45 -29q-12 0 -82 4l-76 4q-47 0 -47 -27q0 -4 9 -20l14 -23l358 -591q16 -29 33 -29q14 0 33 29l332 536q45 74 45 90q0 25 -41 27l-31 2h-25q-25 -2 -43 -3t-53 -1 q-66 0 -65 26q0 27 45 27q12 0 81.5 -8t157.5 -8q12 0 90 4q16 0 57.5 5t61.5 5q39 0 39 -27t-51 -26q-4 0 -17 2h-16l-45 4q-33 0 -49.5 -14.5t-54.5 -73.5l-412 -651q-14 -22 -14 -47v-205l4 -152q2 -72 16 -98q20 -41 84 -41q33 0 64 4q16 2 49 2q45 0 45 -27t-43 -26h-8 l-46 4q-16 0 -57 4q-49 4 -72.5 6t-35.5 2h-70q-14 0 -33.5 -1t-63.5 -6t-69 -5l-45 -4h-8q-43 0 -43 24q0 29 45 29q29 0 51.5 -3t61.5 -3q61 0 84.5 29.5t25.5 109.5l4 152l2 211q0 27 -12 47l-399 647q-31 49 -43 61q-27 27 -66 27q-16 0 -48 -2t-48 -2q-51 0 -51 27z M455 1495q0 16 20 30l264 197q31 23 45 22q27 1 27 -24q0 -16 -37 -43l-268 -189q-18 -12 -31 -12q-20 0 -20 19z" />
<glyph unicode="&#xde;" horiz-adv-x="1304" d="M63 16v7v4q8 20 43 20h3h2q2 0 10 -2h4h2q10 0 25 -2h6h2q2 0 4 -2h55q66 0 86 41q14 25 17 98l4 70l-4 856q-2 154 -17 180q-20 41 -84 41q-16 0 -63 -4q-23 -2 -52 -2q-43 0 -43 27t43 26h7l47 -4q14 0 57 -4q84 -8 121 -8h33q37 0 121 8q43 4 59 4l45 4h8q41 0 41 -24 q0 -29 -43 -29q-25 0 -49 2q-49 4 -66 4q-63 0 -84 -39q-16 -27 -16 -182v-35h43q20 0 195 8q90 4 159 4q221 0 338 -104.5t117 -286.5q0 -193 -129 -291q-78 -59 -180 -77q-61 -10 -199 -11h-305q-31 0 -41 -22l2 -111v-12q2 -51 12 -82l4 -4q20 -41 86 -41h50q2 2 6 2 q35 4 53 4h12q4 -2 8 -2q29 -6 29 -27q0 -27 -43 -26h-2h-6l-47 4q-10 0 -23 2h-16q-4 2 -8 2h-8h-2h-7q-29 2 -51 4q-43 4 -63 4h-33q-18 0 -43 -2q-27 -2 -76 -6h-2q-10 0 -18 -2q-45 -4 -74 -6h-29l-10 2l-8 2q-6 2 -8 4l-4 4q-2 6 -3 12zM383 813l2 -420q6 -25 37 -33 q10 -2 78 -2h20q80 0 176 -2h37q244 0 340 80q104 88 105 252q0 176 -113 266q-104 82 -303 82q-104 0 -254 -8q-39 -2 -78 -2q-37 -6 -45 -39v-8z" />
<glyph unicode="&#xdf;" horiz-adv-x="1304" d="M-14 14q0 29 47 29q25 0 74 -6t73 -6q76 0 92.5 24.5t16.5 134.5l2 703q0 68 -74 68l-57 -5q-58 -4 -56 -4q-35 0 -34 25q0 27 36 27q16 0 57.5 -6.5t72.5 -6.5q61 0 73 72q27 168 143.5 263t295.5 95q150 0 238.5 -68.5t88.5 -183.5q0 -188 -254 -266q-100 -31 -100 -88 q0 -53 72 -78q2 -2 114 -26q309 -68 310 -336q0 -176 -122.5 -291t-310.5 -115q-186 0 -297 146v-35l2 -53q0 -41 -22 -41q-29 0 -29 43l2 6l6 71q4 47 5 177q0 29 -2 61l-5 70q0 35 27 35q25 0 25 -35q0 -16 -7 -72q-4 -37 -4 -61q0 -121 78 -192t211 -71q170 0 277.5 97.5 t107.5 251.5q0 250 -307 309q-106 20 -147 50t-41 85q0 51 31.5 81t115.5 58q113 39 160 88t47 127q0 96 -74 155.5t-194 59.5q-135 0 -242 -72.5t-137 -185.5q-29 -104 -29 -264v-780q0 -86 -80 -86q-16 0 -50 4t-52 4q-23 0 -69 -6t-68 -6q-37 0 -37 26z" />
<glyph unicode="&#xe0;" horiz-adv-x="1118" d="M74 250q0 104 65.5 180t173.5 98q74 14 174 21q166 10 240 58t74 149q0 102 -80 164.5t-211 62.5q-137 0 -226 -59.5t-89 -149.5q0 -33 18 -33q4 0 12 9q0 2 4 12q14 35 56 35q61 0 61 -66q0 -35 -27.5 -60.5t-66.5 -25.5q-47 0 -81 36t-34 85q0 111 105.5 184.5 t263.5 73.5q160 0 252 -76q100 -84 100 -262v-395l4 -115q6 -166 107 -166q111 0 110 152v10l-2 90q-2 59 29 60q27 0 27 -41l-3 -82q-6 -229 -163 -230q-147 0 -158 181l-2 36l-2 17l-8 -15q-27 -45 -76 -94q-127 -125 -315 -125q-147 0 -239.5 78t-92.5 203zM131 248 q0 -102 80 -170t203 -68q164 0 277.5 115t113.5 276v199q0 20 -8 21q-2 0 -23 -25q-66 -80 -291 -94q-131 -8 -195.5 -30.5t-107.5 -76.5q-49 -59 -49 -147zM326 1401q-1 24 26 24q16 0 47 -22l263 -197q23 -16 22 -28q0 -20 -20 -21q-14 0 -33 12l-269 189q-37 27 -36 43z " />
<glyph unicode="&#xe1;" horiz-adv-x="1118" d="M74 250q0 104 65.5 180t173.5 98q74 14 174 21q166 10 240 58t74 149q0 102 -80 164.5t-211 62.5q-137 0 -226 -59.5t-89 -149.5q0 -33 18 -33q4 0 12 9q0 2 4 12q14 35 56 35q61 0 61 -66q0 -35 -27.5 -60.5t-66.5 -25.5q-47 0 -81 36t-34 85q0 111 105.5 184.5 t263.5 73.5q160 0 252 -76q100 -84 100 -262v-395l4 -115q6 -166 107 -166q111 0 110 152v10l-2 90q-2 59 29 60q27 0 27 -41l-3 -82q-6 -229 -163 -230q-147 0 -158 181l-2 36l-2 17l-8 -15q-27 -45 -76 -94q-127 -125 -315 -125q-147 0 -239.5 78t-92.5 203zM131 248 q0 -102 80 -170t203 -68q164 0 277.5 115t113.5 276v199q0 20 -8 21q-2 0 -23 -25q-66 -80 -291 -94q-131 -8 -195.5 -30.5t-107.5 -76.5q-49 -59 -49 -147zM360 1176q0 16 21 30l264 197q31 23 45 22q29 1 29 -24q0 -16 -39 -43l-268 -189q-18 -12 -31 -12q-20 0 -21 19z " />
<glyph unicode="&#xe2;" horiz-adv-x="1118" d="M74 250q0 104 65.5 180t173.5 98q74 14 174 21q166 10 240 58t74 149q0 102 -80 164.5t-211 62.5q-137 0 -226 -59.5t-89 -149.5q0 -33 18 -33q4 0 12 9q0 2 4 12q14 35 56 35q61 0 61 -66q0 -35 -27.5 -60.5t-66.5 -25.5q-47 0 -81 36t-34 85q0 111 105.5 184.5 t263.5 73.5q160 0 252 -76q100 -84 100 -262v-395l4 -115q6 -166 107 -166q111 0 110 152v10l-2 90q-2 59 29 60q27 0 27 -41l-3 -82q-6 -229 -163 -230q-147 0 -158 181l-2 36l-2 17l-8 -15q-27 -45 -76 -94q-127 -125 -315 -125q-147 0 -239.5 78t-92.5 203zM131 248 q0 -102 80 -170t203 -68q164 0 277.5 115t113.5 276v199q0 20 -8 21q-2 0 -23 -25q-66 -80 -291 -94q-131 -8 -195.5 -30.5t-107.5 -76.5q-49 -59 -49 -147zM193 1208q0 18 32 37l287 168q4 4 12 4t33 -14l266 -162q27 -16 27 -31q0 -20 -21 -20q-16 0 -32 10l-271 160 l-280 -156q-16 -6 -22.5 -10t-12.5 -4q-18 0 -18 18z" />
<glyph unicode="&#xe3;" horiz-adv-x="1118" d="M74 250q0 104 65.5 180t173.5 98q74 14 174 21q166 10 240 58t74 149q0 102 -80 164.5t-211 62.5q-137 0 -226 -59.5t-89 -149.5q0 -33 18 -33q4 0 12 9q0 2 4 12q14 35 56 35q61 0 61 -66q0 -35 -27.5 -60.5t-66.5 -25.5q-47 0 -81 36t-34 85q0 111 105.5 184.5 t263.5 73.5q160 0 252 -76q100 -84 100 -262v-395l4 -115q6 -166 107 -166q111 0 110 152v10l-2 90q-2 59 29 60q27 0 27 -41l-3 -82q-6 -229 -163 -230q-147 0 -158 181l-2 36l-2 17l-8 -15q-27 -45 -76 -94q-127 -125 -315 -125q-147 0 -239.5 78t-92.5 203zM131 248 q0 -102 80 -170t203 -68q164 0 277.5 115t113.5 276v199q0 20 -8 21q-2 0 -23 -25q-66 -80 -291 -94q-131 -8 -195.5 -30.5t-107.5 -76.5q-49 -59 -49 -147zM207 1239q0 10 29 39q66 63 145 63q53 0 146.5 -31.5t152.5 -31.5q70 0 111 39l18 18q8 8 16 8q10 0 11 -10v-2 q-2 -10 -27 -39q-37 -31 -70 -49q-45 -25 -96 -24q-55 0 -155.5 34.5t-145.5 34.5q-55 0 -98 -43l-11 -10q-6 -8 -14 -8q-12 0 -12 12z" />
<glyph unicode="&#xe4;" horiz-adv-x="1118" d="M74 250q0 104 65.5 180t173.5 98q74 14 174 21q166 10 240 58t74 149q0 102 -80 164.5t-211 62.5q-137 0 -226 -59.5t-89 -149.5q0 -33 18 -33q4 0 12 9q0 2 4 12q14 35 56 35q61 0 61 -66q0 -35 -27.5 -60.5t-66.5 -25.5q-47 0 -81 36t-34 85q0 111 105.5 184.5 t263.5 73.5q160 0 252 -76q100 -84 100 -262v-395l4 -115q6 -166 107 -166q111 0 110 152v10l-2 90q-2 59 29 60q27 0 27 -41l-3 -82q-6 -229 -163 -230q-147 0 -158 181l-2 36l-2 17l-8 -15q-27 -45 -76 -94q-127 -125 -315 -125q-147 0 -239.5 78t-92.5 203zM131 248 q0 -102 80 -170t203 -68q164 0 277.5 115t113.5 276v199q0 20 -8 21q-2 0 -23 -25q-66 -80 -291 -94q-131 -8 -195.5 -30.5t-107.5 -76.5q-49 -59 -49 -147zM254 1278q0 33 22.5 54.5t53.5 21.5q33 0 55.5 -21.5t22.5 -52.5q0 -33 -23 -55.5t-55 -22.5q-31 0 -53.5 22.5 t-22.5 53.5zM614 1280q0 31 22.5 53.5t55.5 22.5q31 0 53.5 -22.5t22.5 -55.5q0 -31 -21.5 -53.5t-54.5 -22.5t-55.5 22.5t-22.5 55.5z" />
<glyph unicode="&#xe5;" horiz-adv-x="1118" d="M74 250q0 104 65.5 180t173.5 98q74 14 174 21q166 10 240 58t74 149q0 102 -80 164.5t-211 62.5q-137 0 -226 -59.5t-89 -149.5q0 -33 18 -33q4 0 12 9q0 2 4 12q14 35 56 35q61 0 61 -66q0 -35 -27.5 -60.5t-66.5 -25.5q-47 0 -81 36t-34 85q0 111 105.5 184.5 t263.5 73.5q160 0 252 -76q100 -84 100 -262v-395l4 -115q6 -166 107 -166q111 0 110 152v10l-2 90q-2 59 29 60q27 0 27 -41l-3 -82q-6 -229 -163 -230q-147 0 -158 181l-2 36l-2 17l-8 -15q-27 -45 -76 -94q-127 -125 -315 -125q-147 0 -239.5 78t-92.5 203zM131 248 q0 -102 80 -170t203 -68q164 0 277.5 115t113.5 276v199q0 20 -8 21q-2 0 -23 -25q-66 -80 -291 -94q-131 -8 -195.5 -30.5t-107.5 -76.5q-49 -59 -49 -147zM338 1323q0 70 49 118t119 48t118 -47t48 -117t-48.5 -119t-117.5 -49q-70 0 -119 49t-49 117zM391 1325 q0 -47 34 -82t81 -35t79.5 34t32.5 81q0 49 -32.5 83t-79.5 34t-81 -34t-34 -81z" />
<glyph unicode="&#xe6;" horiz-adv-x="1826" d="M74 266q0 145 108.5 225t309.5 80h286q35 0 42 13.5t7 72.5q0 326 -317 326q-127 0 -219 -58.5t-92 -138.5q0 -37 16 -36q12 0 23 20q16 33 53 33q66 0 65 -66q0 -35 -27.5 -59.5t-66.5 -24.5q-49 0 -85 36t-36 87q0 104 106.5 176t262.5 72q166 0 259 -75t99 -214 q57 121 125 183q119 106 299 106q190 0 314.5 -125t124.5 -315q0 -47 -25 -56q-16 -6 -55 -6h-725q-33 0 -40 -9t-7 -48q0 -201 112.5 -328t290.5 -127q145 0 250.5 84t126.5 217q6 43 33 43q25 0 24 -32q0 -78 -71 -177q-129 -176 -365 -176q-309 0 -426 305 q-33 -131 -111 -200q-115 -104 -297 -105q-178 0 -275 78t-97 219zM131 262q0 -117 85 -184.5t233 -67.5q376 0 376 465q0 33 -7 40t-40 7h-274q-373 0 -373 -260zM885 598q0 -27 45 -27h712q20 0 26.5 7.5t6.5 23.5q0 53 -24 125q-88 256 -355 256q-254 0 -356 -205 q-55 -111 -55 -176v-4z" />
<glyph unicode="&#xe7;" horiz-adv-x="1044" d="M80 485q0 240 135 389.5t352 149.5q160 0 268.5 -87t108.5 -214q0 -66 -36 -109t-89 -43q-80 0 -80 74q0 61 62 62q27 0 35 -11l12 -14q10 -6 16 -6q29 0 29 57q0 104 -93 177t-227 73q-199 0 -317.5 -135t-118.5 -363q0 -219 114 -347t308 -128q184 0 279 119 q66 84 69 164q2 51 29 51q29 0 29 -39q0 -123 -107 -229.5t-297 -106.5h-10q-6 2 -12 2l-41 -94q57 12 96 12q76 0 123 -36.5t47 -94.5q0 -63 -59.5 -104t-149.5 -41q-119 0 -184 61q-20 18 -21 37q0 20 29 21q16 0 29 -13l12 -16q37 -49 135 -49q66 0 108 30.5t42 75.5 q0 86 -134 86q-41 0 -86 -20q-23 -10 -34 -10q-8 0 -17.5 7t-9.5 15q0 6 12 33l49 104q-186 27 -295.5 164t-109.5 346z" />
<glyph unicode="&#xe8;" horiz-adv-x="1081" d="M80 483q0 240 132 390.5t341 150.5q182 0 307 -130.5t125 -318.5q0 -43 -19.5 -51t-60.5 -8h-725q-29 0 -36 -8t-7 -41q0 -205 111.5 -331t292.5 -126q195 0 305 137q43 53 61 117q0 6 11 51q8 35 30 35q25 0 25 -28q0 -35 -23 -93q-49 -123 -156.5 -191.5t-250.5 -68.5 q-209 0 -336 141.5t-127 372.5zM145 594q0 -31 45 -31h705q35 0 35 33q0 131 -90 250q-104 137 -291 137q-141 0 -242.5 -79t-144.5 -222q-17 -53 -17 -88zM360 1401q0 24 29 24q14 0 45 -22l264 -197q20 -14 21 -28q0 -20 -21 -21q-12 0 -30 12l-271 189q-37 27 -37 43z " />
<glyph unicode="&#xe9;" horiz-adv-x="1081" d="M80 483q0 240 132 390.5t341 150.5q182 0 307 -130.5t125 -318.5q0 -43 -19.5 -51t-60.5 -8h-725q-29 0 -36 -8t-7 -41q0 -205 111.5 -331t292.5 -126q195 0 305 137q43 53 61 117q0 6 11 51q8 35 30 35q25 0 25 -28q0 -35 -23 -93q-49 -123 -156.5 -191.5t-250.5 -68.5 q-209 0 -336 141.5t-127 372.5zM145 594q0 -31 45 -31h705q35 0 35 33q0 131 -90 250q-104 137 -291 137q-141 0 -242.5 -79t-144.5 -222q-17 -53 -17 -88zM362 1176q0 16 21 30l264 197q31 23 45 22q29 1 29 -24q0 -16 -39 -43l-268 -189q-18 -12 -31 -12q-20 0 -21 19z " />
<glyph unicode="&#xea;" horiz-adv-x="1081" d="M80 483q0 240 132 390.5t341 150.5q182 0 307 -130.5t125 -318.5q0 -43 -19.5 -51t-60.5 -8h-725q-29 0 -36 -8t-7 -41q0 -205 111.5 -331t292.5 -126q195 0 305 137q43 53 61 117q0 6 11 51q8 35 30 35q25 0 25 -28q0 -35 -23 -93q-49 -123 -156.5 -191.5t-250.5 -68.5 q-209 0 -336 141.5t-127 372.5zM145 594q0 -31 45 -31h705q35 0 35 33q0 131 -90 250q-104 137 -291 137q-141 0 -242.5 -79t-144.5 -222q-17 -53 -17 -88zM219 1208q0 18 33 37l285 168q4 4 12 4t33 -14l266 -162q27 -16 26 -31q0 -20 -20 -20q-13 0 -31 10l-272 160 l-281 -156q-37 -14 -32 -14q-18 0 -19 18z" />
<glyph unicode="&#xeb;" horiz-adv-x="1081" d="M80 483q0 240 132 390.5t341 150.5q182 0 307 -130.5t125 -318.5q0 -43 -19.5 -51t-60.5 -8h-725q-29 0 -36 -8t-7 -41q0 -205 111.5 -331t292.5 -126q195 0 305 137q43 53 61 117q0 6 11 51q8 35 30 35q25 0 25 -28q0 -35 -23 -93q-49 -123 -156.5 -191.5t-250.5 -68.5 q-209 0 -336 141.5t-127 372.5zM145 594q0 -31 45 -31h705q35 0 35 33q0 131 -90 250q-104 137 -291 137q-141 0 -242.5 -79t-144.5 -222q-17 -53 -17 -88zM291 1278q0 76 76 76q33 0 54 -21.5t21 -52.5q0 -33 -21.5 -55.5t-53.5 -22.5q-33 0 -54.5 22.5t-21.5 53.5z M651 1280q0 31 21.5 53.5t54.5 22.5t54.5 -22.5t21.5 -55.5q0 -31 -21.5 -53.5t-52.5 -22.5q-33 0 -55.5 22.5t-22.5 55.5z" />
<glyph unicode="&#xec;" horiz-adv-x="632" d="M59 14q0 27 45 27h11q14 0 43.5 -2t44.5 -2q78 0 94 49t16 289v321q0 150 0 129q-4 106 -30 123q-16 10 -54 10q-12 0 -67 -4l-56 -4h-6q-41 0 -41 27t35 27h6l62 -7h98q12 0 37 3.5t37 3.5q33 0 33 -48v-581q0 -240 16 -289t94 -49q14 0 43 2t43 2h10q45 0 45 -25 q0 -27 -36 -26q-10 0 -9 0l-71 6l-84 6l-60 2h-39l-57 -2l-86 -6l-72 -6h-6q-39 0 -39 24zM78 1401q-1 24 28 24q14 0 46 -22l264 -197q20 -14 20 -28q0 -20 -20 -21q-12 0 -31 12l-270 189q-37 27 -37 43z" />
<glyph unicode="&#xed;" horiz-adv-x="632" d="M59 14q0 27 45 27h11q14 0 43.5 -2t44.5 -2q78 0 94 49t16 289v321q0 150 0 129q-4 106 -30 123q-16 10 -54 10q-12 0 -67 -4l-56 -4h-6q-41 0 -41 27t35 27h6l62 -7h98q12 0 37 3.5t37 3.5q33 0 33 -48v-581q0 -240 16 -289t94 -49q14 0 43 2t43 2h10q45 0 45 -25 q0 -27 -36 -26q-10 0 -9 0l-71 6l-84 6l-60 2h-39l-57 -2l-86 -6l-72 -6h-6q-39 0 -39 24zM90 1176q0 16 21 30l264 197q31 23 47 22q27 1 27 -24q0 -16 -37 -43l-271 -189q-18 -12 -30 -12q-20 0 -21 19z" />
<glyph unicode="&#xee;" horiz-adv-x="632" d="M27 1208q0 18 26 37l244 168q4 4 10 4q10 0 27 -14l227 -162q23 -16 23 -31q0 -20 -17 -20q-8 0 -28 10l-230 160l-239 -156q-12 -6 -18.5 -10t-10.5 -4q-14 0 -14 18zM59 14q0 27 45 27h11q14 0 43.5 -2t44.5 -2q78 0 94 49t16 289v321q0 150 0 129q-4 106 -30 123 q-16 10 -54 10q-12 0 -67 -4l-56 -4h-6q-41 0 -41 27t35 27h6l62 -7h98q12 0 37 3.5t37 3.5q33 0 33 -48v-581q0 -240 16 -289t94 -49q14 0 43 2t43 2h10q45 0 45 -25q0 -27 -36 -26q-10 0 -9 0l-71 6l-84 6l-60 2h-39l-57 -2l-86 -6l-72 -6h-6q-39 0 -39 24z" />
<glyph unicode="&#xef;" horiz-adv-x="632" d="M59 14q0 27 45 27h11q14 0 43.5 -2t44.5 -2q78 0 94 49t16 289v321q0 150 0 129q-4 106 -30 123q-16 10 -54 10q-12 0 -67 -4l-56 -4h-6q-41 0 -41 27t35 27h6l62 -7h98q12 0 37 3.5t37 3.5q33 0 33 -48v-581q0 -240 16 -289t94 -49q14 0 43 2t43 2h10q45 0 45 -25 q0 -27 -36 -26q-10 0 -9 0l-71 6l-84 6l-60 2h-39l-57 -2l-86 -6l-72 -6h-6q-39 0 -39 24zM70 1278q-1 76 75 76q33 0 54.5 -21.5t21.5 -52.5q0 -33 -21.5 -55.5t-54.5 -22.5t-54 22.5t-21 53.5zM348 1280q0 31 21.5 53.5t54.5 22.5t54.5 -22.5t21.5 -55.5 q0 -31 -21.5 -53.5t-52.5 -22.5q-33 0 -55.5 22.5t-22.5 55.5z" />
<glyph unicode="&#xf0;" horiz-adv-x="1118" d="M80 434q0 193 133 314.5t342 121.5q215 0 348 -125q27 -25 49 -53q-59 264 -260 473q-70 -63 -96 -94q-31 -35 -39 -45q-33 -33 -53 -12q-16 16 8 43l4 4l45 39q8 6 45 41l2 4q23 20 21 35q14 12 26 22q-25 23 -49 45q-78 66 -160 107q-43 20 -43 35q0 16 19 16 q16 0 74 -29q92 -45 174 -114q14 -12 28 -25q18 14 21 16q4 6 8 11l129 137q37 35 53 18q20 -20 -18 -59q6 6 -62 -55l-71 -66q-2 -2 -8 -6l-11 -10q-8 -6 -12 -13q309 -295 309 -712q-2 -2 -4 -2q6 -37 6 -78q0 -197 -134 -321t-349 -124q-209 0 -342 129t-133 332z M137 430q0 -190 115 -306t303 -116t307 112.5t119 291.5q0 188 -118 306t-306 118t-304 -113t-116 -293z" />
<glyph unicode="&#xf1;" horiz-adv-x="1380" d="M59 14q0 27 45 27h11q14 0 42.5 -2t43.5 -2q80 0 96 49t16 289v321q0 147 0 129q-4 106 -30 123q-16 10 -54 10q-12 0 -67 -4l-62 -4q-41 0 -41 27t37 27q14 0 64 -5q25 -2 47 -2h39q12 0 38.5 3.5t39.5 3.5q29 0 36 -14.5t7 -69.5v-111q72 129 182 176q94 39 194 39 q147 0 241.5 -64.5t119.5 -181.5q16 -80 16 -252v-151q0 -240 16.5 -289t94.5 -49q14 0 44 2t44 2h10q45 0 45 -25q0 -27 -39 -26h-6l-72 6l-86 6l-57 2h-39l-59 -2l-84 -6l-72 -6h-8q-37 0 -37 24q0 27 45 27h8q14 0 44 -2t44 -2q80 0 95.5 48t15.5 290v153q0 260 -57 340 q-82 115 -275 115q-236 0 -329 -186q-39 -76 -39 -244v-178q0 -240 16 -289t94 -49q14 0 43 2t43 2h10q45 0 45 -25q0 -27 -36 -26q-10 0 -9 0l-71 6l-84 6l-62 2h-37l-57 -2l-86 -6l-72 -6h-6q-39 0 -39 24zM389 1239q0 10 29 39q66 63 145 63q53 0 146.5 -31.5 t152.5 -31.5q72 0 111 39l18 18q8 8 17 8q10 0 10 -10v-2q-8 -39 -96 -88q-45 -25 -97 -24q-55 0 -155.5 34.5t-145.5 34.5q-55 0 -98 -43l-10 -10q-8 -8 -15 -8q-12 0 -12 12z" />
<glyph unicode="&#xf2;" horiz-adv-x="1118" d="M80 510q0 227 133 370.5t342 143.5q215 0 349 -147.5t134 -384.5q0 -231 -134 -377t-349 -146q-209 0 -342 151.5t-133 389.5zM137 506q0 -223 115 -359.5t303 -136.5t307 132t119 343q0 221 -118 359.5t-306 138.5t-304 -132t-116 -345zM379 1401q0 24 29 24 q14 0 45 -22l264 -197q20 -14 20 -28q0 -20 -20 -21q-12 0 -31 12l-270 189q-37 27 -37 43z" />
<glyph unicode="&#xf3;" horiz-adv-x="1118" d="M80 510q0 227 133 370.5t342 143.5q215 0 349 -147.5t134 -384.5q0 -231 -134 -377t-349 -146q-209 0 -342 151.5t-133 389.5zM137 506q0 -223 115 -359.5t303 -136.5t307 132t119 343q0 221 -118 359.5t-306 138.5t-304 -132t-116 -345zM360 1176q0 16 21 30l264 197 q31 23 45 22q29 1 29 -24q0 -16 -39 -43l-268 -189q-18 -12 -31 -12q-20 0 -21 19z" />
<glyph unicode="&#xf4;" horiz-adv-x="1118" d="M80 510q0 227 133 370.5t342 143.5q215 0 349 -147.5t134 -384.5q0 -231 -134 -377t-349 -146q-209 0 -342 151.5t-133 389.5zM137 506q0 -223 115 -359.5t303 -136.5t307 132t119 343q0 221 -118 359.5t-306 138.5t-304 -132t-116 -345zM231 1208q0 18 33 37l285 168 q4 4 12 4t33 -14l266 -162q27 -16 27 -31q0 -20 -21 -20q-12 0 -30 10l-273 160l-280 -156q-37 -14 -33 -14q-18 0 -19 18z" />
<glyph unicode="&#xf5;" horiz-adv-x="1118" d="M80 510q0 227 133 370.5t342 143.5q215 0 349 -147.5t134 -384.5q0 -231 -134 -377t-349 -146q-209 0 -342 151.5t-133 389.5zM137 506q0 -223 115 -359.5t303 -136.5t307 132t119 343q0 221 -118 359.5t-306 138.5t-304 -132t-116 -345zM244 1239q0 8 30 39 q63 63 144 63q55 0 148 -31.5t151 -31.5q70 0 110 39l19 18q8 8 16 8q10 0 10 -10v-2q0 -12 -26 -39q-45 -39 -78 -53q-37 -20 -88 -20q-53 0 -153.5 34.5t-145.5 34.5q-57 0 -98 -43l-13 -10q-6 -8 -14 -8q-12 0 -12 12z" />
<glyph unicode="&#xf6;" horiz-adv-x="1118" d="M80 510q0 227 133 370.5t342 143.5q215 0 349 -147.5t134 -384.5q0 -231 -134 -377t-349 -146q-209 0 -342 151.5t-133 389.5zM137 506q0 -223 115 -359.5t303 -136.5t307 132t119 343q0 221 -118 359.5t-306 138.5t-304 -132t-116 -345zM301 1278q0 33 22.5 54.5 t55.5 21.5t54.5 -21.5t21.5 -52.5q0 -33 -21.5 -55.5t-54.5 -22.5t-55.5 22.5t-22.5 53.5zM662 1280q0 31 22 53.5t55 22.5t54.5 -22.5t21.5 -55.5q0 -31 -21.5 -53.5t-52.5 -22.5q-33 0 -56 22.5t-23 55.5z" />
<glyph unicode="&#xf7;" horiz-adv-x="1024" d="M68 645v49h888v-49h-888zM453 276q0 59 59 60q57 0 57 -60q0 -57 -57 -57q-59 0 -59 57zM453 1063q0 59 59 59q57 0 57 -59q0 -57 -57 -57q-59 0 -59 57z" />
<glyph unicode="&#xf8;" horiz-adv-x="1118" d="M80 502q0 236 131 379t344 143q94 0 213 -43l78 149q16 31 37 31q29 0 28 -28q0 -14 -14 -39l-84 -140q90 -66 139 -143q86 -139 86 -315q0 -236 -134 -381.5t-351 -145.5q-111 0 -231 60l-64 -129q-23 -47 -47 -47q-29 0 -29 26q0 18 13 41l79 141q-195 170 -194 441z M137 510q0 -137 51 -256q33 -78 107 -152l31 52l92 172l106 192l199 377l22 45q-94 43 -182 43q-193 0 -309.5 -130t-116.5 -343zM344 68q104 -57 207 -58q195 0 312.5 132t117.5 350q0 158 -70 286q-37 70 -118 133l-35 -63l-385 -721z" />
<glyph unicode="&#xf9;" horiz-adv-x="1304" d="M4 979q0 25 31 25h6l57 -7h119l21 2l32 5q37 0 37 -76v-13q-2 -16 -2 -47v-475q0 -109 10 -157q14 -82 68 -138q84 -88 242 -88q209 0 297 146q63 104 63 311v231q0 207 -15.5 235t-66.5 28q-31 0 -67 -5l-60 -6q-39 0 -39 27t33 27h6l55 -7h103q31 0 43 3.5t27 3.5 q39 0 38 -82q0 -29 -2 -41v-62q-2 -57 -2 -108v-414q0 -207 14.5 -234.5t67.5 -27.5q6 0 66 6q41 4 63 4q39 0 39 -27t-37 -26h-4l-59 4l-47 2h-25q-6 0 -20 -2h-25q-14 -2 -35 -2q-31 0 -41 17.5t-10 68.5v26v78q-37 -72 -84 -114q-111 -100 -278 -101q-201 0 -295 113 q-51 61 -68 149q-8 51 -8 168v299q0 184 -12.5 223.5t-71.5 39.5q-29 0 -66 -5q-53 -6 -59 -6q-39 0 -39 29zM412 1401q-1 24 26 24q16 0 47 -22l263 -197q23 -16 22 -28q0 -20 -20 -21q-14 0 -33 12l-268 189q-37 27 -37 43z" />
<glyph unicode="&#xfa;" horiz-adv-x="1304" d="M4 979q0 25 31 25h6l57 -7h119l21 2l32 5q37 0 37 -76v-13q-2 -16 -2 -47v-475q0 -109 10 -157q14 -82 68 -138q84 -88 242 -88q209 0 297 146q63 104 63 311v231q0 207 -15.5 235t-66.5 28q-31 0 -67 -5l-60 -6q-39 0 -39 27t33 27h6l55 -7h103q31 0 43 3.5t27 3.5 q39 0 38 -82q0 -29 -2 -41v-62q-2 -57 -2 -108v-414q0 -207 14.5 -234.5t67.5 -27.5q6 0 66 6q41 4 63 4q39 0 39 -27t-37 -26h-4l-59 4l-47 2h-25q-6 0 -20 -2h-25q-14 -2 -35 -2q-31 0 -41 17.5t-10 68.5v26v78q-37 -72 -84 -114q-111 -100 -278 -101q-201 0 -295 113 q-51 61 -68 149q-8 51 -8 168v299q0 184 -12.5 223.5t-71.5 39.5q-29 0 -66 -5q-53 -6 -59 -6q-39 0 -39 29zM461 1176q0 16 20 30l264 197q31 23 46 22q26 1 26 -24q0 -16 -37 -43l-268 -189q-18 -12 -31 -12q-20 0 -20 19z" />
<glyph unicode="&#xfb;" horiz-adv-x="1304" d="M4 979q0 25 31 25h6l57 -7h119l21 2l32 5q37 0 37 -76v-13q-2 -16 -2 -47v-475q0 -109 10 -157q14 -82 68 -138q84 -88 242 -88q209 0 297 146q63 104 63 311v231q0 207 -15.5 235t-66.5 28q-31 0 -67 -5l-60 -6q-39 0 -39 27t33 27h6l55 -7h103q31 0 43 3.5t27 3.5 q39 0 38 -82q0 -29 -2 -41v-62q-2 -57 -2 -108v-414q0 -207 14.5 -234.5t67.5 -27.5q6 0 66 6q41 4 63 4q39 0 39 -27t-37 -26h-4l-59 4l-47 2h-25q-6 0 -20 -2h-25q-14 -2 -35 -2q-31 0 -41 17.5t-10 68.5v26v78q-37 -72 -84 -114q-111 -100 -278 -101q-201 0 -295 113 q-51 61 -68 149q-8 51 -8 168v299q0 184 -12.5 223.5t-71.5 39.5q-29 0 -66 -5q-53 -6 -59 -6q-39 0 -39 29zM291 1208q0 14 31 37l286 168q4 4 13 4q8 0 32 -14l267 -162q27 -16 26 -31q0 -20 -20 -20q-6 0 -33 10l-270 160l-281 -156q-37 -14 -35 -14q-16 0 -16 18z" />
<glyph unicode="&#xfc;" horiz-adv-x="1304" d="M4 979q0 25 31 25h6l57 -7h119l21 2l32 5q37 0 37 -76v-13q-2 -16 -2 -47v-475q0 -109 10 -157q14 -82 68 -138q84 -88 242 -88q209 0 297 146q63 104 63 311v231q0 207 -15.5 235t-66.5 28q-31 0 -67 -5l-60 -6q-39 0 -39 27t33 27h6l55 -7h103q31 0 43 3.5t27 3.5 q39 0 38 -82q0 -29 -2 -41v-62q-2 -57 -2 -108v-414q0 -207 14.5 -234.5t67.5 -27.5q6 0 66 6q41 4 63 4q39 0 39 -27t-37 -26h-4l-59 4l-47 2h-25q-6 0 -20 -2h-25q-14 -2 -35 -2q-31 0 -41 17.5t-10 68.5v26v78q-37 -72 -84 -114q-111 -100 -278 -101q-201 0 -295 113 q-51 61 -68 149q-8 51 -8 168v299q0 184 -12.5 223.5t-71.5 39.5q-29 0 -66 -5q-53 -6 -59 -6q-39 0 -39 29zM340 1278q0 33 22.5 54.5t55.5 21.5q31 0 53.5 -21.5t22.5 -52.5q0 -33 -22.5 -55.5t-53.5 -22.5q-33 0 -55.5 22.5t-22.5 53.5zM700 1280q0 31 22.5 53.5 t55.5 22.5t54.5 -22.5t21.5 -55.5q0 -31 -21.5 -53.5t-52.5 -22.5q-33 0 -56.5 22.5t-23.5 55.5z" />
<glyph unicode="&#xfd;" horiz-adv-x="1155" d="M-59 -190q0 43 29.5 75.5t68.5 32.5q29 0 50.5 -20.5t21.5 -49.5q0 -63 -68 -63q-12 0 -25 6q-4 0 -8 2q-12 0 -12 -20q0 -47 62.5 -87t138.5 -40q193 0 301 213q35 68 35 98q0 18 -15 55l-315 797q-33 84 -45 100q-31 43 -90 43q-14 0 -23 -2h-20q-41 0 -41 25 q0 29 41 29q-6 0 55 -5q37 -6 133 -6q47 0 133 6q57 4 82 5q51 0 51 -29q0 -25 -45 -25h-6l-55 4q-29 2 -56 2q-82 0 -81 -38q0 -14 8 -39l20 -64l291 -745q10 -27 16 -27t17 27l330 809q8 23 8 30q0 45 -84 45q-20 0 -59.5 -3t-57.5 -3q-41 0 -41 27q0 29 39 29q-2 0 59 -5 q10 -4 64 -6l78 -4q92 0 153 10q53 4 58 5q37 0 37 -25q0 -29 -50 -29h-30q-8 2 -25 2q-37 0 -52.5 -15t-33.5 -58l-39 -91l-344 -827q-55 -131 -131 -229q-100 -127 -270 -127q-111 0 -184.5 58t-73.5 147zM379 1131q0 16 20 30l264 197q31 23 45 22q27 1 27 -24 q0 -16 -37 -43l-268 -189q-18 -12 -31 -12q-20 0 -20 19z" />
<glyph unicode="&#xfe;" horiz-adv-x="1191" d="M6 -371q0 27 45 27q4 0 10 -2q14 0 44 -2t45 -2q78 0 94 49t16 289v708q0 150 0 129q-4 477 -31 494q-16 10 -53 10q-12 0 -67 -4l-62 -4q-41 0 -41 27t35 26h6l59 -4l48 -2h24q16 0 48 3t48 3q41 0 41 -43q0 -12 -2 -20v-518q111 231 367 231q199 0 315.5 -137 t116.5 -373q0 -244 -126 -394.5t-331 -150.5q-238 0 -342 195v-172q0 -242 16.5 -292t94.5 -50q14 0 43 2t43 2q4 2 12 2q43 0 43 -27q0 -25 -39 -24h-6l-71 6l-142 6h-41l-57 -2l-86 -4l-72 -6h-6q-39 0 -39 24zM309 508q0 -152 6 -199q14 -111 74 -178q105 -121 273 -121 q180 0 286.5 133t106.5 357q0 231 -97.5 357t-277.5 126q-170 0 -270 -117q-59 -68 -80 -142.5t-21 -215.5z" />
<glyph unicode="&#xff;" horiz-adv-x="1155" d="M-59 -190q0 43 29.5 75.5t68.5 32.5q29 0 50.5 -20.5t21.5 -49.5q0 -63 -68 -63q-12 0 -25 6q-4 0 -8 2q-12 0 -12 -20q0 -47 62.5 -87t138.5 -40q193 0 301 213q35 68 35 98q0 18 -15 55l-315 797q-33 84 -45 100q-31 43 -90 43q-14 0 -23 -2h-20q-41 0 -41 25 q0 29 41 29q-6 0 55 -5q37 -6 133 -6q47 0 133 6q57 4 82 5q51 0 51 -29q0 -25 -45 -25h-6l-55 4q-29 2 -56 2q-82 0 -81 -38q0 -14 8 -39l20 -64l291 -745q10 -27 16 -27t17 27l330 809q8 23 8 30q0 45 -84 45q-20 0 -59.5 -3t-57.5 -3q-41 0 -41 27q0 29 39 29q-2 0 59 -5 q10 -4 64 -6l78 -4q92 0 153 10q53 4 58 5q37 0 37 -25q0 -29 -50 -29h-30q-8 2 -25 2q-37 0 -52.5 -15t-33.5 -58l-39 -91l-344 -827q-55 -131 -131 -229q-100 -127 -270 -127q-111 0 -184.5 58t-73.5 147zM328 1278q-1 76 75 76q33 0 55.5 -21.5t22.5 -52.5 q0 -33 -22.5 -55.5t-55.5 -22.5q-31 0 -53 22.5t-22 53.5zM688 1280q0 31 22.5 53.5t53.5 22.5q33 0 55.5 -22.5t22.5 -55.5q0 -31 -22.5 -53.5t-53.5 -22.5q-33 0 -55.5 22.5t-22.5 55.5z" />
<glyph unicode="&#x152;" horiz-adv-x="2273" d="M98 668q0 324 167 530.5t429 206.5q242 0 402 -191q76 -90 129 -243v90q0 16 -6 145q-2 16 -9 80v19q0 61 99 61q23 0 22 0q98 -4 107 -4h362q37 0 111 5t110 5q63 0 72 -26q2 -10 2 -33v-13q-6 -113 -6 -163q0 -119 8 -246q2 -2 2 -8q0 -61 -33 -62q-31 0 -30 64 q0 8 2 14q0 -23 4 107l4 129v24q0 115 -29.5 138.5t-171.5 23.5h-442q-86 0 -105.5 -28.5t-19.5 -153.5v-320q0 -63 14.5 -76.5t79.5 -13.5h232q135 0 135 111q0 20 -2 62t-2 63l-2 4q0 66 28 65q29 0 29 -55v-8l-10 -117q-6 -70 -6 -152q0 -63 6 -143l12 -170 q0 -63 -31 -63t-30 61q0 20 6 96q2 25 2 68q0 78 -30 107.5t-105 29.5h-240q-63 0 -78 -16q-8 -8 -8 -33v-502q0 -61 11 -75.5t59 -16.5l75 -2h385q184 0 225.5 33t41.5 178q0 2 -4.5 93t-4.5 89q0 61 31 62q27 0 27 -54v-10q0 -25 -4 -86q-6 -96 -6 -121v-77q2 -20 2 -56 q0 -57 -25 -78.5t-88 -21.5h-16l-58 2l-84 6h-471q-16 0 -51 -3t-51 -3q-61 0 -62 57v25q8 72 11 311q-43 -129 -103 -209q-164 -219 -440 -219q-258 0 -419 195.5t-161 511.5zM162 668q0 -297 143 -479.5t379 -182.5q238 0 382 187.5t144 496.5q0 276 -137 472t-379 196 q-250 0 -391 -205t-141 -485z" />
<glyph unicode="&#x153;" horiz-adv-x="1976" d="M80 494q0 233 133 381.5t344 148.5q205 0 334 -135q68 -70 115 -209q41 127 98 194q129 150 348 150q182 0 306 -124t124 -306q0 -57 -22 -68q-12 -6 -35 -6h-752q-45 0 -45 -37q0 -215 110.5 -344t297.5 -129q147 0 251.5 85t122.5 218q6 43 31 43q27 0 27 -32 q0 -82 -72 -183q-121 -172 -358 -172q-236 0 -355 164q-47 66 -82 178q-41 -104 -77 -157q-131 -184 -367 -185q-213 0 -345 145.5t-132 379.5zM137 485q0 -213 116 -344t304 -131t305 138.5t117 361.5q0 213 -115.5 343t-302.5 130q-193 0 -308.5 -136t-115.5 -362z M1036 598q0 -31 45 -31l713 2q20 2 24.5 6.5t4.5 24.5q0 164 -107.5 273.5t-267.5 109.5q-166 0 -289 -115.5t-123 -269.5z" />
<glyph unicode="&#x178;" d="M-59 1346q0 27 51 26q14 0 65 -6q68 -8 144 -8q74 0 168 10q57 6 67 6q41 0 41 -26q0 -29 -45 -29q-12 0 -82 4l-76 4q-47 0 -47 -27q0 -4 9 -20l14 -23l358 -591q16 -29 33 -29q14 0 33 29l332 536q45 74 45 90q0 25 -41 27l-31 2h-25q-25 -2 -43 -3t-53 -1 q-66 0 -65 26q0 27 45 27q12 0 81.5 -8t157.5 -8q12 0 90 4q16 0 57.5 5t61.5 5q39 0 39 -27t-51 -26q-4 0 -17 2h-16l-45 4q-33 0 -49.5 -14.5t-54.5 -73.5l-412 -651q-14 -22 -14 -47v-205l4 -152q2 -72 16 -98q20 -41 84 -41q33 0 64 4q16 2 49 2q45 0 45 -27t-43 -26h-8 l-46 4q-16 0 -57 4q-49 4 -72.5 6t-35.5 2h-70q-14 0 -33.5 -1t-63.5 -6t-69 -5l-45 -4h-8q-43 0 -43 24q0 29 45 29q29 0 51.5 -3t61.5 -3q61 0 84.5 29.5t25.5 109.5l4 152l2 211q0 27 -12 47l-399 647q-31 49 -43 61q-27 27 -66 27q-16 0 -48 -2t-48 -2q-51 0 -51 27z M377 1612q0 76 76 76q33 0 55 -21.5t22 -52.5q0 -33 -22.5 -55.5t-54.5 -22.5q-31 0 -53.5 22.5t-22.5 53.5zM737 1614q0 31 22.5 53.5t53.5 22.5q33 0 55.5 -22.5t22.5 -55.5q0 -31 -22.5 -53.5t-53.5 -22.5q-33 0 -55.5 22.5t-22.5 55.5z" />
<glyph unicode="&#x2c6;" horiz-adv-x="1005" d="M176 1208q0 18 31 37l287 168q4 4 12 4t33 -14l266 -162q27 -16 26 -31q0 -20 -20 -20q-6 0 -33 10l-270 160l-281 -156q-16 -6 -22 -10t-12 -4q-16 0 -17 18z" />
<glyph unicode="&#x2dc;" horiz-adv-x="1007" d="M188 1239q0 8 31 39q66 63 143 63q53 0 146.5 -31.5t153.5 -31.5q70 0 110 39l19 18q8 8 16 8q10 0 10 -10v-2q-2 -14 -26 -39q-88 -74 -166 -73q-53 0 -153.5 34.5t-145.5 34.5q-57 0 -101 -43l-10 -10q-6 -8 -14 -8q-12 0 -13 12z" />
<glyph unicode="&#x2000;" horiz-adv-x="910" />
<glyph unicode="&#x2001;" horiz-adv-x="1821" />
<glyph unicode="&#x2002;" horiz-adv-x="910" />
<glyph unicode="&#x2003;" horiz-adv-x="1821" />
<glyph unicode="&#x2004;" horiz-adv-x="607" />
<glyph unicode="&#x2005;" horiz-adv-x="455" />
<glyph unicode="&#x2006;" horiz-adv-x="303" />
<glyph unicode="&#x2007;" horiz-adv-x="303" />
<glyph unicode="&#x2008;" horiz-adv-x="227" />
<glyph unicode="&#x2009;" horiz-adv-x="364" />
<glyph unicode="&#x200a;" horiz-adv-x="101" />
<glyph unicode="&#x2010;" horiz-adv-x="782" d="M74 530q0 31 57 31h518q60 0 60 -33q0 -31 -60 -30h-522q-53 0 -53 32z" />
<glyph unicode="&#x2011;" horiz-adv-x="782" d="M74 530q0 31 57 31h518q60 0 60 -33q0 -31 -60 -30h-522q-53 0 -53 32z" />
<glyph unicode="&#x2012;" horiz-adv-x="782" d="M74 530q0 31 57 31h518q60 0 60 -33q0 -31 -60 -30h-522q-53 0 -53 32z" />
<glyph unicode="&#x2013;" horiz-adv-x="1024" d="M68 645v49h888v-49h-888z" />
<glyph unicode="&#x2014;" horiz-adv-x="1527" d="M63 532q0 33 60 33h1278q63 0 63 -35q0 -33 -63 -32h-1282q-55 0 -56 34z" />
<glyph unicode="&#x2018;" horiz-adv-x="485" d="M129 1006q0 178 119 350q35 49 47 49q29 0 29 -23q0 -4 -11 -20l-43 -57q-84 -113 -84 -234q0 -70 35 -70q8 0 27.5 5.5t25.5 5.5q35 0 58.5 -25.5t23.5 -62.5q0 -43 -29.5 -72t-72.5 -29q-125 0 -125 183z" />
<glyph unicode="&#x2019;" horiz-adv-x="485" d="M129 1305q0 43 28.5 71.5t73.5 28.5q125 0 125 -182q0 -174 -118 -351q-34 -49 -48 -49q-29 0 -28 23q0 6 10 20q4 8 43 60q82 109 82 233q0 68 -33 68q-4 0 -28 -4q-10 -4 -27 -4q-33 0 -56.5 25.5t-23.5 60.5z" />
<glyph unicode="&#x201a;" horiz-adv-x="485" d="M129 61q0 43 28.5 72t73.5 29q125 0 125 -182q0 -180 -118 -351q-36 -51 -48 -51q-29 0 -28 25q0 6 9 18t44 60q82 111 82 235q0 66 -33 66q-16 0 -28 -5q-20 -4 -27 -4q-33 0 -56.5 27t-23.5 61z" />
<glyph unicode="&#x201c;" horiz-adv-x="819" d="M129 1006q0 176 119 350q33 49 47 49q29 0 29 -23q0 -4 -10.5 -18t-43.5 -59q-84 -115 -84 -236q0 -68 35 -68q10 0 29.5 5.5t25.5 5.5q33 0 56.5 -25.5t23.5 -62.5q0 -43 -29.5 -72t-72.5 -29q-125 0 -125 183zM465 1006q0 176 119 350q33 49 47 49q31 0 31 -23 q0 -4 -10.5 -19t-43.5 -58q-84 -113 -84 -236q0 -68 33 -68q10 0 29.5 5.5t25.5 5.5q33 0 56.5 -25.5t23.5 -62.5q0 -43 -29.5 -72t-72.5 -29q-125 0 -125 183z" />
<glyph unicode="&#x201d;" horiz-adv-x="819" d="M129 1305q0 43 28.5 71.5t73.5 28.5q125 0 125 -182q0 -180 -123 -357q-31 -43 -43 -43q-29 0 -28 23q0 6 10 20q2 2 43 60q82 111 82 233q0 68 -33 68q-4 0 -28 -4q-10 -4 -27 -4q-33 0 -56.5 25.5t-23.5 60.5zM463 1305q0 43 29.5 71.5t72.5 28.5q127 0 127 -182 q0 -180 -123 -357q-31 -43 -43 -43q-31 0 -30 23q0 2 12 21.5t41 58.5q84 115 84 233q0 68 -33 68q-4 0 -29 -4q-10 -4 -26 -4q-33 0 -57.5 25.5t-24.5 60.5z" />
<glyph unicode="&#x201e;" horiz-adv-x="819" d="M129 61q0 43 28.5 72t73.5 29q125 0 125 -182t-118 -351q-38 -51 -48 -51q-29 0 -28 25q0 6 9 18t44 60q82 115 82 235q0 66 -33 66q-16 0 -28 -5q-20 -4 -27 -4q-33 0 -56.5 27t-23.5 61zM463 61q0 43 29.5 72t72.5 29q127 0 127 -182q0 -180 -119 -351q-35 -51 -49 -51 q-29 0 -28 25q2 6 12 20q2 2 41 58q84 117 84 235q0 66 -35 66q-14 0 -27 -5q-20 -4 -26 -4q-33 0 -57.5 27t-24.5 61z" />
<glyph unicode="&#x2022;" horiz-adv-x="1366" d="M401 696q0 119 83 203t200 84q115 0 198 -84t83 -203t-83 -202.5t-198 -83.5q-117 0 -200 83.5t-83 202.5z" />
<glyph unicode="&#x2026;" horiz-adv-x="1341" d="M125 74q0 39 27.5 66.5t68.5 27.5t71 -27.5t30 -66.5q0 -41 -29 -69t-70 -28t-69.5 29t-28.5 68zM573 74q0 41 28 67.5t69 26.5t69.5 -27.5t28.5 -66.5t-27.5 -68t-68.5 -29t-70 28t-29 69zM1020 74q0 41 27.5 67.5t68.5 26.5t69.5 -27.5t28.5 -66.5t-27.5 -68t-68.5 -29 t-69.5 28t-28.5 69z" />
<glyph unicode="&#x202f;" horiz-adv-x="364" />
<glyph unicode="&#x2039;" horiz-adv-x="483" d="M94 530q0 10 15 35l188 316q18 31 33 30q23 0 22 -20q0 -6 -10 -31l-164 -295q-12 -23 -12 -35q0 -14 12 -36l164 -293q10 -25 10 -33q0 -20 -22 -21q-14 0 -33 31l-188 316q-14 25 -15 36z" />
<glyph unicode="&#x203a;" horiz-adv-x="483" d="M131 168q0 10 12 33l164 293q10 24 10 36q0 16 -10 35l-164 295q-12 23 -12 31q0 20 23 20q16 0 34 -30l189 -316q14 -25 14 -35q0 -12 -14 -36l-189 -316q-18 -31 -34 -31q-23 0 -23 21z" />
<glyph unicode="&#x205f;" horiz-adv-x="455" />
<glyph unicode="&#x20ac;" d="M6 590q0 25 45 24h92q-2 20 -2 70q0 33 4 92h-88q-51 0 -51 29q0 25 45 24h99q35 279 177 427.5t375 148.5q279 0 394 -264v33l-4 61v55l-2 6q0 59 30 60q25 0 25 -33l-15 -264q0 -57 5.5 -108.5t5.5 -53.5q0 -37 -27 -37q-31 0 -31 47q0 23 2 41q4 20 5 41 q0 147 -109 259t-281 112q-207 0 -332.5 -136.5t-156.5 -394.5h377q59 0 59 -26q0 -27 -63 -27h-377q-4 -59 -4 -96q0 -45 2 -66h383q59 0 59 -26q0 -27 -63 -27h-377q49 -555 498 -555q195 0 303 107.5t118 310.5q2 82 29 82q31 0 31 -41q0 -229 -133 -366.5t-357 -137.5 q-242 0 -383 154.5t-166 445.5h-90q-51 0 -51 29z" />
<glyph unicode="&#x2122;" horiz-adv-x="1787" d="M53 1092v4l4 63v131l-2 45q-2 35 45 35q27 0 60 -2q100 -6 258 -6h41q26 2 28 2l162 2q39 0 39 -33q0 -12 -2 -57t-2 -86q0 -37 2 -47q2 -33 2 -56q0 -33 -22 -32q-25 0 -25 32q0 8 6 70q0 4 2 35v53q0 53 -10 67.5t-64 14.5h-145q-27 0 -32 -5t-5 -38l2 -590 q0 -41 6 -51q10 -20 43 -20q23 0 35 2q6 0 17 2h12q31 0 31 -23t-31 -22l-10 2h-19q-12 2 -32.5 4t-38.5 2q-8 2 -23 2h-31q-14 0 -22 -2q-18 0 -39 -2q-41 -4 -57 -4l-5 -2q-31 0 -30 20q0 25 30 25h13q10 -2 19 -3t32 -1q47 0 49 71l2 84v506q0 33 -3 38t-38 5h-135 q-57 0 -66.5 -21.5t-9.5 -119.5v-31l4 -65q0 -35 -22 -35q-23 0 -23 37zM756 602q0 25 32 25h13q10 -2 18 -3t31 -1q33 0 42 18t9 53l2 84l-2 496q-2 57 -41 57q-10 0 -35 -4h-20q-12 -2 -17 -2q-33 0 -32 23q0 23 30 22q2 0 16.5 -2t28.5 -2h43h39q12 0 35 2q33 0 47 -41 l252 -686l258 682q16 43 43 43h4l45 -2q8 -2 29 -2q14 0 43 2t43 2q31 0 31 -20q0 -23 -31 -23q-6 0 -35 4q-6 0 -18 2h-17q-45 0 -45 -53v-4q0 -20 -2 -86v-94l2 -398q0 -41 9 -53q8 -18 43 -18q20 0 32 2q6 0 17 2h12q33 0 33 -23t-31 -22l-10 2h-21l-32 4l-39 2l-21 2 h-33l-20 -2l-39 -2l-33 -4h-20l-10 -2q-31 0 -31 20q0 25 33 25h10q10 -2 19.5 -3t31.5 -1q47 0 49 71l4 162v457l-264 -686q-14 -39 -39 -39q-27 0 -41 39l-258 694l2 -627q0 -27 17 -63q10 -8 34 -8q23 0 31 1t19 3h12q33 0 33 -23t-33 -22l-10 2h-19l-33 4l-38 2l-21 2 h-33l-20 -2l-39 -2l-33 -4h-20q-10 -2 -11 -2q-31 0 -30 20z" />
<glyph unicode="&#x25fc;" horiz-adv-x="1003" d="M0 0v1004h1004v-1004h-1004z" />
</font>
</defs>
</svg>
